<svg xmlns="http://www.w3.org/2000/svg" width="701.333" height="1002.667" viewBox="0 0 526 752"><path d="M254.7 13c-12 3.1-21.5 11.9-24.8 23.4-3.1 10.7-4 12.8-7.7 16.8-3.8 4.2-9.1 6.3-20.1 7.8-4.9.7-9.1 2-12 3.8l-4.6 2.7-72.5.5c-80.6.6-76.3.2-86.3 7.5C20.4 80.2 16.4 86 14 93.9c-2 6.5-2 9.8-1.8 312.6l.3 306 2.8 6.1c3.6 7.7 10.4 14.5 18.2 18.1l6 2.8 221.5.3c246 .2 227.1.8 237.7-6.5 6.6-4.4 12.8-13.4 14.2-20.6.8-3.7 1-94.8.9-311.2l-.3-306-3.3-6.7c-4-8.1-11-14.8-19-18l-5.7-2.3-72-.5-72-.5-5.2-2.8c-3.3-1.7-8.2-3.1-13-3.8-16.5-2.2-23.2-7.9-26.2-21.7-1.4-6.9-3.4-10.5-8.7-16.2-7.8-8.4-22.6-12.8-33.7-10m16.4 9.6c7.8 2.3 14.2 8.9 16.3 16.9 4.8 17.4 11.5 24.8 26.4 29.1.9.2 1.2 4.9 1.2 18.6 0 16.5.2 18.6 2 21.6 1.1 1.8 3.1 3.7 4.4 4.2s13.1 2.5 26.1 4.5c12.9 2 25.6 4.2 28.1 5 11.6 3.5 21 13.1 24.2 24.7l1 3.8H263.4c-130.2 0-137.4-.1-137.4-1.8 0-3.8 5.9-13.9 10.9-18.5 6.9-6.4 11.5-8.3 26.3-10.7 44.2-7.1 41.9-6.6 44.7-9.4 2.6-2.6 2.6-2.7 3.1-22.2l.5-19.5 5.3-1.8c10.4-3.6 17.7-12.1 20.7-24 1.9-8 4.3-12.1 9.6-16.3 7.1-5.7 14.5-7 24-4.2m-69.3 52.1-.3 4.8-4.1-.3c-4.5-.4-7.7 1.7-6.8 4.3.4 1.1 2.2 1.5 6 1.5h5.4v18h-39v-5.8c0-4.8.4-6.2 2.3-8 2.6-2.4 33.6-19.2 35.5-19.2.9 0 1.2 1.3 1 4.7m142.7 4.8c8.8 4.8 16.5 9.1 17.2 9.7.8.6 1.3 3.5 1.3 7.4v6.4h-39V85h5.4c4.2 0 5.5-.4 6-1.7 1-2.5-2-4.3-7.1-4.3H324v-4.6c0-4.3.1-4.6 2.3-4 1.3.3 9.5 4.4 18.2 9.1m-182 .4c-6.8 4.2-8 6.5-8.4 16.3-.3 7.9-.1 9.4 1.8 11.9 1.2 1.5 2.1 3 2.1 3.2 0 .3-2.1.7-4.7 1.1-5.4.7-13.7 4.3-18.7 8.1l-3.3 2.5H85.9c-34.1 0-45.8.3-46.7 1.2-1.7 1.7-1.7 586.9 0 588.6s445.9 1.7 447.6 0 1.7-586.9 0-588.6c-.9-.9-12.6-1.2-46.6-1.2h-45.3l-3.2-2.4c-4.8-3.7-13.6-7.5-18.9-8.2-2.7-.4-4.8-.9-4.8-1.1 0-.3.9-1.6 2-3 1.6-2.1 2-4.1 2-11 0-10.1-1.3-13.2-7.2-16.7l-4.3-2.6h62c60.2 0 62.1.1 66.5 2.1 5.8 2.6 9.6 6.2 12.8 12.4l2.7 5v306c0 250.5-.2 306.7-1.3 309.7-2 5.6-9.5 13.4-15 15.5-4.5 1.7-14.3 1.8-225.7 1.8-201.9 0-221.3-.1-224.6-1.6-5.6-2.6-11-7.9-13.5-13.4l-2.4-5V404.2c0-268.7.2-306.7 1.5-309.8 2.5-5.9 7.3-11.1 12.8-13.8l5.2-2.5 62-.1c60.9 0 61.9 0 59 1.9M123 132.4c0 .2-1.1 2.6-2.4 5.3-5.3 10.5-6 19.8-1.6 22 3.3 1.6 284.3 1.9 288.6.3 2.6-1 2.7-1.2 2.2-7.9-.4-4.8-1.4-8.9-3.6-13.5l-3.1-6.6H479v573H47V132h38c20.9 0 38 .2 38 .4M255.2 29.1c-11 5.5-13.1 19.2-4.3 28 7.2 7.2 16.3 7.3 24 .3 9.2-8.2 7-22.9-4.1-28.3-5.6-2.7-10.2-2.7-15.6 0m11.8 8.4c7.4 3.8 4.4 15.5-3.9 15.5-4.6 0-8.1-3.3-8.1-7.6 0-4.8.9-6.5 4.4-8 4-1.7 4.1-1.7 7.6.1m-28.2 19.2c-4.6 6-13 13.2-17.1 14.8-3.9 1.5-4.7 2.2-4.5 3.9.2 1.3 1.2 2.2 2.5 2.4 3.2.5 11.4-4.1 16.5-9.1l4.4-4.4 3.9 3.3c10.6 8.9 29.2 8.6 38.1-.7l2.8-2.9 4.6 4.4c7.5 7.4 17.9 11.8 19.3 8.3.8-2.1-.4-3.2-6.4-6.1-5.3-2.5-11.1-7.7-15.1-13.6l-1.7-2.5-4.3 4.7c-5.8 6.3-11.1 8.8-18.9 8.8-7.9 0-14.1-2.8-17.8-8.1-3.1-4.6-4.7-5.4-6.3-3.2M136 140.5c-1 1.2-1 1.8 0 3 1.1 1.3 16.4 1.5 127 1.5s125.9-.2 127-1.5c1-1.2 1-1.8 0-3-1.1-1.3-16.4-1.5-127-1.5s-125.9.2-127 1.5m40.6-53.4c-3.4 4-3.3 7.4.3 11 8.1 8 19.9-3.3 12.1-11.6-3.5-3.7-9-3.5-12.4.6m8.7 4.1c.7 2.1-.4 3.8-2.3 3.8s-3.4-2.5-2.4-4.1c.8-1.3 4.2-1.1 4.7.3m152.2-4.7c-5.2 5.1-1.6 14.5 5.5 14.5 3.7 0 9-4.7 9-8 0-7.8-9.1-11.9-14.5-6.5m8 6c0 3-3.9 2.7-4.3-.3-.3-2 0-2.3 2-2 1.5.2 2.3 1 2.3 2.3m-84.7 100.3c-112.2.2-112.7.2-113.8 2.2-1.5 2.8-.4 5.9 2.3 6.5 1.2.3 53.3.4 115.7.3l113.5-.3.9-2.8c1.1-3.1-.3-5.2-3.9-5.8-1.1-.2-52.7-.3-114.7-.1M90 221.9c-1.2 2.4-.4 4.8 2.1 6.1 1.1.6 63.6 1 171.7 1 163.3 0 170-.1 171.5-1.8 2-2.2 2.2-4.3.5-6-.9-.9-40.7-1.2-173-1.2-168.6 0-171.7 0-172.8 1.9m348.2 27.8c-1 1-9.5 9.8-18.7 19.6l-16.8 17.8-4.6-4.5c-2.6-2.6-5.6-4.6-6.7-4.6-2.5 0-4.4 1.8-4.4 4.3 0 2.8 12.8 15.7 15.5 15.7 2.4 0 7.9-5.4 30.1-29.3 6.5-7 12.3-13.7 12.8-14.8.7-1.4.4-2.4-.9-3.9-2.2-2.5-3.7-2.5-6.3-.3M92 255.3l-2.5 1.3-.3 27.8c-.2 19.7.1 28.3.9 29.2 1.6 1.9 56.8 2.1 58.7.2.9-.9 1.2-8.7 1.2-28.9 0-27.6 0-27.8-2.2-29.3-1.9-1.4-6.3-1.6-27.8-1.6-18.5 0-26.2.4-28 1.3m49 29.2V306H98v-20.9c0-20.9 0-21 2.3-21.4 1.2-.2 10.9-.5 21.5-.6l19.2-.1zm236-29.8c-.8.3-1.8 1.1-2.2 1.7-1.4 2-.9 56.1.4 57.4.9.9 8.9 1.2 30 1.2 27.4 0 28.8-.1 29.8-1.9 1.3-2.5 1.3-28.1 0-31.5-1.2-3.3-5.3-3.5-7.4-.4-1.2 1.7-1.6 4.9-1.6 13.5V306h-43v-43h18.4c15 0 18.6-.3 19.6-1.5 1.7-2.1.4-6.1-2.2-6.9-2.9-.7-39.8-.6-41.8.1m-204.8 6.5c-1.8 1.8-1.4 6.3.8 8.3 4.5 4.1 11-1.8 7.6-7-1.8-2.7-6.3-3.4-8.4-1.3m26 .4c-2.4 1.7-2.9 4.3-1 6.2 1.7 1.7 149.9 1.7 151.6 0s1.5-4.4-.4-6.2c-1.4-1.4-9.5-1.6-74.7-1.6-64.7 0-73.5.2-75.5 1.6m0 21c-2.5 1.7-2.9 4.6-.8 6.3 2 1.7 149.1 1.7 151.2.1 1.8-1.6 1.8-4.5-.2-6.4-1.4-1.4-9.5-1.6-74.7-1.6-64.7 0-73.5.2-75.5 1.6m-26 19.6c-1.8 1.8-1.4 6.3.8 8.3 4.5 4.1 11-1.8 7.6-7-1.8-2.7-6.3-3.4-8.4-1.3m25.4 1.4c-1.9 1.8-2 2.8-.6 5.5 1 1.8 2.7 1.9 53.3 1.9 39.4 0 52.6-.3 53.5-1.2 1.8-1.8 1.4-5.6-.7-6.8-1.3-.6-19.7-1-53-1-45 0-51.1.2-52.5 1.6m239 32.6c-1.8 1.8-10.2 10.6-18.6 19.6l-15.3 16.3-4.8-4.7c-4.4-4.4-5.1-4.7-7.6-3.8-5.1 1.7-4.3 4.9 3.3 12.5 4 4.1 7.7 6.9 8.9 6.9 2.2 0 10.7-8.4 31.3-30.7 6.7-7.3 12.2-13.9 12.2-14.7 0-1.9-2.7-4.6-4.6-4.6-.8 0-2.9 1.5-4.8 3.2m-346 4.4c-1.4 1.3-1.6 5.3-1.6 28.5 0 16.7.4 27.8 1 29 1 1.8 2.4 1.9 29.3 1.9 20.7 0 28.6-.3 29.5-1.2s1.2-8.7 1.2-28.8c0-25.6-.1-27.8-1.8-29.3-1.6-1.5-5.1-1.7-29-1.7-23.3 0-27.3.2-28.6 1.6m50.4 28.9V391H98v-43h43zm234.6-28.9c-1.4 1.3-1.6 5.4-1.6 29.3 0 20.2.3 28 1.2 28.9s8.9 1.2 30 1.2c27.4 0 28.8-.1 29.8-1.9.5-1.1 1-8.3 1-16.1s-.5-15-1-16.1c-1.3-2.4-5.2-2.5-7.3-.1-1.4 1.5-1.7 4.1-1.7 13.5V391h-43v-43h18.3c18.9 0 20.7-.4 20.7-4.1 0-1-1-2.5-2.2-3.3-3.3-2.4-41.9-2.4-44.2 0m-201.7 4.7c-3.5 1.8-3.9 7-.6 9.2 3.2 2.1 7.4.6 8.3-3 1.1-4.4-3.6-8.2-7.7-6.2m23.7 1.3c-1.9 1.8-2.1 4.5-.4 6.2s149.9 1.7 151.6 0 1.5-4.4-.4-6.2c-1.4-1.4-9.6-1.6-75.4-1.6s-74 .2-75.4 1.6m0 21c-1.9 1.8-2 2.8-.6 5.5 1 1.9 2.9 1.9 75.8 1.9 56.9 0 75.1-.3 76-1.2 1.5-1.5 1.5-5.1 0-6.6-.9-.9-19-1.2-75.4-1.2-66.2 0-74.4.2-75.8 1.6m-24.4 19c-2.4 1.7-3 6.2-1 8.2s6.5 1.4 8.2-1c2.1-2.9 2-4-.4-6.6-2.5-2.6-3.8-2.7-6.8-.6m23.8 2c-1 1.1-1.1 2.3-.4 4.2l.9 2.7 52.4.3c37.8.1 52.8-.1 53.7-.9 1.7-1.4 1.8-5.1.2-6.7-.9-.9-14.1-1.2-53.4-1.2-46 0-52.3.2-53.4 1.6m224.1 49-18.4 19.6-4.6-4.6c-2.6-2.5-5.6-4.6-6.7-4.6-2.6 0-4.4 1.8-4.4 4.5 0 2.8 12.9 15.5 15.7 15.5 1.9 0 6.5-4.6 37.5-37.7 3.2-3.4 5.8-6.8 5.8-7.6 0-2.1-2.7-4.7-4.8-4.7-.9 0-10 8.8-20.1 19.6m-329.9-12c-2.2 1.5-2.2 1.7-2.2 29.3 0 23.4.2 28.1 1.5 29.1 2.1 1.8 55.8 1.8 58 0 1.3-1.1 1.5-5.3 1.5-29.1 0-27.6 0-27.8-2.2-29.3-3.3-2.4-53.3-2.4-56.6 0m49.8 28.9V476H98v-43h43zm235.2-28.9c-2.2 1.5-2.2 1.7-2.2 29.3 0 20.2.3 28 1.2 28.9s8.9 1.2 30 1.2H434l1-2.6c.6-1.4 1-8.8 1-16.5 0-12.5-.2-14.1-2-15.9-1.2-1.2-2.6-1.7-3.7-1.3-3.7 1.2-4.3 3.4-4.3 15.5V476h-43v-43h18.3c18.9 0 20.7-.4 20.7-4.1 0-1-.7-2.5-1.6-3.3-2.3-2.4-40.9-2.4-44.2 0m-203 5c-5.2 3.6-.3 11.8 5.5 9.1 3.7-1.7 4.1-5.6.9-8.4-3.2-2.7-3.5-2.8-6.4-.7m24.4 1c-1.9 1.8-2.1 4.5-.4 6.2s149.9 1.7 151.6 0c1.8-1.8 1.4-5.6-.7-6.8-1.3-.7-26.7-1-75.5-1-65.4 0-73.6.2-75 1.6m0 21c-1.9 1.8-2.1 4.5-.4 6.2s149.9 1.7 151.6 0c1.5-1.5 1.5-5.1 0-6.6-.9-.9-19-1.2-75.4-1.2-66.2 0-74.4.2-75.8 1.6m-24.4 19c-2.4 1.7-3 6.2-1 8.2 2.9 2.9 9.8.1 9.8-3.9 0-1.9-3.6-5.9-5.3-5.9-.7 0-2.3.7-3.5 1.6m24 1.6c-1.7 1.7-1.5 4.4.4 6.2 1.4 1.4 7.5 1.6 52.5 1.6 33.3 0 51.7-.4 53-1 2.1-1.2 2.5-5 .7-6.8-1.7-1.7-104.9-1.7-106.6 0m-107 38c-.9.9-1.2 8.7-1.2 28.9 0 24.5.2 27.8 1.7 29 1.3 1.1 7.2 1.4 28.8 1.4s27.5-.3 28.8-1.4c1.5-1.2 1.7-4.5 1.7-29 0-20.2-.3-28-1.2-28.9-1.7-1.7-56.9-1.7-58.6 0M141 540v21H98v-42h43zm32.9-24.7c-1.6.9-2.5 2.2-2.7 4.4-.7 6.6 8.8 8.3 10.4 1.8 1.1-4.4-3.6-8.2-7.7-6.2m23.8 1.5c-2 2.2-2.2 4.3-.5 6s235.9 1.7 237.6 0 1.5-4.4-.4-6.2c-1.4-1.4-13.5-1.6-118.3-1.6-111.9 0-116.9.1-118.4 1.8m-.1 20.8c-1.9 1.8-2.1 4.5-.4 6.2s235.9 1.7 237.6 0 1.5-4.2-.6-6.1c-1.7-1.6-11.4-1.7-118.5-1.7-104.6 0-116.7.2-118.1 1.6m-25.4 19.6c-2.1 2.1-1.4 6.6 1.3 8.4 5.1 3.3 10.4-2.1 7.1-7.1-1.8-2.7-6.3-3.4-8.4-1.3m24.6 2.4c-.9 1.8-.9 3-.1 4.2.9 1.6 10 1.7 118.8 2 86.2.1 118.1-.1 119.1-.9 1.9-1.5 1.8-4.4-.2-6.3-1.4-1.4-13.6-1.6-119-1.6H198zm-105.6 34c-2.2 1.5-2.2 1.7-2.2 29.3 0 25.7.1 27.9 1.8 29.4 1.6 1.5 5.1 1.7 29 1.7 23.3 0 27.3-.2 28.6-1.6 1.4-1.3 1.6-5.4 1.6-29.4 0-27.7 0-27.9-2.2-29.4-1.9-1.4-6.3-1.6-28.3-1.6s-26.4.2-28.3 1.6m49.8 29.9V645l-21.2-.2-21.3-.3-.3-21.3L98 602h43zm32.2-24.9c-5.1 3.6-.8 11.7 5.1 9.5 4.5-1.7 4.4-7.6-.3-10.1-2.4-1.3-2.1-1.3-4.8.6m24.4 1c-1.9 1.8-2.1 4.5-.4 6.2s235.9 1.7 237.6 0 1.5-4.4-.4-6.2c-1.4-1.4-13.5-1.6-118.4-1.6s-117 .2-118.4 1.6m0 21c-1.9 1.8-2.1 4.5-.4 6.2s235.9 1.7 237.6 0 1.5-4.4-.4-6.2c-1.4-1.4-13.5-1.6-118.4-1.6s-117 .2-118.4 1.6m-25.4 19.6c-2.1 2.1-1.4 6.6 1.3 8.4 5.1 3.3 10.4-2.1 7.1-7.1-1.8-2.7-6.3-3.4-8.4-1.3m24.8 1.4c-1 1.1-1.1 2.3-.4 4.2l.9 2.7 117.9.3c86.3.1 118.2-.1 119.2-.9 1.7-1.4 1.8-5.1.2-6.7-.9-.9-28.7-1.2-118.9-1.2-105.4 0-117.8.2-118.9 1.6"/></svg>