<svg xmlns="http://www.w3.org/2000/svg" width="916" height="957.333" viewBox="0 0 687 718"><path d="M204.9 14.5c-5.3 1.7-12.7 7.9-16 13.3C175 50.6 127.5 123.2 62.5 221c-26.9 40.4-49.3 74.6-49.8 76-.7 2-.3 4.3 2.2 10.7 3 7.7 3.5 8.3 6.9 9.3 2 .5 15.4 2.4 29.7 4 14.3 1.7 27.3 3.3 28.8 3.6 2 .4 5 3.3 10.2 9.5 14 16.8 19.4 26.3 23.7 42 2.3 8.3 2.3 9.2 2.3 59.4v51l-2.7 9.8c-6.9 25.1-21.2 44.2-42 56.3-8.7 5.1-15 11.4-18.1 18.2-2.1 4.4-2.2 6.2-2.2 31.1v26.4l-2.7 2.8c-7.3 7.2.5 13.8 16.2 13.8 15.8 0 23.8-6.9 16.2-14.2l-2.7-2.6 2.2-18.2c2.4-19.7 4.2-25.3 9.3-28.9 1.6-1.2 33.9-12 71.7-24.1s69.3-22.2 70-22.4c1.3-.4 3.4 1.8 5.3 5.5.7 1.3 2.3 9.4 3.6 17.9l2.3 15.4-2.4 2.9c-1.4 1.6-2.5 3.8-2.5 4.9 0 6.6 13.8 10.6 26.9 7.8 9.9-2.1 12.8-7.4 7.2-13l-2.9-2.9-.4-24c-.3-20.8-.1-24 1.2-24 .8 0 4.4.5 8 1.1s39.6 6.2 80 12.4c116.8 18.1 138.4 21.5 138.9 22.1.9.9-6.9 15.7-13.4 25.4-3.5 5.2-10.6 14.2-15.9 20-17.8 19.6-18.7 22.3-19.3 56.4-.4 24.7-.4 24.9-2.8 27.8-6.8 8 1.4 14.8 17.7 14.8 8.3 0 13.5-1.6 17-5 3.5-3.6 3.5-5.1-.1-9.2l-2.8-3.3 2.3-20c1.3-11 2.9-21.8 3.5-24 1.7-6.1 6.3-12.1 11.1-14.3 15.4-7.3 111.1-47.2 111.9-46.6 2.3 1.4 3.8 7.5 5.9 22.9 1.2 8.8 2.3 16.2 2.6 16.6.2.4-1 2.1-2.6 3.9-3.8 4.1-3.8 7.1 0 10.4 5.9 4.9 24 5.3 31.8.6 4.4-2.7 4.5-7.4.2-11.5l-3-2.9V599c0-26.7-.7-31-6.4-37.6-2-2.3-6.9-5.8-11.6-8.4-14.8-7.9-24.8-21.5-31.3-42.5-5-16.3-5.2-18.7-5.2-84 0-59.9 0-61.2 2.2-69.8 3-11.6 8.5-25.6 17.6-45.2 13.1-28 18.7-48.6 20.9-77.7 1-12.8.9-18.4-.1-29.5-.8-7.6-1.4-14.5-1.4-15.3-.1-.8 5.5-10.3 12.4-21 37.3-57.9 35.9-55.6 35.8-60.2-.1-6.9-2.4-21.7-3.6-22.9-.6-.6-6.2-1.5-12.4-2-51.6-4.5-90.5-7.6-90.7-7.4s.1 1.9.8 3.9c1.4 4.2-2.6 3.6 45.5 7.6 19.8 1.6 38.5 3.2 41.6 3.6l5.7.6-16.7 26.1c-9.2 14.4-27.2 42.6-40.1 62.7-40.3 63.1-109.1 170.4-109.5 170.8-.1.1-19.1-2-42.1-4.8-51.9-6.3-206.3-24.6-361.2-42.9-37.1-4.4-67.6-8.1-67.7-8.3-.2-.2 5.8-9.7 13.3-21.1l13.7-20.6.8 6.5c1.1 10.3 6.2 19 15 26.1 8.4 6.7 11.1 7.2 76.2 14.7 16.5 2 61.3 7.2 99.5 11.6s84.8 9.8 103.5 12 55.5 6.4 81.7 9.5c26.3 3 49.3 5.5 51.2 5.5 3.3 0 3.6-.4 29.7-40.3 14.4-22.1 43.6-66.5 64.7-98.7 21.2-32.2 43.8-66.6 50.3-76.6 11.6-17.6 13.2-21.1 10.7-23.1-1.3-1-63.5-6.9-64.3-6.1-.2.2-.6 2-.7 3.8l-.3 3.5 27.8 2.4c18.7 1.7 27.7 2.9 27.5 3.6-.2.6-9.9 15.7-21.6 33.6-11.7 17.8-36.2 55.1-54.5 82.9s-41.5 63.3-51.6 78.8c-16.3 24.8-18.8 28.2-21 28.2-1.5 0-12.3-1.2-24.1-2.5-11.8-1.4-48.7-5.7-82-9.5-33.3-3.9-65.9-7.7-72.5-8.5s-37.4-4.4-68.5-8c-111.5-12.8-142.6-16.6-147.9-18.2-6.8-2.1-15.5-9.9-18.8-16.8-3.1-6.9-3.2-15.6 0-21.6 2.6-4.8 8.9-9.4 14.6-10.5l3.3-.7-3.6 4.9c-2 2.7-5 6.7-6.6 8.9-6.2 8.2-4.9 17.7 3.5 26.1 8.5 8.6 21.1 11 31.1 5.9l4.9-2.5 16 2c8.8 1.1 69.5 8.3 135 16s139.8 16.4 165.2 19.5c25.4 3 47.1 5.5 48.1 5.5 1.3 0 3.1-1.7 5-4.8 3.3-5.3 27.2-41.8 79.7-121.7 53.2-80.9 53-80.6 51.6-81.4-1.1-.7-37.5-4.2-43.3-4.1-4 0-3.6 2.6.5 3.3 1.7.3 10.4 1.1 19.2 1.8 8.8.6 16.6 1.5 17.3 1.9 1.2.6-5.1 10.5-55.9 87.5-6.5 9.9-23.8 36.3-38.4 58.7-14.7 22.5-27.1 40.8-27.7 40.8-.5 0-14.5-1.6-31-3.6-19.7-2.3-30.4-3.2-31.1-2.5-.7.5-2.8 3.7-4.7 7.1l-3.5 6.1-4-.6c-2.2-.3-61.4-7.3-131.5-15.5-70.1-8.3-135.4-16-145.2-17.2l-17.6-2.1 2.2-3.6c1.3-2 10.7-17.3 21.1-34.1 10.3-16.8 25.2-40.9 33-53.5 7.8-12.7 23.1-37.4 34-55 31.2-50.7 27.9-46 32.3-45.7 11.5.9 115.4 10.3 119 10.7 3.3.5 4.3.3 4.8-1 .4-.9.5-1.8.3-2C358.5 90.2 238 79 234.6 79c-1.3 0-1.2-.5.5-3.5 1.2-1.9 2.6-3.5 3.2-3.5.7 0 28.4 2.5 61.7 5.5 33.2 3 62.1 5.5 64 5.5 2.9 0 4.1-.6 5.9-3.1 1.3-1.7 2.1-3.2 1.9-3.4s-29.3-3-64.6-6.2-64.2-6.1-64.2-6.6c0-.4 1.1-2.5 2.4-4.6 2.4-3.7 2.7-3.8 6.8-3.4 2.4.2 32.2 2.8 66.3 5.8l62 5.4 2.8-2.6c1.5-1.5 2.7-3.2 2.7-3.8 0-.8-8.9-1.9-26.7-3.4-14.8-1.3-45.5-3.9-68.3-6l-41.5-3.6-.6-6c-1-10.7-7.9-19.9-18.6-25.1-6.8-3.4-18.2-4.2-25.4-1.9m21.1 8.6c9.4 4.2 15.3 12.6 15.4 21.9 0 5.4-.2 6-16 31.5-8.9 14.3-36.9 59.7-62.4 101-25.4 41.2-46.6 75.4-47.1 75.9s-1.3-.3-1.9-2c-3.3-9-11.4-17.9-19.7-21.6-5.6-2.5-15.4-3.4-20.6-2l-3.8 1.1 2.2-3.7c1.3-2 3.9-6.2 5.9-9.2 4.3-6.3 19.6-30.3 77.7-121.5 22.8-35.8 42.4-66.1 43.6-67.4 5.6-6.1 18-8 26.7-4m440 81.7c0 4.5-1 6.4-15.6 29.3-32 49.9-53.2 83.1-69.4 108.4-42.2 65.9-56.4 88.1-65.5 102.5-12.5 19.7-11.8 19-13.5 14.2-1.2-3.8-1.1-4.2 1.7-8.3 2.8-4.2 56.7-88 79.5-123.9 5.8-9.1 19.2-30 29.8-46.5s26.5-41.4 35.4-55.2c8.8-13.9 16.4-25.3 16.9-25.3.4 0 .7 2.2.7 4.8M619.6 225c-1.1 30.9-7.1 56.1-19.1 80-13 25.9-33.3 46.3-52.5 52.7-6.2 2-28.1 2.6-29.9.8-.7-.7-.5-2 .7-3.9 1.7-2.9 1.7-2.9 12.7-3 13-.2 18.8-2 29.4-9 13.4-8.9 25.5-24.6 35.6-45.9 11.2-23.9 16.5-47.6 16.5-74.6 0-13.9.1-14.6 2.7-19l2.7-4.6.9 5.5c.5 3 .6 12.5.3 21m-14.9 7.2c-1.5 34.1-16.1 72-35.9 93.3-5.6 6-5.6 6-9 4.7-4.9-1.7-10.6-1.5-15.4.7-5 2.3-7.4 5.5-7.4 9.9 0 3.9-1.4 4.6-7 3.5l-4.1-.8 34.8-54.5c19.2-30 36.9-57.8 39.3-61.7 2.5-4 4.7-7.3 4.9-7.3s.1 5.5-.2 12.2M91.6 237c1.5.6 4.4 2.4 6.5 4.1l3.9 3-2.1 4.1-2.1 4.1-2.8-3.5c-2.6-3.2-4.6-4.3-10.3-6.2-1.7-.5-1.6-.8.4-3.6 2.5-3.4 2.7-3.4 6.5-2m-2.8 16.4c1.8 1.8 2.6 3.7 2.7 6.3.1 4.8 1 6.3 4 6.3 1.8 0 3.3-1.5 6.6-6.8 4-6.3 4.3-6.5 5-4.2 2.1 7.4-.6 15.1-6.3 18.5-6.1 3.6-16.4 1.8-22.6-3.9-5.8-5.2-6.9-13-2.6-17.3 2.2-2.1 3.2-2.5 6.6-2 2.5.3 5.1 1.5 6.6 3.1M451 303.1c15.1 1.8 27.7 3.4 27.9 3.5.2.2-1.2 2.8-3.1 5.7l-3.6 5.3-26.3-3.3c-14.5-1.8-27.4-3.3-28.6-3.3-1.3 0-2.3-.5-2.3-1.1 0-2.2 5.3-9.9 6.8-9.9 1 0 14.1 1.4 29.2 3.1m-388.3 4.4c20.8 2.5 56.7 6.8 79.8 9.5s55.3 6.6 71.5 8.5c16.2 2 43 5.1 59.5 7.1 16.5 1.9 43.1 5.1 59 7 16 1.9 57.4 6.8 92 10.9 34.7 4.1 64.4 7.7 66.2 8 2.4.4 3.4 1.3 4.2 3.7.6 1.7 1.1 3.3 1.1 3.4 0 .9-8 .1-46-4.6-22.3-2.8-63.4-7.8-91.5-11-28-3.3-58-6.9-66.5-8s-40-4.9-70-8.5c-50.6-6-95.4-11.3-167.5-20-25.9-3.1-29.2-3.7-30.7-5.6-2.2-2.6-2.3-4.9-.3-4.9.8 0 18.4 2 39.2 4.5m35.2 19.4c1 .6 4.9 5.2 8.9 10.3 21.8 28.6 24.9 42.7 23.9 109.2-.5 31.9-.8 37.3-2.7 46.1-6.4 29.9-20.1 50.5-43.6 66.1-19.5 12.9-20.6 15.1-21.2 45.2-.3 19.2-.5 21.3-2 21s-1.7-2.7-1.7-24.3c0-21.5.2-24.4 1.9-27.5 2.6-5 7.4-9.8 12.1-12.2 26-13.4 44.5-40.5 50-73.4 1.4-8.5 1.6-16.5 1.2-56.9-.3-44.2-.5-47.5-2.5-55.2-1.2-4.6-3.3-11.1-4.8-14.5-3.1-7.4-11.8-21.1-18-28.5-5.3-6.2-5.7-7.6-1.5-5.4m21.1 7.3c6.6 8.2 15.3 25.9 18.2 37.3l2.3 9v149.8l-9.9 3.3c-5.5 1.9-10.1 3.2-10.3 3-.2-.1 1.9-4.5 4.6-9.7 5.9-11.2 10.2-23.6 12.7-37.4 1.7-8.8 1.9-15.3 1.9-52.5 0-45.3-.4-50.5-5.2-66.9-3.6-12.8-9.8-24.1-21.1-38.9-2.4-3.1-2.4-3.2-.4-3.2 1.4 0 3.9 2.2 7.2 6.2m19.3-2.6c1.5.5 1.7 1.9 1.7 11.2l-.1 10.7-3.7-7c-2-3.9-5.2-9.2-7.1-11.9l-3.3-4.8 5.3.7c3 .3 6.2.9 7.2 1.1M154 436c0 56.6-.2 103-.4 103s-11.5 3.6-25.2 8c-13.6 4.3-24.9 7.8-25.1 7.6-.1-.1 1.2-1.6 3-3.3 2.6-2.5 6.7-4.2 21.1-8.7 9.8-3 18.4-6.1 19.2-6.7 1.2-1 1.4-17.2 1.4-102V333h6zm14-90.4c0 8.7-.3 10.8-2.1 13.9-2.4 4-2.1 9.5.5 12.4 1.3 1.4 1.6 10.3 2.2 59.1l.7 57.5-2.7 4c-2.2 3.2-2.7 4.8-2.3 7.8.3 2.1 1.3 4.7 2.2 5.7 1.3 1.4 1.8 4.7 2.2 14.8l.6 12.9-3.3 1.2c-1.8.6-3.5 1.1-3.6 1.1-.2 0-.4-45.4-.4-100.8V334.3l3 .5 3 .4zm14.3-8.6c1.5 0 1.7 1.1 1.7 9v9h-8v-9.6c0-9.5 0-9.6 2.3-9 1.2.3 3 .6 4 .6m372.7.5c0 .4-8.8 4.5-9.6 4.5-1.2 0-.1-3.1 1.4-3.9 1.7-1 8.2-1.5 8.2-.6m-359 10c0 8.8-.1 9.5-2 9.5s-2-.7-2-9.5.1-9.5 2-9.5 2 .7 2 9.5m34.5-5c11.6 1.4 43.3 5.2 70.5 8.5 51 6.1 99 11.8 142.4 17 13.6 1.6 25 3.1 25.2 3.3s-6.1 3.4-14.1 7.2c-14.5 6.8-14.5 6.8-21.2 6.2-6-.5-46.5-5.2-100.8-11.7-9.3-1.1-40.4-4.7-69-8s-53.7-6.2-55.7-6.6l-3.8-.6V339l2.8.5c1.5.3 12.2 1.6 23.7 3m352.4 6.5c-4.7 15.2-5.1 21.9-4.6 83.1.5 62 .6 64 6.3 82.1 4.8 15.2 13.6 30 22.8 38.1 1.7 1.5 6.9 4.9 11.5 7.5 5.8 3.3 9.2 5.9 11 8.6 2.6 3.9 2.6 4.1 2.9 26.9.2 12.7-.1 23.4-.6 23.9s-1.4-6.4-2.1-15.9c-1.1-14.8-1.5-17.5-3.9-22.3-3.3-6.7-9.4-10.5-15.2-9.5-1.9.4-20.4 7.9-41 16.7s-47.4 20.2-59.6 25.4c-12.1 5.2-23.7 10.8-25.7 12.5-2 1.6-5 5.8-6.7 9.3-2.8 5.6-3.4 8.6-5.6 26.7-1.3 11.2-2.6 20.8-2.8 21.4-.8 1.8-.5-24.8.3-35.1 1.1-12.9 4.3-19.8 14.2-30.9 24.8-27.7 37.5-55 43.6-93.6 1.6-9.8 1.8-17.7 1.7-57.4 0-43.8-.1-46.5-2.2-56.4-2.9-13-7.7-25.1-13.8-34.2-4.2-6.4-4.5-7.2-3.1-8.6s2-.9 6.2 5.6c2.5 3.9 5.7 9.5 6.9 12.4 10.1 22.8 14.8 59.5 12.7 99.9-2.7 51-11.8 82.9-32.5 114-6 9.1-6.9 13-3.1 13.6 1.1.1 10.6-3.3 21-7.7 10.5-4.4 33.6-14.1 51.5-21.6s33.5-14.3 34.7-15.1c1.3-.8 2.3-2.2 2.3-3 0-.9-2.9-4.4-6.4-7.8-11.3-10.7-17.7-21.2-22.9-37.1-7.8-23.8-8.7-34.6-8.7-106.8v-59.8l6.3-5.8c3.4-3.3 6.3-5.8 6.4-5.7s-.7 3.1-1.8 6.6M564 468.8v109.9l-2.5 1.1c-1.4.7-2.8 1.2-3 1.2-.3 0-.5-49.2-.5-109.3V362.5l2.8-1.7c1.5-1 2.8-1.8 3-1.8.1 0 .2 49.4.2 109.8M226.5 368.5c26.4 3.1 75 8.7 108 12.6 33 3.8 66.5 7.7 74.5 8.6 8 .8 14.9 1.9 15.3 2.3s-1.3 1.5-3.9 2.5c-4.6 1.7-5 1.7-35.8-1.9-40.4-4.8-142.7-16.7-176.6-20.6-34.6-3.9-35.4-4.1-35.8-6.4-.5-2.3 1.2-3.4 4.1-2.9 1.2.2 23.8 2.8 50.2 5.8M550 473.6v107.5l-2.2-.7c-1.3-.3-2.5-.8-2.7-1-.3-.3-.7-48-.9-106-.5-112.5-.7-107.3 4.1-107.4 1.6 0 1.7 5.8 1.7 107.6m-13.5-98.4c.3 4 .5 10.7.3 14.8l-.3 7.5-1.8-5.5c-1-3-4.1-9.7-6.8-14.8L523 368h12.8zM490 374c1.1.7.4 1.3-3 2.8-2.5 1.1-8.9 4.1-14.3 6.6-9.8 4.6-13 5.3-15.5 3.7-.9-.5 3.4-3 13-7.4 14.5-6.6 17.1-7.4 19.8-5.7m17.4 7.1c5.5 8.5 10.2 20.6 12.3 31.9 1.6 8.3 1.8 15.3 1.8 55.5 0 39.5-.3 47.4-1.8 56-6.3 35.8-17.6 60.4-38.6 84.5-10.7 12.2-13.8 16.9-16.3 23.8-2.3 6.5-3.7 20.8-3.7 39.3l-.1 12.6-2.5-.5-2.5-.4v-19.7c0-30.9 1.1-34.4 17-52.3 25.2-28.4 36.8-52.9 42.7-90.4 2.5-15.4 2.4-93.1-.1-107.1-2.3-13.2-7.4-26.8-13.6-36.1-2.1-3-2.1-3.2-.3-3.2 1.1 0 3.3 2.3 5.7 6.1M181.6 377h2.4v56.5c0 31.6-.4 56.5-.9 56.5s-2.3-.3-4-.6l-3.1-.7v-56.4c0-51.1.2-56.5 1.6-55.9.9.3 2.7.6 4 .6m48.4 8.5c29 12.9 105.2 47.4 105.7 47.9 1 1-.4 1.9-2.9 1.8-2.3 0-120.9-53-122.7-54.8-.3-.3 1.9-.2 4.9.2s9.7 2.6 15 4.9m-33.7 18.2c1.2 38 6.4 58.7 19.7 78.3 3.3 4.9 3.9 6.4 2.9 7.1-2.5 1.6-3.4.9-8.1-6.4-12.9-19.9-17.5-39-18.5-78.6-.6-23.1-.6-23.3 1.4-22.3 1.9 1 2 2.5 2.6 21.9m301.9-16.2c1.5 2.8 2.5 5.1 2.4 5.3-.4.3-16.6-1.6-20.6-2.4-2.1-.5-1.3-1.1 5.5-4.4 4.4-2.1 8.5-3.7 9-3.6.6.1 2.2 2.4 3.7 5.1m-181.7 5c30.3 3.5 61.9 7.2 70.3 8.2 8.3.9 14.9 2 14.5 2.4-.5.4-12.9 6.4-27.8 13.4-23.2 10.9-27.4 12.5-29.5 11.7-3.6-1.4-82.3-36.9-89.5-40.3l-6-2.9 6.5.5c3.6.3 31.3 3.5 61.5 7m-99.8-.1c6.5 2.9 30 13.6 52.3 23.6s43.4 19.6 47 21.2c6.4 2.9 6.5 3 4 4.3-6.9 3.6-90.9 42.5-91.8 42.5-1.7 0-9-10.7-12.7-18.5-7.3-15.6-10.4-31.5-11.2-58.8-.3-10.8-.3-19.7 0-19.7s5.9 2.4 12.4 5.4m222.8 6.5c-17 8.2-164.1 77.2-190.9 89.6-16.2 7.5-19.3 8.6-22.3 8-1.9-.3-3.3-.8-3.2-1 .2-.2 10.3-4.9 22.4-10.5 25.4-11.8 59.6-27.8 84-39.2 9.4-4.4 23.1-10.9 30.5-14.3 7.4-3.5 28.4-13.3 46.5-21.9 29.3-13.8 33.6-15.6 38-15.5l5 .1zm45.6.1c9.1 1.1 17.1 2 17.7 2 1.2 0 3.7 4.9 2.9 5.6-.2.2-11.7-.9-25.5-2.6-13.9-1.6-25.5-3-25.9-3-.5-.1 1.6-1.1 4.5-2.4 3-1.3 6.4-2.1 7.5-2 1.2.2 9.6 1.3 18.8 2.4m-8.7 12.5c17.1 2 31.2 3.8 31.5 4.1 1.4 1.4 2.8 76.7 1.5 83.2l-.6 3-10.7-4.7C448.7 475.2 372 440.4 372 439.9c0-.3 6-3.3 13.3-6.7 7.2-3.3 22.7-10.6 34.2-16 13.9-6.6 21.8-9.8 23.5-9.6 1.4.2 16.4 2 33.4 3.9m-64.1 55.6c27.1 12.1 59.9 26.8 73 32.7 18.4 8.2 23.7 11 23.7 12.4 0 1-.4 1.8-1 1.8-.5 0-7.6-3-15.7-6.6-8.2-3.7-18.6-8.3-23.3-10.4-15.4-6.8-101.4-45.7-106.2-48.1-4.7-2.3-5.4-3.9-1.7-3.9 1.1 0 24.1 9.9 51.2 22.1m-45.1-7.5c10.6 4.8 31.5 14.2 46.3 20.9 39.8 18.1 67.5 30.5 81 36.5 6.6 2.9 12.2 5.4 12.4 5.6.4.4-1.8 13.9-2.6 16-.2.6-6.3.1-18.1-1.8-27.9-4.4-166.6-25.9-228.2-35.3-5.8-.9-11.1-1.8-11.9-2.1s12-6.7 28.5-14.3c16.4-7.6 39.6-18.4 51.4-23.9 11.8-5.6 21.6-10.1 21.7-10.1.1-.1 8.9 3.8 19.5 8.5m-171.5 11.9c1.6 3.8 4.7 9.7 6.9 13 2.1 3.3 4.3 6.6 4.8 7.4.7 1.1-.3 1.2-6 .6-3.7-.4-7.3-.9-8.1-1.2-1-.4-1.3-3.7-1.3-14.1 0-7.4.2-13.3.4-13.1s1.7 3.5 3.3 7.4m47.1 35.5c59.7 9.2 120.7 18.6 219.6 34 21.4 3.3 39.1 6.2 39.3 6.4s-.1 1.5-.7 3c-.7 2.1-1.5 2.5-3.2 2.1-2.9-.7-23-3.8-75.9-12-23.3-3.6-64-9.9-90.4-14s-65.3-10.1-86.5-13.4-45.2-6.9-53.5-8.2c-17.6-2.6-19.5-3.2-19.5-5.9 0-1.6.7-2 3.1-2 1.7 0 32.2 4.5 67.7 10m-59 13.3c.3 8.6.2 8.7-2.3 9.7-5.4 2-5.5 1.8-5.5-9.1v-10l3.8.3 3.7.3zm33.6-3.6c3.6.6 3.1.8-10 4.9-7.7 2.4-14.2 4.4-14.6 4.4-.5 0-.8-.8-.8-1.8 0-1.4 2.1-2.6 8.8-5 9.4-3.3 10.7-3.5 16.6-2.5m357.1 10c3.2 9.2 7.7 17.6 13.9 26.1 4.7 6.3 4.6 8.4-.1 3.4-4.1-4.3-11.3-15.8-13.8-22-2-5-4.1-15.2-3.1-15.2.2 0 1.6 3.5 3.1 7.7m-322.1-4.4c5.5 1.1 6 1.5 7.2 4.7 1.2 3.5 2.1 44 .8 42.8-.3-.3-1.2-6.8-2-14.4-.8-7.7-1.9-15.4-2.5-17.2-1.5-4.5-6.6-10.2-10.6-11.8-5.4-2.3-9.7-1.6-27.1 4-9.2 3-33.8 10.9-54.7 17.6-74.7 24-75.2 24.1-78.9 27.2-6.3 5.2-9.3 13.2-11.5 30.8l-1.9 15.5-.1-17.1c-.2-29.5 1.2-31.6 25.9-39.4 26.5-8.3 121.7-38.9 131-42 9-3.1 12.1-3.2 24.4-.7m-4.3 16.9c1.1 2.1 4.3 30.8 3.5 31.5-.9.9-1.4-1.4-3.5-16.5-1.1-7.8-2.8-15.7-3.7-17.5l-1.7-3.2 2.3 2c1.2 1.1 2.6 2.8 3.1 3.7m325.3 9.7c.8 1.5 3.1 4.9 5 7.5l3.6 4.6-3.3 1.4c-7.7 3.2-7.2 3.6-7.2-6.9 0-5.2.1-9.5.2-9.5s.9 1.3 1.7 2.9M537 555c0 2.3-.4 3-2 3-2 0-2.5-1.5-1.4-4.4 1.1-2.8 3.4-1.8 3.4 1.4m0 18v6.7l-7.7 3c-4.3 1.7-7.9 3-8.1 2.8-.1-.1 1.5-4 3.7-8.6 2.1-4.6 4.1-9.1 4.4-10 .3-1.1 1.5-1.4 4.1-1.1l3.6.4zm49.6-3.3c-13 5.5-15.6 6.3-15.6 5 0-1.5 17.9-8.7 19.9-7.9.7.3-1.2 1.5-4.3 2.9m-321.9 9.7c.4.3.3.9 0 1.2-1.1 1.1-10.3 1.7-14.4.9-3.2-.6-3.5-.9-2.2-1.8 1.6-1.2 15.5-1.5 16.6-.3m354.8 5.6c.7 1.4 1.8 8 2.4 14.7 2.3 25 .8 26-2.5 1.8-1.3-9-3.1-17.9-4-19.7l-1.7-3.3 2.3 2c1.2 1.1 2.8 3.1 3.5 4.5m-77.8 3.1c-1.8 1.1-27.6 11.9-28.4 11.9-.2 0 0-.7.5-1.6 1-1.8 24.3-11.3 27.7-11.3 1.8 0 1.9 0 .2 1m95.1 41.3c2.9 1.8-.9 3.1-8.8 3-8.5-.1-10-.5-8.1-2.7 1.2-1.6 14.6-1.8 16.9-.3m-563 6.8c-1.8 1.1-16.5 1-17.2-.1-1.2-1.8 2.4-3.3 6.6-2.8 2.4.3 5.2.2 6.3-.2 2.5-1.1 6.4 1.7 4.3 3.1m393.1 56.3c2.9-.5 4.1-.2 5.5 1.4 1.8 1.9 1.7 2-1.8 2.6-4.4.9-17.2.2-18.3-.9-.4-.4.2-1.6 1.5-2.6 1.8-1.5 2.8-1.7 5.8-.8 2 .5 5.3.7 7.3.3m-44.4-387.6c-.3.5-.1 1.2.4 1.6 2.2 1.3 42.4 5.6 43.4 4.6.6-.6.8-1.3.5-1.6-.5-.5-38.3-5.5-42-5.5-.9 0-1.9.4-2.3.9m13.8-290.2c-1.7 1-10.3 10.2-19 20.4-16.7 19.6-28.4 33.5-79.3 93.4-17.3 20.3-37.5 44.1-45 52.8-7.4 8.8-14.2 17.3-15.1 19-4.6 9.1-21.1 50.8-20.5 52.2.3.8 1.3 1.8 2.1 2.1 1 .4 11.1-5.1 26.8-14.6l25.2-15.2 8.7-10.1c4.7-5.6 13-15.4 18.3-21.7s12.9-15.3 16.9-20 24.3-28.8 45.2-53.5c73.9-87.6 66.4-78.1 66.4-84 0-9.9-13.3-22.4-24-22.5-1.9 0-4.9.8-6.7 1.7m12.6 7.7c1.5.8 4.4 3.3 6.4 5.5 5 5.5 4.9 8.9-.2 14.4l-3.9 4.1-5.6-5.7c-3.1-3.1-7.4-6.6-9.7-7.7-4.5-2.3-4.5-2.3 1.5-8.8 3.3-3.6 6.9-4.1 11.5-1.8m-19.6 16c7.5 3.2 17.6 13.8 15.6 16.3-1 1.1-1.7.6-4.1-2.6C438.2 48.5 427 40 424.9 40c-.5 0-.6-.7-.3-1.5.7-1.8.7-1.8 4.7-.1m-.7 9c5 3.4 11.4 10.4 11.4 12.4 0 2.8-2.3 1.7-7.4-3.3-3.1-3-7.6-6.6-10.1-8.1-2.5-1.4-4.2-3-3.9-3.5 1.1-1.8 5-.8 10 2.5m-9.3 4.7c5.8 3 16.1 13.7 14.7 15.4-.8 1-2.5-.2-7.3-4.9-3.4-3.4-7.9-7-9.9-7.9-2.5-1.2-3.5-2.2-3.2-3.2.8-1.9.7-1.9 5.7.6m-10.1 11.3c-1.1 1.2-20.7 24.4-43.8 51.6-68.8 81.4-70.2 83-72.9 83-1.4 0-2.5-.2-2.5-.5 0-.2 5.5-6.9 12.3-14.7 6.7-7.9 18.3-21.5 25.7-30.3 7.4-8.7 20.3-23.8 28.5-33.4 8.3-9.7 19.9-23.5 25.9-30.6 20.4-24.2 25.7-29.7 27.3-28.4 1.2 1 1.1 1.5-.5 3.3m9.3 2.2c1.4.9 2.5 2 2.5 2.4 0 .6-26.3 32.1-40.9 49-2.6 3-19.2 22.6-36.8 43.5-42.6 50.5-39.2 46.9-42.5 45.6-3.5-1.3-3.5-3.2 0-7.3 1.6-1.8 19.2-22.7 39.2-46.3C396.7 85.6 415.1 64 415.6 64c.3 0 1.6.7 2.9 1.6m7.4 11.1c-1.5 1.9-50.8 60.5-62.9 74.8-13.7 16.1-36.1 42.8-44.9 53.3-8.2 9.8-8.6 10.1-9.3 7.6-.5-2.1-.2-3.4 1.5-5.3 1.2-1.5 9.4-11.1 18.2-21.5s20.1-23.8 25-29.6c68.5-81.3 70.9-84.1 72.4-82.6 1.2 1.3 1.2 1.7 0 3.3M292 207.5c1.2 3.7 3.5 5.5 6.9 5.5 1.1 0 2.5.9 3.1 1.9 2.3 4.4 1.3 5.7-9.3 12-5.7 3.4-10.6 6.1-11 6.1s-1.5-.8-2.6-1.9c-1-1-2.4-2-3.1-2.3-1.8-.6 7.6-23.5 9.9-24.1 4-1.1 5-.6 6.1 2.8M561.5 26.7c-3.2.8-7 4.9-13.5 14.8-4.6 6.9-6 10-6 12.7 0 2-.5 4-1.2 4.4-.6.4-3.9.6-7.2.5-15.7-.5-28.8 9.4-31.8 24.1l-1.2 5.9-24.3 23.6-24.3 23.5-3.3-1.3c-1.7-.7-4.4-2.1-5.9-3.1-1.4-1-3.5-1.8-4.5-1.8-2.9 0-5.6 3.4-4.8 5.9s2.7 3.6 7.7 4.5c2.1.4 3.9 1 4.2 1.5.3.4-16.2 17.1-36.6 37.2-23.9 23.3-38.5 38.5-41 42.3-4.1 6.4-7.8 16.8-7.8 22.1 0 2.5-1.1 4.7-4.5 8.6-4.7 5.6-4.9 5.8-3.9 8.3 1.8 4.7 5.9 1.5 39.8-31.4 12.2-11.8 35.3-34 51.3-49.2l29.2-27.7 3.1 1c3 1.1 3.1 1.2 2.3 5.8-1 6.5-.8 8.9 1.2 11.1 3.9 4.3 9.8 2.5 14.7-4.4 1.7-2.5 3.4-4.6 3.7-4.6 3.5.1 1.9 4.6-37.2 99.8-3.7 8.9-6.6 16.5-6.5 17 .2.4-.8 3.3-2.1 6.4-2.7 6.8-2.3 9.1 1.6 8.6 2.3-.2 3.4-1.4 5.9-6 2.4-4.7 4.1-6.5 9-9.4 7.2-4.3 11.5-8.3 15.9-15 2.7-4.1 28.8-63.5 38.1-86.7 1.8-4.7 2-4.8 5.3-4.3 1.8.3 5.1 1.4 7.2 2.6 5 2.5 7.1 2.5 9.5-.1 1.7-1.9 1.7-2.3.3-4.7-1.1-2.1-2.5-2.8-5.9-3.3-2.5-.4-5.9-1.3-7.6-2l-3.1-1.4 9.8-23.3c9.3-21.9 10.2-23.6 14.8-27.8 6.9-6.2 10.4-13.5 10.4-21.9 0-5.4-.6-7.5-3.7-13.6-3.5-6.8-3.6-7.3-2-9 1-1.1 2.5-1.9 3.4-1.9 1.1 0 4.5-4.2 9.4-11.6 8.1-12.4 9.3-16.5 6-21.2-2.6-3.7-9.6-6.4-13.9-5.5m6.3 8.5c2.1 2.1 1.3 4.7-4 12.7l-5.3 7.8-3.7-2.5-3.7-2.4 4.1-6.2c7-10.5 9.6-12.4 12.6-9.4M551 60.9c0 1.2-2 2.5-2.7 1.8s.6-2.7 1.8-2.7c.5 0 .9.4.9.9m-9.7 7.5c9 3.8 13 14.1 9.2 23.4-6.2 14.8-26.2 19.8-36.2 9-2.9-3-5.3-8.9-5.3-12.8 0-7.1 6-15.6 13.5-19.1 4.8-2.2 14.2-2.5 18.8-.5M506.2 103l2.5 3.5-36 34c-19.8 18.7-48.6 46.1-63.9 61-15.4 14.8-30.8 29.6-34.3 32.8-6 5.5-6.4 5.7-5.5 2.8.4-1.7 2.3-5.8 4.1-9.2 2.9-5.3 12.7-15.4 66.3-68.1 34.7-34 63.3-61.5 63.6-61.1.3.5 1.8 2.4 3.2 4.3m11.9 9.8c1.4.6.5 3.6-6.8 21.4-6.5 15.7-8.8 20.5-10 20.1-.8-.3-1.2-1.2-.7-2.2 1.7-4.2 1.7-10.2-.1-12.1-3.6-4-9.9-2.1-16.1 4.8-2.2 2.4-3.3 3-4.4 2.2-1.7-1.1-3.3.7 20.2-21.9 7.6-7.2 14.3-13.1 15-13 .7 0 2 .3 2.9.7m20.5 2.4c-.7 1.8-6.8 16.1-13.4 31.8-33.3 78.8-45.4 106.5-48.7 111.5-3.1 4.6-10.1 11.5-11.7 11.5-.3 0 4.5-12 10.5-26.8 6.1-14.7 20.3-49.7 31.7-77.7l20.7-51 5.2-.6c2.9-.4 5.5-1 5.8-1.3 1.3-1.3 1.3-.5-.1 2.6M495 148c0 1.1-1.3 3.2-3 4.7-1.6 1.4-3 3.6-3 4.9 0 2.3-3.4 7.3-4.4 6.3-1.6-1.6 7-17.9 9.4-17.9.6 0 1 .9 1 2m30.3-73c-13.6 6.1-9.6 24.3 5.3 24.3 13.8 0 18.5-18.7 6.1-24.4-5.2-2.3-6.2-2.3-11.4.1m10.3 8.6c1.6 2.4 1.6 2.7-.3 5.2-2.8 3.8-7.6 4.2-9.8.8-1.4-2-1.4-2.9-.4-4.8 1.6-3 2.8-3.8 6.1-3.8 1.9 0 3.3.8 4.4 2.6M453 69.1c-1.2 1.6-2 3.2-1.8 3.4.2.3 8.3 1.1 17.9 2 9.5.8 19.5 1.7 22 2 4.4.5 4.6.4 6.3-3.1.9-2 1.6-3.8 1.4-3.9-.4-.4-36.2-3.5-40.3-3.5-2.6 0-3.9.7-5.5 3.1m-14.5 16.4c-1.5 2-2.5 3.8-2.4 4 .2.2 11.4 1.3 24.8 2.5l24.5 2.1 3.4-3.5 3.5-3.4-3.4-.6c-1.9-.3-11.9-1.3-22.4-2.1-10.4-.9-20.4-1.8-22.1-2-2.7-.5-3.5 0-5.9 3m-181 14.6c-3.9 6.3-4 9.2-.2 4.7l2.2-2.5 20 1.9c30.1 2.8 28.7 2.6 27.4 4.9-1.4 2.7-.1 3.9 1.6 1.5.8-1 1.6-2.2 1.7-2.6.2-.4 7.7-.1 16.6.7 14.9 1.3 18.5 1.3 17-.2-.4-.4-19.8-2.5-31.7-3.5-.2 0 .4-1.2 1.4-2.6.9-1.4 1.4-2.9 1-3.2-.6-.7-4 2.8-4.7 4.8-.3.8-36.8-2-46.6-3.6-3.1-.5-3.2-.6-1.7-2.7 1.7-2.5 1.9-3.7.6-3.7-.5 0-2.6 2.7-4.6 6.1m-9.2 10.1c-1 1.2-26 42.4-66.9 110.4-10.7 17.7-19.4 32.6-19.4 33.2 0 .5 5.1 1.5 11.3 2.1 13.9 1.5 51.3 5.8 97.2 11.1 19.3 2.2 36.4 4 38 4 2.9 0 3.7-1.2 19-27.7 8.8-15.2 17-29.6 18.2-31.9l2.3-4.2-4.2-.7c-2.3-.4-4.4-.4-4.6.1-.1.5-1.8 3.4-3.6 6.4-2.9 4.8-3.7 5.5-6 5.2-2.7-.3-5.6 1.2-5.6 2.9 0 .5 1.1 1.1 2.5 1.5 1.4.3 2.5.8 2.5 1 0 .3-1.9 3.8-4.2 8l-4.3 7.5-8.7-.7c-5.8-.4-8.8-.3-8.8.4 0 .5 3.6 1.3 8 1.7l8 .7-3.2 5.7c-1.7 3.1-4.6 7.9-6.3 10.6l-3.2 5-17.9-1.9c-10.2-1.1-18.8-1.6-19.9-1.2-2.9 1.2-1.6 1.5 20 4l19.6 2.3 3.5-6.1c22.7-38.9 29.9-50.6 31.1-50.6s1.1.7-.5 3.2c-1.1 1.8-8.6 14.8-16.7 28.8s-15.1 25.9-15.6 26.4c-.5.6-11.5-.3-28.6-2.2-15.3-1.8-28.3-3.2-29-3.2s-1.1-1.2-1-2.8l.2-2.7-12.3-1.5-12.3-1.5 7.1-11.9c3.9-6.6 6.9-12.5 6.6-13.3-.3-.7-1.5-1.3-2.6-1.3-3.5 0-7.2-4.5-6.8-8.3l.3-3.2 5 .4c11.8 1.1 11.5 1.2 15.3-5.2 3.4-5.7 6.2-7.4 6.2-3.7 0 3.4 1.7 2.2 2.8-2.1.8-3.2.7-4.1-.4-4.6-.8-.3-1.4-1.3-1.4-2.3 0-1.8-3.5-3-9.1-3-3.8 0-3.6-1 .4-3.7 4.1-2.8 8.1-4.3 11.6-4.3 3.1 0 5.1-1.6 5.1-4.1 0-2.2-1.5-2.6-11.7-3.5-4.6-.4-8.3-1-8.3-1.5 0-1.6 5.5-9.9 6.6-9.9.6 0 2.6-1.8 4.4-4.1 3.3-4.2 9.7-7.8 13.8-7.9 2.2 0 2.2 0-.9 6.1-3.3 6.7-3 7.9 2.3 7.9 2.2 0 3.2-1.1 6.5-6.8 2.1-3.7 4.3-6.6 4.8-6.5.6.1 4.9.4 9.8.8 6.3.5 9.1.4 10.2-.5 2.2-1.8 1.8-3-1-3-1.4 0-2.5-.2-2.5-.5s1.3-2.8 2.8-5.5c2.8-5 2.9-5 4.7-3s4.5 2.7 4.5 1.2c0-.4-1.3-1.5-2.9-2.5-2.1-1.2-2.8-2.2-2.4-3.7.5-1.8 0-2-5.9-2h-6.4l-3.8 6.5c-2.1 3.6-4.1 6.7-4.6 7-.4.3 3.1-6.2 7.9-14.4 8.5-14.7 12.3-20 5.9-8.3-1.8 3.3-3.1 6.3-2.8 6.5.3.3 3 .7 6 .8l5.5.3 3.5-6.3 3.5-6.2 7.9.3c5.4.2 8-.1 8.3-.9.3-.7-1.9-1.4-6.2-1.8-4-.5-6.4-1.2-6.2-1.8.3-1.1 7.5-1.2 12.9-.1 2.3.4 4.7-1 3.6-2.1-.2-.3-17.5-2-38.4-4-20.8-1.9-40.4-3.7-43.5-4.1-4-.4-5.8-.2-6.6.8m20.1 3.9c1.7 1.5-1.7 1.9-8.9 1-3.8-.5-7.3-.7-7.7-.5-.3.2-2.7 4-5.3 8.4s-5.1 8.3-5.7 8.6c-2.6 1.6-1.5-1.3 3.8-10.1l5.7-9.6 8.6.7c4.7.3 9 1 9.5 1.5m10.8.5c4.7.8 3.9 2.4-1.2 2.4-4.6 0-7.2-.9-6.4-2.1.6-1.1 2.5-1.1 7.6-.3m25.6 2.5c9.1.8 13 1.5 12.3 2.2s-5.9.6-16.3-.2c-8.4-.7-15.5-1.4-15.7-1.6-1-1.1 1.4-2.4 3.7-2 1.5.2 8.7.9 16 1.6m-26.5 2.8c10.3 1 19 2.1 19.3 2.4.4.4.2 1.2-.4 1.9-.5.7-4.2 6.9-8.2 13.8-9.9 17-16.2 27.2-16.7 26.7-.2-.2.8-2.4 2.2-4.8 1.3-2.4 2.5-4.7 2.5-5.2 0-1.3-8-.7-11.8.9-2 .8-5.1 2.9-6.8 4.5l-3.1 3-12.4-1.2c-6.8-.7-13-1.5-13.6-1.8-.9-.5 2.3-6.5 9.8-19.1 6.1-10.2 11.7-19.5 12.5-20.8 1.8-2.7 2.1-2.7 26.7-.3m34.5 6.9c-4.7 7.9-5 8.1-9 7.4l-3.8-.7 3-5.3c3-5.1 3.2-5.2 7.6-5.2h4.5zm-76.4 13.3c-1.5 2.7-3.3 4.9-4.1 4.9-1.8 0-1.7-.3 1.8-6 3.9-6.4 5.8-5.5 2.3 1.1m68.6.5c0 .3-1.5 3.2-3.2 6.5-3.2 5.7-3.4 5.9-7.4 5.9-2.2 0-4.3-.2-4.6-.5-.3-.4 1-3.3 3-6.5 3.4-5.9 3.6-6 7.9-6 2.3 0 4.3.3 4.3.6m-85.5 27.5c-12 19.9-14 22.7-15.1 21.7-.3-.4 5.2-10.1 12.2-21.8 7.6-12.5 13.1-20.7 13.6-20.2.6.6-3.8 8.8-10.7 20.3m23.8-1.5c1.7.5 1.7.8-.3 4-2.3 4-2.4 4.4-1 4.4.5 0 1.9-1.8 3-4s2.7-4 3.5-4c2 0 1.9.2-1.2 6-2.7 4.8-5.6 6.4-6.6 3.7-.4-.9-.8-.9-1.4-.1-.6.9-3.5.9-10.9.2l-10.2-1.1 3.2-5.4 3.1-5.4 8.5.6c4.7.3 9.3.9 10.3 1.1m-2.5 16 18.3 1.8-4.8 2.3c-5.5 2.6-10.9 7.6-9.9 9.2.4.6 2.8 1.1 5.3 1.1 5.1 0 5.1.2.8 7l-2.7 4.2-5.4-.4c-3-.3-5.7-.7-6-1.1-.3-.3.6-2.5 2-5 2.8-4.7 3.1-5.7 1.7-5.7-.5 0-2.7 2.9-4.9 6.4-4.5 7.2-4.3 7.5 3.1 7.7 2.3 0 5 .4 6 .8 1.7.6 1.8.8.3 2-1.2 1-3.4 1.2-8 .7-7.1-.7-7.6-.3-7.6 6 0 3.4 3.5 8.4 5.9 8.4.7 0 .7.9-.1 2.5-1.2 2.6-1.1 2.6-12.3.9-2.9-.4-3.3 0-9 9.7l-6 10.1-8-.7c-4.4-.4-11.7-1.2-16.3-1.9l-8.3-1.1 11.8-19.7 11.8-19.7 3.5.5c1.9.3 6.4.6 10 .7 5.9.2 6.5 0 6.5-1.8s-.9-2.1-8-2.8c-4.3-.4-8.1-.9-8.3-1.2-.2-.2 2.7-5.6 6.5-11.9l6.8-11.6 3.5.5c1.9.2 11.7 1.2 21.8 2.1m-44.5 23.8c-5.3 8.8-9.2 14.2-9.9 13.9-.8-.3 1.1-4.3 5.6-11.8 9.4-15.6 10-16.5 11.6-16.5.8 0-2.3 6-7.3 14.4m-12.5 20.7c-2.4 4.3-4.5 6.5-5.4 5.6-1-.9 4.7-9.7 6.3-9.7 1.1 0 .9.9-.9 4.1m46.4 7.7c1.5.6 1 1.9-3.3 9.4l-5.1 8.8-5.6-.6c-3.1-.4-5.9-.8-6.1-1-.3-.2 3.4-6.8 8.6-15.2 1.1-1.7 2.2-2.2 5.6-2.1 2.3 0 5 .3 5.9.7m-52.2.8c0 .3-1.6 3.5-3.6 7.1-4 7.1-3.7 8.2 2.1 8.3 5.2 0 10.5 1.2 9.9 2.2s-16.9.1-19.1-1.1c-.8-.4.5-3.3 3.8-8.9 4.3-7 6.9-9.9 6.9-7.6m23 19.1c0 1.2-1 1.3-5.7.7-6.3-.7-6.7-.9-6-2.1.3-.4 3-.6 6.1-.5 4.1.3 5.6.8 5.6 1.9m22.8 1.4c11.1 1.1 13.7 1.9 11.4 3.3-.4.2-7.4-.3-15.6-1.2-10.8-1.2-15.1-2.1-15.4-3.1-.4-1.1.4-1.3 3.4-.8 2.2.3 9.4 1.1 16.2 1.8m22.9 2.5c3.2.9 1.8 2.4-2.2 2.4-3.9 0-6.5-.8-6.5-2.1 0-1 5.4-1.2 8.7-.3M224 111.8c0 .7 1.2 1.4 2.8 1.8 1.5.3 3 .6 3.4.7.7.2-33.3 57-35.3 59.2-.5.5-2.7.8-4.9.6-2.4-.1-4 .2-4 .8s.9 1.1 1.9 1.1c5.3 0 5.1.8-3.2 14.6l-8 13.5-3.9-.6c-4.6-.8-5.4 1.2-.8 2.1 1.7.4 3 .9 3 1.1 0 .3-5.8 10-13 21.7l-12.9 21.2-4.1-.4c-2.3-.2-4 0-4 .6 0 2 17.1 3.4 17.7 1.5.3-.7-1-1.3-3.2-1.5l-3.6-.3 11.6-18.9c6.4-10.4 12.2-20.1 13-21.6 1.3-2.5 1.8-2.8 5.5-2.3 4.7.7 5.4-1 .9-2.3l-3.1-.9 7.9-13c7.6-12.5 8-13 11.4-13.1 4.4-.1 5.3-1.8 1.3-2.4l-3.2-.5 18.6-30.4 18.5-30.3 3.8.6c3.1.5 3.9.3 3.9-.9 0-1.1-1.1-1.5-4.4-1.5-2.4 0-6.4-.3-9-.6-3.1-.5-4.6-.3-4.6.4m197.8 4.1c-2.8 4.9-3.6 7.7-1.9 6.6 1.1-.6 6.1-9.4 6.1-10.6 0-2.1-1.7-.5-4.2 4m-16.8 9.5c0 1.2 1 1.6 4.8 1.6 2.6 0 5.7.3 6.8.6 2.1.6 2.1.7-1.6 7.2-2.1 3.7-4.5 6.9-5.5 7-1.4.3-1.2-.6 1.5-5.3 2.6-4.6 3-5.9 1.9-6.6-1.8-1.1-10.6-1.2-11.3 0-.6 1 2.6 2.1 6.2 2.1 1.3 0 2.2.4 2 .9-.1.5-7 12.7-15.3 27.1l-15 26.1-9-.7c-13.5-1-14.8-1-15.2.2-.4 1.1 2 1.5 18.3 3l7.1.6 6.4-11.1c3.5-6.1 6.9-11.1 7.6-11.1s1.3.2 1.3.4c0 .5-13.1 23-13.9 23.9-.4.4-6.3.1-13.2-.7-6.8-.7-12.9-1.1-13.5-.9s-1.6 1.5-2.3 2.9c-.6 1.4-1.6 2.2-2.1 1.9-.7-.4-.7-1.3 0-2.6 1.7-3.1-.6-2.2-3 1.2-1.2 1.6-2.1 3.2-1.9 3.4s1.9.5 3.7.6c2.6.3 3.7-.2 5.5-2.4 1.9-2.4 2.7-2.6 6-2.1 2.1.4 3.6 1 3.5 1.3-.2.4-3.9 6.8-8.3 14.4l-8 13.7-3.2-.6c-2.1-.4-3.3-.2-3.3.5 0 .6 1.2 1.1 2.6 1.1 3.3 0 3.1.3-4.5 13.5-3.3 5.5-8.8 14.9-12.3 21-5.4 9.3-6.8 11-9.1 11.3-4.2.5-3.2 1.9 1.9 2.6 6.5.8 8.4.8 8.4-.4 0-.6-1.1-1-2.5-1s-2.5-.4-2.5-.9 5.8-10.7 12.9-22.7c12.3-20.9 13-21.9 15.9-21.9 4.2 0 5-1.2 1.4-2.2l-3-.8 8.3-14c4.6-7.8 8.8-14 9.6-13.9.8 0 4.3.4 7.9.7l6.5.7 2.4-4.3c1.4-2.3 10.2-17.7 19.7-34.2s17-30.3 16.6-30.7c-.4-.3-4.4-1-8.9-1.4-7.3-.6-8.3-.5-8.3 1m4 19.3c0 1.8-11.6 20.3-12.8 20.3-.7 0-1.1-.3-.9-.8 2.2-4 9.2-16.2 10.3-18 1.4-2.1 3.4-3 3.4-1.5m13.5-13.9c-1.3 1.4-.2 2.2 3.1 2.2 1.9 0 3.3-.4 3-.9-.7-1-5.3-2-6.1-1.3M404 160.9c0 .5 1.6 1.2 3.5 1.5 4.1.8 7-.3 3.9-1.5-2.7-1.1-7.4-1.1-7.4 0m63.5 25.1c-5.3 3.6-5.7 4.1-3.8 4.6 2.2.6 2.2.6-.9 5.3-3.6 5.2-16.2 23-22 30.9l-3.9 5.2-4.2-2.1c-2.3-1.2-6.6-3.9-9.5-6.1l-5.4-4 2.3-1.6c2.3-1.6 2.3-1.6-2.6-2.9-7.3-1.9-7.4-1.8-6.8 2.9.7 6.8 1.2 7.6 2.8 5.5 1.3-1.8 1.7-1.7 7.7 2.6 3.5 2.4 7.9 5.2 9.8 6.2s3.7 1.9 3.9 2.1-3.3 5.4-7.8 11.7c-4.4 6.3-8.1 12-8.1 12.7 0 2.8 3-.3 10.5-10.8 4.4-6.1 8.3-11.3 8.6-11.6s4.2.3 8.7 1.5c8.1 2 17.7 2.3 17.7.4 0-.6-1.8-1.1-4-1.3-5.8-.4-18.4-3.2-19-4.2-.8-1.3 26.6-39.9 28.3-40 .6 0 1.2.4 1.2 1 0 .5.4 1 1 1 1.2 0 2.3-5.7 1.8-9.8l-.3-3.2zm38.5 41.9c0 .6.5 1.3 1.1 1.7 1.5.9.1 1.9-4.3 3.4-2.1.6-3.8 1.8-3.8 2.6 0 1.8.7 1.8 5.9-.1 3.9-1.3 4.1-1.3 4.1.5 0 1.1.4 2 .8 2 1.3 0 8.6-7.9 8-8.6-.8-.7-7.6-2.3-10-2.4-1 0-1.8.4-1.8.9m-344.2 30.8c-3.1 3.5-7.7 12.2-6.8 12.8.6.4 1.9-1 3.1-2.9 1.9-3.3 2.4-3.5 5.7-3.1 4.1.6 47.7 5.5 48.6 5.5.4 0 0 1.3-.9 3-1.7 3.3-1.8 4-.7 4 .4 0 1.6-1.4 2.5-3 2.2-3.7 1.7-3.6 26.5-.8 16.6 1.9 19.2 2.4 18.6 3.7-.3.9-.8 2.5-1.1 3.6-.4 1.9-.3 1.8 1.5-.3 1.1-1.2 2.2-2.7 2.4-3.4.4-1 18.1.5 34 2.9l3.8.6-1.7 2.8c-.9 1.6-1.4 3.2-1 3.5.9.9.6 1.2 5-6.2 2-3.4 3.7-6.7 3.7-7.3 0-2.2-1.8-1-3 2-1.1 2.6-1.7 3-3.9 2.6-1.4-.3-9.8-1.3-18.6-2.3-8.8-.9-16.1-1.8-16.3-2-.2-.1.2-1.1.9-2.3.7-1.1.9-2.4.5-2.8-.5-.4-1.1-.3-1.3.3s-1 1.9-1.7 2.9c-1.2 1.6-2.2 1.6-20.7-.4-24.7-2.7-24.2-2.6-22.8-5.2 1.4-2.7.1-3.9-1.6-1.5-.8 1-1.6 2.3-1.7 2.8-.3.8-51.6-4.6-52.6-5.6-.3-.3.1-1.2.8-2 1.8-2.3.7-4.1-1.2-1.9"/></svg>