<svg xmlns="http://www.w3.org/2000/svg" width="949.333" height="1029.333" viewBox="0 0 712 772"><path d="M321 13.1c-1.4.6-3.6 2.1-5 3.3-1.4 1.3-6.1 3.4-10.5 4.7-39.8 11.4-69.2 36.1-86 72.3-9 19.4-16.3 47.5-18.7 72.5l-1.3 12.4-4 1.7c-5.5 2.4-7.6 5.1-8.2 10.4-1.1 9.2 2.8 13.5 14.2 16.2 4.1 1 7.5 2.2 7.5 2.8s.7 6.8 1.6 13.9l1.6 13-4.6 4.2c-7 6.4-9 11.9-8.9 24 .2 27.9 13.5 57.5 28.3 62.8 2.5.8 5.7 1.8 7.2 2.1 2.3.5 2.8 1.3 3.8 6.4 4.5 22.7 8.8 34.2 16.1 44l4 5.3-.3 26.7c-.3 24.6-.5 27-2.4 31.2-3 6.5-7.7 10.5-16.3 13.9s-70.9 27.3-105.6 40.5C79.7 517.9 54.2 535 35 563.5c-6.5 9.7-10.5 17.9-14.5 29.8-7.1 21.4-6.8 18.1-7.2 93.2l-.4 68.1 2.3 2.1 2.3 2.2 207.8.2c181.1.1 208-.1 210-1.4 1.4-.9 4.7-7.2 9.1-17.1 3.8-8.6 7.1-15.6 7.4-15.6.2 0 7.2 4 15.6 8.9 8.3 4.8 16.6 9.6 18.4 10.5 2.9 1.5 3.2 2.1 3.2 5.9 0 5.2 1.5 7.4 5.5 8.5 4.1 1.2 199.5.3 201.7-.9 3.8-2 4-6.3 3.5-70.5-.4-57.5-.6-62.7-2.6-73.2-7.4-39.7-28.8-70.9-61.9-90.3-7.6-4.4-9.9-4.7-13.6-1.8-2.6 2-3.4 5.7-2 9.3.3.8 4.9 4.4 10.3 8 27.1 18 43 40.8 50.3 72.1 2 8.5 2.2 12.3 2.5 64.5.4 54.5.4 55.5-1.5 53.5-1-1.1-16.6-17.4-34.5-36.1-26.2-27.5-32.8-34.9-33.6-38-.6-2.2-2.4-10-4.1-17.4-7.9-34.8-11.3-42.9-24.3-56.7l-4.9-5.2 12.8-29.3c7-16.1 14.1-31.3 15.7-33.7 3.8-5.6 8.8-9.1 21.1-14.6 5.5-2.4 11.7-5.6 13.9-7.1 14.6-9.7 25.3-26 29.1-44.6 2.9-14.1 1.4-28.2-4.4-41.8-3.3-7.9-11-19.4-13.5-20.4-3.7-1.4-7.3-.6-9.7 2.2-1.3 1.6-6.8 13-12.3 25.5-9.1 20.8-10.2 22.7-12.5 22.8-1.4 0-6.3.4-10.9.8-6.7.5-8.7.4-9.9-.8-2.7-2.7-12.2-15.8-12.2-16.8 0-.5 4.5-11.3 10.1-23.9 5.5-12.6 10.1-24.2 10.1-25.8.1-2.1-.7-3.7-2.7-5.4-2.7-2.3-3.5-2.4-10-1.9-9.6.9-17.7 3.1-25.8 7.2-21.8 11.1-35.1 29.8-38.7 54.3-1.6 10.5-.2 20.9 4.6 34 3.8 10.5 4.4 17.8 2 25.3-.7 2.4-7.7 18.8-15.6 36.4-7.8 17.6-16 36.3-18.2 41.5s-4.1 9.6-4.2 9.7c-.1.2-2.6-.6-5.4-1.7-13.4-5.1-27.3-.1-33.4 11.9-2.3 4.4-2.8 6.8-2.8 12.6v7l-3.6 2c-10.3 5.5-15.9 19.8-12 30.6 1.2 3.5 1.2 3.6-2.1 5.9-9.7 6.6-13.2 21.9-7.6 32.7l2.1 3.9-3.4 3.6C427 682 424 690 424 695.5c0 7.3 5.4 16.9 11.5 20.2 1.8 1.1 1.6 1.7-4 14.2l-5.8 13.1H364v-42h19.3c20.8 0 22.8-.4 24.7-5.6 1.1-2.9-.5-8.1-3-9.4-1.1-.6-10.6-1-21.4-1H364v-20.3l7.6-14.1c4.2-7.8 11.1-20.4 15.4-28.1 24.8-45 69.4-126.4 74.8-136.5 7.8-14.6 6.2-13.7 16.7-9.7l9 3.4.5 25.8c.5 25.5.5 25.7 2.9 27.6 3.2 2.6 7.7 2.4 10.6-.6l2.5-2.4v-44l4.1 1.4c4.8 1.7 8.4 1.1 10.4-1.8 1.8-2.6 1.9-7.7.3-10-1.1-1.5-19.6-9-46.3-19-3.9-1.4-7.6-3.8-10.7-6.8-7.2-7.1-7.8-10.4-7.8-39.7v-24.4l5.5-8.2c6.8-10.2 9.5-17.4 13-34.3l2.8-13.1 4.5-1.2c2.4-.6 6.2-2 8.2-3 11-5.6 21.6-27.4 25-51.4 2.3-16.1-.3-26.6-8.5-34.2l-4.5-4.1 1.7-14.1 1.7-14 6-1.2c3.4-.7 7.3-1.8 8.9-2.6 4-2.1 6.7-7.1 6.7-12.5 0-5.8-2.6-9.4-8.7-12-4.3-1.8-4.3-1.9-4.3-7 0-12.2-5.7-41.8-11.6-59.9-4.6-14.2-13.9-32.8-21.4-43-17.1-23.2-42.2-40.3-71.1-48.6-5.6-1.5-10.4-3.6-11.9-4.9-1.4-1.3-3.8-2.9-5.3-3.4-3.7-1.4-66.2-1.4-69.7 0m63 81.1v66.3h-56V28h56zM312 99v63h-2.2c-2.6 0-30.4 2.6-38.5 3.6l-5.3.6v-9.3c0-10.5-1.7-15.4-6-17.7-2.7-1.4-19.4-1-32 .8-3.5.5-6.6.7-6.8.5-.6-.6 5.6-23.2 8.4-30.2 7.3-18.7 17.8-34.8 29.9-46.1 8.7-8.1 16.7-13.6 17.6-11.9.5 1 4.9 24.4 7.5 40.4.5 3.6 4.5 7.3 7.8 7.3 2.9 0 6.5-2.7 7.6-5.6 1-2.5-.6-13-5.6-37.7-1.8-8.8-2.3-13.2-1.6-13.9.9-.9 16.5-6.6 18.5-6.8.4 0 .7 28.3.7 63m96.6-60.6c3.8 1.3 8.1 2.9 9.5 3.6l2.6 1.2-1.8 7.8c-1 4.3-3.1 15.2-4.7 24.3-3.2 18.3-2.9 21.7 2.3 23.7 3.8 1.5 5.1 1.3 8-1.3 2.3-2 2.9-4.1 5.5-19.2 1.6-9.4 3.4-19.4 4-22.2 1.1-5 1.3-5.2 3.3-4.1 3.9 2 14.1 10.4 19.3 15.9 14.9 15.8 26.5 38.6 32.5 63.8 1.1 4.5 1.9 8.4 1.7 8.6-.2.1-3-.1-6.3-.6-3.3-.4-11.2-1.1-17.5-1.5-18.1-1-21 1.5-21 18.7v9.2l-4.2-.6c-2.4-.3-12.7-1.4-23-2.3l-18.8-1.8V98.8c0-34.5.4-62.8.8-62.8.5 0 4 1.1 7.8 2.4M250.2 158.5c.1 2.5.2 5.7.2 7.2l.1 2.7-17 3.3c-9.3 1.8-17 3.1-17.2 2.9-.5-.4 1.4-16.6 2-17.2.4-.5 23.1-3 29-3.3 2.5-.1 2.7.2 2.9 4.4m234.3-2.4c5 .6 9.3 1.3 9.6 1.7.4.4 1 4.5 1.4 9.1l.7 8.4-2.3-.7c-1.3-.3-8.7-1.8-16.4-3.2s-14.4-2.7-15-2.9c-.6-.1-.9-3.2-.7-7.4l.4-7.2 6.6.6c3.7.3 10.8 1.1 15.7 1.6m-82.5 22c28.2 1.9 69.9 7.8 91 12.8l7.5 1.7-19 4.7c-32.8 7.9-32.2 7.9-63 5.7-26.3-1.8-98.4-1.9-124.5-.1-30.2 2.1-35.2 1.6-65.4-6-14.1-3.5-15.8-4-15.4-4.4.8-.8 35.6-7.5 49.3-9.4 45-6.5 92.7-8.2 139.5-5m-169.6 36.1c2.2.6 4.4 1.4 4.8 1.8.5.3-.6 4.7-2.3 9.7-2.5 7.6-3.3 9-4.8 8.6-2.1-.5-2.7-2.7-3.7-13.6-.8-8.6-.8-8.5 6-6.5m253.5 6c-1.3 11.7-1.8 13.5-3.9 14.1-1.7.4-2.3-.6-4.4-7.1-3.7-11.8-3.7-11.4 1.4-12.8 7.9-2.1 7.7-2.3 6.9 5.8m-69.9-1c18.6 1.3 36.2 1.6 40 .5 2.5-.6 2.7-.3 5.8 9.1 3.1 9.5 7.2 32.6 7.2 40.8 0 5.1-7.8 49.9-12.3 71.1-2 9.1-4.6 18.1-6.1 21-3.7 7.4-10.5 15.2-33.5 38.6-27.4 27.8-29.3 28.7-61.1 28.7-29 0-33.8-1.8-51.2-18.7-21.6-21.1-38.3-39.7-42.3-47.4-4.3-8.2-7.8-23.2-15.1-65.4l-4.7-27 2.2-16c1.3-9 3.3-19.3 4.8-23.5 4.5-13.1 3.3-11.8 10.5-10.8 4 .6 12 .5 21.8-.2 41.3-3.1 98.1-3.4 134-.8M226.4 267c1.4 9.1 3.5 22.7 4.7 30.3 1.2 7.5 1.9 14 1.6 14.4-1.4 1.3-6-4.4-9.7-12.2-4.9-10-8.2-23.5-8.4-34.2-.1-6.8.2-8.6 2-10.9 1.7-2.3 6-4.6 7.1-3.9.1 0 1.3 7.5 2.7 16.5m268.3-13.7c5.9 5.3 2.9 29.3-5.9 47.4-3 6-8.2 12.2-9.4 11.1-.3-.3 1.3-12 3.5-26 2.2-13.9 4.3-27.7 4.7-30.6.6-4.8.9-5.2 2.8-4.6 1.1.3 3.1 1.5 4.3 2.7M586 379.5c0 .2-3.7 8.7-8.2 18.7-4.4 10.1-8.1 19.7-8.2 21.4 0 2.4 2.3 6.1 10.4 16.8 5.7 7.6 11.7 14.4 13.2 15.2 2.5 1.3 5 1.3 19.9 0 11.1-1 17.9-2 19.4-3 1.4-.9 4.5-6.7 8.3-15.3 3.3-7.6 7.1-16.3 8.5-19.3l2.4-5.5 1.7 3.3c2.2 4.2 4.6 15.3 4.6 21.2 0 6.9-2.6 17.3-5.9 24.4-5.8 12.1-16.3 21.4-30.7 27.2-10.9 4.4-15.4 7.3-21.4 13.6-6.4 6.7-8 9.8-27.3 53.8-9.1 20.6-17 38.7-17.7 40.2-1.2 2.6-1.3 2.6-4.5 1.1l-3.2-1.5 6.9-15.7c25-56.6 24.5-55.2 21-62.1-4.5-9.1-17.6-10.8-24.5-3.2-1 1.1-8.2 16.7-16.1 34.6-7.9 18-14.6 32.9-14.9 33.3-1 .9-6.9-1.9-6.3-3.1.2-.6 2.6-5.8 5.1-11.6 26.9-60.6 33.5-76.2 34.6-81.8 1.8-9.3.6-19-3.7-31.2-3.1-8.9-3.6-11.8-3.7-19-.1-22.3 12.9-42.1 33-50.5 6-2.5 7.3-2.9 7.3-2m-272 58.7c11.2 5.4 19.6 6.8 41.9 6.8 22.6 0 31.4-1.4 42.1-6.7 6.4-3.1 9.9-6 23.7-19.7l16.3-16.1v16.2c0 23.2 2.4 31.9 11.5 42.1 2.5 2.8 4.5 5.2 4.5 5.5 0 .2-2.7 5.3-6 11.3-6.7 12.2-13.5 19.4-25.3 27.2-16.3 10.5-32.8 16.1-54.5 18.3-28.2 2.8-56.1-3.7-78.2-18.3-13.6-8.9-19-14.7-26.1-27.6l-6.1-11.3 4.7-5c5.3-5.6 9-13.1 10.5-20.9.5-2.9 1-12.6 1-21.6v-16.3l16.3 16.3c14.1 14.2 17.1 16.7 23.7 19.8m-57.4 59.1c12.6 23.1 34.9 63.9 66.9 122.2 8.1 14.8 17 31 19.7 35.9l4.8 8.9V685H224l.2-102.6.3-102.6 8.5-3.3c4.7-1.8 9-3.3 9.5-3.4.6 0 6.9 10.9 14.1 24.2m-45.3 201.3 2.8 2.4H348v42H126v-42h19.9c19.7 0 20 0 22.8-2.4l2.8-2.4.5-98.2.5-98.2 17.5-6.7 17.5-6.7.5 104.9.5 104.9zM155 596v89h-29V517.4l13.3-5.1c7.2-2.8 13.8-5.2 14.5-5.2.9-.1 1.2 18.3 1.2 88.9m410.7-77.4c.8 2.2-.3 5.1-10.2 27.4-4.8 10.7-10.7 24.2-13.2 30s-4.7 10.6-4.8 10.8c-.8.9-7.7-3-7.2-4 .3-.7 6-13.9 12.7-29.3s13.1-29.9 14.1-32.3c1.6-3.6 2.2-4.2 4.9-4.2 1.9 0 3.3.6 3.7 1.6m-253.6 14.7c13.7 4.5 26 6.2 43.9 6.2 23.6 0 40.1-3.4 58.7-12 4.5-2.1 7.3-2.9 7-2.1-.3.7-10.6 19.7-23 42.2-12.3 22.5-26.8 49.1-32.3 59.1-5.4 10-10.1 18.3-10.4 18.3s-2.2-3.3-4.2-7.3c-2.1-3.9-8-14.9-13.1-24.2-29.8-54-48.7-88.6-48.7-88.9s3.3 1.1 7.4 2.9c4 1.9 10.6 4.5 14.7 5.8M110 634v109H29v-56.3c0-30.9.5-59.6 1-63.7 4.5-34.6 22.4-63.8 50.5-82.5 9.7-6.4 26.2-15.4 28.3-15.5.9 0 1.2 22.5 1.2 109m407.6-38.1c18.3 8.2 34.6 16.1 39.1 19 8.6 5.7 12.3 6.4 16 2.9 3.6-3.3 3.1-8.1-1.2-12.1l-3.4-3.2 2-4.5c2.6-5.7 2.5-5.7 5-3.4 7.4 6.6 10.6 14.8 17.5 43.7 6.1 25.7 6.6 27.3 11.9 34.1l3.8 5-1.8 5c-7.3 20.7-17.8 38-31.4 51.7l-8.8 8.9h-22c-17.2 0-23.1-.3-27.4-1.6-6.9-2.1-21.6-9.4-36-18.1-6.3-3.8-17.6-10.4-25.2-14.7-13.8-7.8-15.7-9.6-15.7-14.6 0-1 1.2-3.2 2.6-4.9 3.8-4.5 7.1-4.1 22.5 2.9 7.2 3.3 14.2 6 15.4 6 4 0 7-3.3 7-7.9 0-2.3-.7-4.7-1.5-5.5-.8-.7-9.1-4.8-18.5-9.1-10.6-4.8-18-8.8-19.7-10.6-5.2-5.4-2.8-13.4 4.7-15.9 3.3-1.1 4.5-.7 22.3 7.4 10.3 4.7 19.9 8.6 21.2 8.6s3.4-1 4.7-2.2c2.9-2.7 3.2-8.7.5-11.1-.9-.9-10.3-5.5-20.7-10.2-10.5-4.8-20.1-9.8-21.5-11.1-5.5-5.3-1.8-14.7 6.2-16 3-.5 6.6.7 23.7 8.5 11 5 21.1 9.1 22.3 9.1 5.5 0 9-5.8 6.8-11.1-1.3-3.1-1.4-3.1-25-13.8-8.5-3.8-16.5-8-17.7-9.2-5.6-5.3-.8-15.9 7.2-15.9 2.5 0 13.4 4.3 35.1 13.9m133.8 125.3 20.8 21.8h-83.6l3.6-3.8c10-10.5 21.2-29.3 27.8-46.7l1.1-2.9 4.8 5c2.6 2.7 14.1 14.7 25.5 26.6M280 232.3c-4.1 1.2-9.8 3.4-12.5 4.7-4.3 2.1-5 3-5.3 5.7s.1 3.5 2.2 4.5c2.2.9 4.1.7 11.3-1.6 4.9-1.4 10.6-2.6 12.8-2.6s11.8 2 21.3 4.5c19.5 5.1 22.4 5.3 25.2 2.5 2.3-2.3 2.5-3.9.8-7.5-1.3-2.9-3.3-3.6-24.1-8.5-17.9-4.3-22.6-4.5-31.7-1.7m122.1 1.2c-21.4 5.1-23.2 5.7-25.4 8.6-3.1 4.3-.2 9.9 5.3 9.9 1.6 0 10.6-2 20.2-4.5 9.5-2.5 19.1-4.5 21.3-4.5s7.2 1 11 2.1c10.1 3.1 13.5 3 15.4-.3 1.4-2.4 1.4-2.8-.2-4.6-3.2-3.5-22.8-10.2-29.7-10.1-1.9 0-10 1.6-17.9 3.4M290.8 254c-5.8 1.5-15.6 6.7-16.8 9-1.5 2.8-.3 5.9 2.6 7.1 1.9.7 3.6.3 7.4-1.6 5.8-3 7-3.1 7-.8 0 6.2 8.3 11.7 14.1 9.3 3.7-1.6 6.9-5.5 6.9-8.6 0-3 .7-3 6.8.2 5.7 2.9 8.7 2.3 9.8-2.2.9-3.4-2.1-6.5-9.9-10-5.1-2.3-7.8-2.8-15.2-3-4.9-.2-10.7.1-12.7.6m106.1 1.3c-11.4 3.9-16.3 9.1-12.3 13.1 2.1 2.2 5.7 2 10.4-.4s5-2.4 5-.5c0 3.3 3.2 7.7 6.7 9.1 6.4 2.7 14.3-2.1 14.3-8.7V265l6.4 3.2c6.3 3.1 6.5 3.1 9.1 1.4 5.9-3.9.6-10.3-12.3-14.5-8.5-2.8-18.6-2.7-27.3.2m-34.5 1.1c-2.1 1.6-2.2 5.8-.9 32.5.6 11.1 1 13.6 2.6 15.2 2.5 2.5 5.5 2.4 7.3-.4 1.2-1.9 1.3-5.3.3-24-1.1-19.7-1.4-22-3.1-23.3-2.5-1.8-3.7-1.8-6.2 0m-27.8 63.2c-1.7 1.6-2.1 5.1-.8 7 .4.6 4.5 3.1 9.2 5.4 11.5 5.8 14.9 5.8 26.6-.1 8.6-4.3 8.9-4.5 9.2-8.1.3-3.3 0-4-2.3-5-2.4-1.1-3.5-.8-10.2 2.7-4.2 2.1-8.8 3.8-10.3 3.7-1.5 0-6-1.7-9.9-3.6-7.9-4-9.3-4.3-11.5-2m-3.1 38.4c-15.5 3.4-18.1 5.5-13.6 11.1 1.9 2.3 1.9 2.3 9.7.9 10.7-2 46-2 56.8 0 7.8 1.4 7.8 1.4 9.7-.9 4.6-5.7 2-7.7-14.9-11.2-13.6-2.9-14.5-3-18.8-1.5-3.9 1.3-4.9 1.3-8.5 0-5.1-1.7-4.7-1.8-20.4 1.6m6.9 24.1c-2.2 2.4-1.7 5.7 1.3 7.6 3.9 2.6 28.6 2.6 32.6 0 2.8-1.8 3.5-4.9 1.8-7.6-1.5-2.3-33.6-2.3-35.7 0"/></svg>