<svg xmlns="http://www.w3.org/2000/svg" width="853.333" height="744" viewBox="0 0 640 558"><path d="M59.9 13.4c-6.6 1.7-14.5 7.1-18 12.2-6.4 9.3-5.9-8.5-5.9 233.3v220.6l2.4 5.1c1.3 2.7 4.3 6.7 6.7 8.7 8 6.9 5 6.7 97.3 6.7 55.5 0 84.4-.4 86.9-1.1 5-1.4 11.2-7.1 12.9-11.7 1-2.8 1.3-13.2 1.3-43.2v-39.5l-5.2-.3-5.1-.3-.4 13.5c-.1 7.4-.7 13.8-1.1 14.3-1 .9-150.5 1.7-155.4.8l-3.3-.6V387h104v-11H73V126h159.5v28.5l5.1.3 5.2.3.7-48.5c.8-52.5.6-56-4.3-61.8-1.4-1.7-4.4-3.9-6.7-4.9-3.8-1.7-8.4-1.9-79.7-1.9-51.1 0-76.6.3-78.5 1.1-4 1.5-8.2 5.7-10.4 10.4-1.8 3.9-1.9 11.9-1.9 221.8V489l-2.7-.6c-3.8-.8-7.4-3.5-10.1-7.4l-2.2-3.3.2-220.3.3-220.2 3-4.4c1.7-2.3 4.9-5.3 7-6.5l4-2.3 92.2.3c91.4.2 92.2.2 94.9 2.3 1.5 1.1 4.2 3.7 5.8 5.8l3.1 3.8.3 54.4.2 54.4h11V36.5l-2.9-6c-3.8-8.1-10.4-13.9-18.9-16.5-6.2-1.9-9.2-2-94.6-1.9-67 0-89.2.3-92.7 1.3m169.6 37.9c3.1 2.6 3 1.4 2.7 37.4L232 115H73V85.5c0-30.7.3-33.4 4.4-35.3 1.4-.7 27.2-1.1 75.8-1.1l73.7-.1zm3 412v19.9l-3.3 2.9-3.2 2.9H73v-22.3c0-12.3.3-22.7.7-23 .3-.4 36.2-.6 79.7-.5l79.1.3zM85 81.9V105h11.1l-.3-22.8-.3-22.7-5.2-.3-5.3-.3zm22.7-22.2c-.4.3-.7 10.6-.7 22.9 0 22.1 0 22.2 2.3 22.8 1.2.3 3.7.6 5.5.6h3.2V59h-4.8c-2.7 0-5.2.3-5.5.7M131 82v23.1l5.3-.3 5.2-.3v-45l-5.2-.3-5.3-.3zm57-12.5V75h30V64h-30zm0 20V95h15.6c13.8 0 15.5-.2 15-1.6-.3-.9-.6-3.3-.6-5.5V84h-30zM94.7 463.7c-.4.3-.7 2.8-.7 5.5v4.8h119.1l-.3-5.3-.3-5.2-58.6-.3c-32.2-.1-58.9.1-59.2.5M394.9 13.4c-10.5 2.8-18.3 9.7-21.9 19.4-1.9 4.9-2 7.9-2 44.2v39h11V77.7c0-34.8.2-38.6 1.9-42.2 2.3-5.1 8.1-10.2 12.3-11 1.8-.3 44.1-.4 94-.3l90.6.3 3.9 3.1c2.1 1.7 4.8 4.8 6 7l2.3 3.9v220c0 218.9 0 220-2 223.3-1.9 3-8.6 7.1-11.7 7.2-1 0-1.3-44.3-1.3-218.2V52.6l-2.1-4.4c-1.3-2.6-3.8-5.4-6.2-7l-4.1-2.7-76-.3c-51-.2-77.3 0-79.7.7-4.9 1.5-8.5 4.5-11.2 9.4-2.2 4.1-2.2 4.7-2.2 45.7v41.5l5.8.3 5.7.3V126h159v250H463v11h104l-.2 22.7-.3 22.8-72.5.3c-39.9.2-75.8 0-79.9-.3l-7.3-.7.3-11.6c.2-6.5.3-17.9.1-25.5l-.2-13.8-5.2.3-5.3.3-.3 48.5c-.4 55.9-.2 57 6.3 63.6 2.5 2.4 5.9 4.7 8.1 5.3 2.6.7 31.1 1.1 87 1.1 95.3 0 90.3.4 99.1-8.4 9.1-9.1 8.4 13.3 8.1-235.2l-.3-218.9-3.3-6.7c-3.7-7.6-8.2-12-16.2-15.7l-5.5-2.6-90-.2c-69.1-.1-91.1.1-94.6 1.1m169.2 37.5 2.4 1.9.3 31.1.3 31.1H408V53.1l2.6-2c2.6-2.1 3.3-2.1 76.9-2.1 71.6 0 74.4.1 76.6 1.9m2.9 415V489H414l-3.2-2.9-3.3-2.9-.3-18.7c-.2-10.2-.1-19.2.1-19.9.4-1.1 15.7-1.4 80.1-1.5l79.6-.2zM421.7 59.7c-.4.3-.7 10.7-.7 23V105h12.3l-.6-6.8c-.4-3.7-.7-14-.7-23V59h-4.8c-2.7 0-5.2.3-5.5.7m23 0c-.3.5-.2 11 .1 23.5l.5 22.8h9.7V59h-4.9c-2.8 0-5.2.3-5.4.7m22.7.6c-.2.7-.3 11.1-.2 23.2l.3 22h10l.3-23.3.2-23.2h-5c-3.2 0-5.2.5-5.6 1.3m57 5.1c-.3.8-.4 3.1-.2 5.2l.3 3.9 15.8.3 15.7.3V64h-15.5c-12.4 0-15.7.3-16.1 1.4m.3 23.3c-.3 2.6-.3 5.1 0 5.5.2.5 7.4.8 15.9.8h15.5l-.3-5.3-.3-5.2-15.1-.3-15.1-.3zm-97 375c-.4.3-.7 2.8-.7 5.5v4.8h119.1l-.3-5.3-.3-5.2-58.6-.3c-32.2-.1-58.9.1-59.2.5M345 131.2v20.3l-18.8.1c-27.3.1-50.2 4.2-72.6 13-30.9 12.2-55.8 34-69 60.1-7.8 15.5-11.9 38.8-9.9 55.1.6 4.6 1.3 8.5 1.6 8.8.2.2 2.7-.1 5.6-.7 4.9-1 5.1-1.2 4.3-3.7-.4-1.5-.7-8.1-.6-14.7.1-15.3 2.7-26.4 9.4-40.2 18.2-37.3 59.7-61.3 115-66.4 11.8-1.1 32.9-.7 42.7.7l4.2.7.3-15.2.3-15.1 27.2 22.8c15 12.5 27.1 23 27 23.3-.1.4-12.3 10.6-27.2 22.8l-27 22-.3-14.3c-.3-16.8 1.8-14.7-17.2-17.2-15.6-2-46.6-1.5-61 1.1-29.4 5.3-56.6 19.6-69.4 36.6-8.7 11.5-13.6 24.6-13.6 36.6v6.3h11v-5.3c0-24.8 20.1-46.7 53-57.9 17.4-5.8 28.1-7.3 54-7.3 12.9 0 25.2.4 27.3.8l3.7.8v21.4c0 11.8.3 21.5.8 21.5.4 0 14.2-11.1 30.7-24.6s35.1-28.6 41.3-33.6c6.1-5 11.2-9.4 11.2-9.7-.1-.8-81.3-68.4-82.8-68.9-.9-.3-1.2 4.7-1.2 20m-36-4.7V137h22v-21h-22zm-25.3-4.9c-.4.4-.7 2.9-.7 5.6v4.9l5.8-.3 5.7-.3v-10l-5-.3c-2.8-.2-5.4 0-5.8.4m240.7 10.7c-.2.7-.3 7.6-.2 15.2l.3 14 15.8.3 15.8.3-.3-15.3-.3-15.3-15.3-.3c-11.9-.2-15.4 0-15.8 1.1m20.6 14.2v4.5h-9.5v-9h9.5zM85.8 135.7c-1.7.4-1.8 5-1.8 77.4V290h11l-.2-77.3-.3-77.2-3.5-.2c-1.9 0-4.3.1-5.2.4m20.5-.1c-1 .5-1.3 13.8-1.3 62v61.5l5.3-.3 5.2-.3v-123l-4-.2c-2.2-.1-4.6 0-5.2.3m80.2 1.6c-.3 1.3-.4 8.4-.3 15.8l.3 13.5 15.8.3 15.7.3v-30.8l-9.2-.7c-5-.3-12-.6-15.4-.6-5.8 0-6.4.2-6.9 2.2m20.5 14.3v4.5h-9.5v-9h9.5zm267.8-15.8c-1.7.4-1.8 3.4-1.8 43.9V223h11v-43.4c0-38.6-.2-43.5-1.6-44-1.7-.7-4.9-.6-7.6.1m-349.6 74.5.3 74.3h10l.3-74.3.2-74.2h-11zm302-61.5.3 12.8 5.3.3 5.2.3V136h-11.1zm20.8 10.9v23.5l5.3-.3 5.2-.3.3-23.3.2-23.2h-11zM156 154v8h11v-16h-11zm368.4 14.3c-.2.7-.3 7.6-.2 15.2l.3 14 15.8.3 15.7.3V167h-15.5c-11.8 0-15.7.3-16.1 1.3m20.6 14.2v4.5h-10v-9h10zm-389-5.6v6.1h11.1l-.3-5.8-.3-5.7-5.2-.3-5.3-.3zm271 35.6V228h32v-31h-32zm21 0v4.5h-10v-9h10zm97 75V367h11V208h-11zm-247.2-57.8c-.2 8.2-.2 15.1 0 15.5.2.5 7.3.8 15.8.8H329v-31h-30.8zm20.2.8v4.5h-9v-9h9zm186.7-12.9c-.4.4-.7 34.2-.7 75.1V367h11l-.2-74.8-.3-74.7-4.5-.3c-2.5-.2-4.9 0-5.3.4m-246 5.1c-.4.3-.7 14.3-.7 31V284h11v-62h-4.8c-2.7 0-5.2.3-5.5.7m137.8 4.5c-.3 1.8-.4 19.3-.3 38.8l.3 35.5h11v-77l-5.2-.3c-5.2-.3-5.2-.3-5.8 3m-163.8 14.5c-.9 8.8-.9 52.6-.1 58.6.7 4.6.7 4.6 5.1 5.3 2.4.3 4.6.5 4.8.2.7-.7 1.4-55 .8-63.1l-.6-7.7h-9.4zm291.8.5c-.3.7-.4 29-.3 62.8l.3 61.5 5.3.3 5.2.3V241h-5c-3.1 0-5.2.5-5.5 1.2M371 279v36h11v-72h-11zm85.3-30.8c-3.2 1.1-3.3 1.2-2.5 5.2 1.4 8.2.5 27.6-1.7 36.1-2.3 8.8-8.3 21.9-13.2 29.3C415.2 353.6 367.8 375 314 375c-10.7 0-23.4-1-31.5-2.6l-3.4-.6-.3 16.1-.3 16.2-28.8-24.6c-15.8-13.6-28.5-25-28.2-25.5.5-.8 51.9-43.2 55.6-45.9 1.8-1.3 1.9-.9 1.9 15.3 0 12.4.3 16.8 1.3 17.1 3.5 1.3 20.7 3.6 33.5 4.6 47.3 3.7 93.5-11.2 114.9-37 9.7-11.7 15.3-25.5 15.3-38V264h-11v5.2c-.1 23.5-21.6 46.8-52.7 57.1-25 8.3-53 10.6-79.3 6.7-12.4-1.9-10.9 1.4-11.2-25.6l-.3-23.5-9.6 7.8c-5.3 4.3-20.6 16.8-34 27.7-13.4 11-28.2 23.1-32.9 26.9s-8.6 7.3-8.8 7.7c-.1.4 5.5 5.6 12.5 11.6s20.5 17.4 29.8 25.3c9.4 8 22.5 19.2 29.3 25.1 6.7 5.8 12.7 10.6 13.2 10.8.6.2 1-7.6 1-20.6v-20.9l17.8.5c52.6 1.4 97.4-14.6 127-45.2 10.3-10.7 16-18.7 21.4-30.3 6.2-13.3 8.9-25.4 9.1-40.8.1-7.2-.2-15.1-.6-17.8-.9-5.2-1.9-5.6-8.4-3.5m-145.5 44.3c-.2.3-.3 7.1-.1 15.3l.4 14.7 15.4.3 15.5.3V292h-15.3c-8.5 0-15.6.2-15.9.5M331 307v5h-9v-9.6l4.5-.3 4.5-.2zm-175 23.5v36.6l5.3-.3 5.2-.3v-72l-5.2-.3-5.3-.3zm30.4-35.2c-.2.7-.3 7.8-.2 15.7l.3 14.5h31l.3-15.8.3-15.7h-15.6c-11.8 0-15.7.3-16.1 1.3M207 310v5h-9v-10h9zm-122.6-9.7c-.2.7-.3 7.8-.2 15.7l.3 14.5 15.2.3 15.2.3.3-15.5.3-15.5-2.9-.5c-1.6-.3-8.4-.6-15.3-.6-9.2 0-12.5.3-12.9 1.3m20.1 14.7v4.5l-4.7.3-4.8.3v-10.2l4.8.3 4.7.3zm368.7 5.2.3 5.3h10l.3-5.3.3-5.2h-11.2zm.5 15.4c-.4.4-.7 6.3-.7 13.1V361h11.1l-.3-12.8-.3-12.7-4.5-.3c-2.5-.2-4.9 0-5.3.4M84.2 351.2l.3 15.3H115l.2-15 .3-15-15.8-.3-15.8-.3zm20.8.3v4.5H95v-9h10zm337.5 4.7c-.3 2.9-.5 17.9-.3 33.3l.3 28 5.3.3 5.2.3V351h-9.9zM187 389.6v28.5l5-.3 5-.3.2-15.5c.1-8.5.1-21.2 0-28.3L197 361h-10zm235 4.4v24h11v-48h-11zm-215 7.5V418h11v-33h-11zM12.8 390.7c-.3 2.7-.3 5.1-.1 5.5.2.5 2.6.8 5.4.8H23v-11h-9.8zm604.2.7v5.6h11.1l-.3-5.3-.3-5.2-5.2-.3-5.3-.3zm-245.8 55.3c.3 53.6.3 54.9 2.4 59.4 3.2 6.8 8.7 12.4 15.7 15.9l6.2 3.1.5 10.2.5 10.2 23.3.3 23.2.2v-21h112v21h47v-20.9l6-2.7c7.7-3.4 15.1-11.3 17.7-18.6 1.6-4.8 1.8-9.1 1.8-45.8v-40.5l-5.2-.3-5.2-.3-.3 40.3-.3 40.3-2.5 5c-1.6 3.2-4.1 6.1-6.8 8l-4.4 3-101.1.3c-55.7.1-102.7 0-104.5-.3-4.2-.8-11-6.8-13.3-12-1.7-3.7-1.9-7.9-1.9-56.8V392h-11.1zM432 530v5h-25v-4.3c0-2.4.3-4.7.7-5 .3-.4 6-.7 12.5-.7H432zm159 0v5h-25v-10h25zM309 411v11h22v-22h-22zm-219-1.5v5.5h15v-11H90zm27.7-4.8c-.4.3-.7 2.8-.7 5.5v4.8h14v-11h-6.3c-3.5 0-6.7.3-7 .7m391.5 5 .3 5.8 5 .1c8.2.2 8.5 0 8.5-6.2V404h-14.1zm25.8-.2v5.5h16.1l-.3-5.3-.3-5.2-7.7-.3-7.8-.3zm-189.3-3.8c-.4.3-.7 2.8-.7 5.5v4.8h11v-11h-4.8c-2.7 0-5.2.3-5.5.7M12.4 418.4c-.3.8-.4 19.3-.2 41.3l.3 39.8 2.6 5.6c1.5 3.1 4.4 7.5 6.5 9.8 3.7 4.2 11.8 9.1 14.9 9.1 1.3 0 1.5 1.8 1.5 11v11h47v-21h112v21l23.3-.2 23.2-.3.3-10.7c.2-8.8.5-10.8 1.8-10.8 3.2 0 11.4-5.2 15.7-10 7.6-8.4 7.7-9.2 7.7-51.2v-36.9l-5.2.3-5.3.3-.5 37.2-.5 37.1-3 4.3c-1.6 2.3-5 5.3-7.4 6.6l-4.4 2.3H39.3l-4.2-2.3c-2.4-1.2-5.7-4.2-7.5-6.5l-3.1-4.4-.6-41.6c-.3-23-.6-41.8-.7-42-.1-.1-2.5-.2-5.2-.2-3.4 0-5.2.5-5.6 1.4M74 530v5H49v-10h25zm158 0v5h-24v-10h24z"/></svg>