<svg xmlns="http://www.w3.org/2000/svg" width="1133.333" height="1113.333" viewBox="0 0 850 835"><path d="M319.5 208.5c-16.8 6.4-102 38-145.5 54-52 19.1-80.6 29.7-82.2 30.6-1.7.9-1.8 7.3-1.8 130.3v129.3l-2.8 1.2c-1.5.7-10.3 4.5-19.7 8.3-30.8 12.7-50 20.9-52.3 22.4L13 586v89.1l10.3 4.9c5.7 2.6 17.6 8 26.5 12l16.1 7.1L91 688c16.9-7.5 25.7-10.9 27-10.5 1.1.4 7.2 3 13.6 5.9l11.6 5.3-.1 21.5c-.2 19.3 0 21.7 1.6 23.6 1 1.2 13 7.2 26.7 13.3 22.7 10.2 25.1 11.1 28 10.1 1.7-.5 13-5.6 25.1-11.2 13.2-6.1 22.8-10 24-9.7 1.1.3 9.4 3.9 18.5 8l16.5 7.5.5 22.5c.4 16.2.9 22.8 1.8 23.9.7.9 6.5 4 13 6.9 6.4 2.8 17.4 7.8 24.4 11.1 7 3.2 13.7 5.8 14.9 5.8 2.6 0 7.2-2.1 102.9-47.5 39.2-18.6 115.9-54.9 182.5-86.2 20.3-9.6 37.5-17.9 38.2-18.5 1-.8 1.3-10.9 1.3-45.3 0-40.8-.1-44.3-1.7-45.7-1-.8-7.2-3.8-13.8-6.5-6.6-2.8-17.4-7.4-23.9-10.2-6.6-2.8-13-5.1-14.3-5.1s-4.1.9-6.3 2c-5.4 2.7-6 2.6-6-1.8 0-4.8-1-6.2-6.2-8.7l-4.3-2-.3-126.2c-.2-125-.2-126.2-2.2-127.3-1.9-1-18.1-7-83-31-83.2-30.7-147.5-54.5-154.2-57.1-4.3-1.6-8.3-2.9-9-2.8-.7 0-8.9 2.9-18.3 6.4m31.9 7.9c23.4 8.6 64 23.6 64.2 23.9.4.4-76.4 29.7-77.8 29.7-.7 0-68.4-25.6-76.2-28.8-1.5-.7.8-1.8 10-5.2 6.5-2.4 23.6-8.7 37.9-14.1 14.3-5.3 26.8-9.8 27.9-9.8 1-.1 7.3 1.9 14 4.3m-54.9 47.8c139.7 53.4 178.1 68.1 179.5 68.9 1.2.6 1 1-1 1.7-1.4.6-4.3 1.7-6.6 2.6l-4.1 1.7-33.4-12.9c-18.4-7-70.2-26.9-115.1-44.2s-81.5-31.7-81.2-32c1.3-1.2 12.1-4.7 13.4-4.3.8.3 22.7 8.6 48.5 18.5m149.8-12.7c8.6 3.1 15.7 6 15.7 6.4s-14.3 6.3-31.7 13c-17.5 6.8-34.4 13.5-37.5 14.7-3.2 1.3-6.3 2.4-7 2.4-2.3 0-33.8-12.3-33.8-13.1 0-.5.6-.9 1.3-.9.6-.1 17.9-6.6 38.2-14.5 20.4-7.9 37.5-14.2 38-14.1.6.2 8.1 2.9 16.8 6.1M256 264.8c15.7 6 35.7 13.8 44.5 17.2s26.4 10.1 39 15c12.7 4.8 35.8 13.7 51.5 19.8 15.7 6 35.1 13.5 43.2 16.6s16.4 6.4 18.5 7.2l3.7 1.6-5.9 2.4c-3.2 1.3-6.6 2.4-7.5 2.4s-17.3-6.1-36.6-13.6c-19.2-7.5-53.3-20.7-75.9-29.4-22.5-8.7-51.6-20-64.5-25-12.9-5.1-30.1-11.7-38.2-14.8-8.2-3.2-14.8-5.9-14.8-6.2 0-.9 11.4-4.8 13-4.5.8.2 14.3 5.3 30 11.3m-40.6 4.2c8.3 3.2 25.7 10 38.6 15.1 12.9 5 23.6 9.2 23.8 9.4.1.1-5.3 2.3-12 4.8-11.9 4.4-36.5 13.8-65.3 24.9-10 3.9-14.7 5.2-16 4.7-1.1-.5-17.7-7.2-37-14.9-19.2-7.7-36.1-14.5-37.5-15.1-2.2-1 .6-2.2 26-11.6 15.7-5.7 36.2-13.3 45.5-16.8 9.4-3.5 17.4-6.4 17.9-6.5.5 0 7.7 2.7 16 6m298.4 7.5c57.5 21.1 55.1 20.1 52.2 21.4-1.4.6-19.1 7.8-39.3 16l-36.9 14.8-17.1-6.7c-9.5-3.7-29.9-11.6-45.4-17.5-15.6-6-28-11.1-27.7-11.4s17.5-7.2 38.2-15.3c25-9.8 38.5-14.6 40-14.2 1.3.3 17.5 6.1 36 12.9M314 307.3c11.2 4.4 11.4 4.5 8.5 5.6-1.6.7-7.5 2.9-13 5.1-39.5 15.5-75.1 29-76.4 29-1.4 0-32.9-12.4-33.8-13.3-.1-.2 13.8-5.7 31-12.2 17.1-6.5 37.7-14.4 45.7-17.6l14.5-5.6 6 2.3c3.3 1.2 11.2 4.3 17.5 6.7m-172.9 13 40.4 16.3.2 35.5c.3 34.5.3 35.4 2.4 37.1 1.9 1.6 2.3 1.6 7.2-.2 2.9-1.1 5.3-2 5.4-2 0 0 2.4 2.9 5.2 6.5 5.7 7.2 7 7.6 13.7 4.6l4.2-1.9 5.2 6.3c5.9 7.1 8.2 8.3 11.1 5.4 1.8-1.8 1.9-3.7 1.9-35v-33l2.1.6c1.2.4 22.6 9.1 47.5 19.2l45.4 18.6v142.8c0 78.6-.1 142.9-.3 142.9s-8-3.4-17.3-7.6c-9.3-4.1-46.6-20.8-82.9-36.9-36.3-16.2-81.1-36.1-99.5-44.4l-33.5-14.9-.3-4.6c-.2-2.5-.1-4.6.2-4.6.2 0 4.2 1.6 8.8 3.6 18.8 8.1 61.5 25.7 69 28.5 4.3 1.6 7.6 2.4 7.2 1.8s-6.8-4.1-14.3-7.6c-18.9-9.1-56.2-26.3-64.3-29.8-6.7-2.9-6.8-3-6.8-6.7 0-2.1.2-3.8.4-3.8s4.2 1.6 8.8 3.6c7.9 3.4 51.7 21.5 54.8 22.6.8.3 3.9 1.5 6.8 2.7 2.8 1.1 5.2 1.7 5.2 1.2 0-.9-35.4-18.2-59.7-29.1L99 550.6v-3.9c0-2.7.4-3.8 1.3-3.4.6.3 8.4 3.5 17.2 7.2 25.7 10.8 48.6 19.7 49.2 19.1s-24.6-13.2-49.4-24.6L99 536.6v-3.9c0-2.8.4-3.7 1.3-3.3 8 3.6 58.6 23.6 59.7 23.5 2 0-12.3-7.3-39.2-20L99 522.6v-3.9c0-2.7.4-3.8 1.3-3.4 6.4 2.7 45.1 18.2 48 19.3 2 .7 3.7.9 3.7.5 0-.9-11.8-6.9-36-18.3l-16.5-7.7-.3-4.1c-.2-2.2-.2-4 .1-4 .2 0 10 3.8 21.7 8.5 11.8 4.7 22.1 8.4 23 8.3 1.3-.3-22.9-12.8-38.7-19.9-6.3-2.8-6.3-2.8-6.3-7 0-2.9.4-4 1.3-3.6 5.5 2.3 32.7 12.6 34.7 13.1 5.5 1.5-1.7-2.7-18.7-11L99 481.1v-4.2c0-3.5.3-4 1.8-3.4 8.1 3.3 26.5 9.6 26.8 9.2.6-.6-11.6-7.3-21.3-11.7l-7.3-3.3v-52.5c0-43 .2-52.3 1.3-51.9 1.2.4 13.9 4.5 20.2 6.4 1.7.5 1.8.4.7-.9-.7-.9-6-3.7-11.7-6.4L99 357.6v-4.4c0-3.8.2-4.3 1.8-3.7 16.1 6.4 37.2 13.5 37.2 12.6 0-1-9.7-5.9-26.6-13.4l-11.9-5.4-.3-4.3c-.3-3.8-.1-4.2 1.5-3.5 20.7 8.4 55.3 20.7 55.3 19.6 0-1-19.7-10.4-41.2-19.6L99 328.7v-3.8c0-2.2.2-3.9.5-3.9s2.2.7 4.3 1.6c5.6 2.4 45.3 17.1 53.9 20 4.1 1.4 7.7 2.3 8 2 .3-.2-1.9-1.7-4.9-3.2-6.6-3.4-44.8-20.1-54.5-23.9l-7.3-2.8v-5.4c0-2.9.4-5.3.8-5.3.5 0 19.1 7.3 41.3 16.3m435.9-11v5.4l-15.7 6.8c-29.6 12.7-51.7 23-50.2 23.3 1.9.3 21.2-6.4 46.4-16.1l19-7.4.3 3.5c.2 1.9 0 3.8-.5 4.2-.4.5-10.2 5-21.8 10-20.5 9-42.6 19-43.4 19.7-.2.1-.2.5.1.8.6.6 14.2-4.2 42.3-15 26.1-10 23.5-9.5 23.5-4.8v3.9l-15.7 6.9c-23.4 10.2-40.9 18.7-39.7 19.2.9.3 38.9-13.3 53.7-19.2 1.4-.6 1.7-.1 1.7 3.2v4l-21.5 9.8c-11.8 5.3-22 10.4-22.7 11.3-1.7 1.9-1.4 1.9 23.6-7.4 10.9-4.1 20-7.4 20.2-7.4s.4 1.8.4 4v4l-14.7 7.2c-8.2 3.9-14.1 7.3-13.2 7.5.8.2 7.3-1.7 14.3-4.2 7.1-2.5 13-4.5 13.2-4.5s.3 45.5.2 101.1l-.3 101.1-32.5 14.4c-17.9 8-38.3 17.1-45.5 20.3-7.1 3.2-25.8 11.6-41.5 18.6s-43.1 19.3-61 27.2c-40.2 18-52.2 23.3-52.6 23.3-.2 0-.4-2.9-.4-6.6v-6.5l3.8-1.6c20.3-8.4 73.8-34 72.9-34.9-.4-.4-1.9-.2-3.4.4-7.2 2.9-48.2 19.6-60 24.5l-13.3 5.5v-9.4l7.8-3.4c13.5-5.8 51.2-24.3 51.2-25.1 0-1-6.2 1.3-35.7 13.2-12.1 4.9-22.4 8.9-22.7 8.9s-.6-2.1-.6-4.6v-4.5l7.3-3.2c13.6-5.9 33.2-16 32-16.4-.6-.2-9.4 2.8-19.6 6.6-10.1 3.9-18.7 7.1-19.1 7.1-.3 0-.6-32.2-.6-71.6v-71.5l4.8-2.1c12.3-5.3 29.6-14.1 28.6-14.5-.6-.2-8.2 2.1-16.7 5.2-8.6 3-15.9 5.5-16.2 5.5s-.5-2-.5-4.4v-4.3l7.3-3.1c16.1-6.7 39.3-17.5 40.7-18.9 1.3-1.3 1.1-1.3-1.5-.7-3.2.7-41.9 15-44.7 16.5-1.6.9-1.8.4-1.8-3.8v-4.8l8.3-3.4c26-10.9 58.5-26 56-26.1-1.7 0-25.8 8.7-47 17l-17.4 6.8.3-4.5.3-4.5 23.5-10.3c25.1-10.8 46.2-20.3 46.9-21.1 2.9-2.9-13.1 2.6-50.7 17.4l-20.3 8 .3-4.6.3-4.6 10.5-4.3c13.7-5.7 45.8-19.9 58.5-25.9 27.1-12.7-7.2-.6-69 24.2-.7.3-.9-1.1-.5-4.1l.5-4.6 25-10.8c34.9-15.1 52.8-23.4 53.2-24.8.4-1.1-32.9 11.1-62.4 23l-16.3 6.5v-12.6l20.3-8.2c11.1-4.6 32.7-13.4 48-19.6l27.7-11.2v33.7c0 24.9.3 34 1.2 34.9 2.7 2.7 5.6 1.3 11-5.2l5.2-6.4 3.6 1.5c7.5 3.3 8.3 3.1 13.9-4l5.2-6.6 5.5 1.9c4.5 1.6 6.9 1.8 8.6.6.1 0 .5-16.5.8-36.5l.5-36.5 40-16.2c22-8.9 40.6-16.3 41.3-16.3.8-.1 1.2 1.6 1.2 5.2m-211.3 18.1c57 22 64.3 24.9 63.6 25.6-.4.4-11.8 5.1-25.3 10.5s-33.7 13.6-45 18.3l-20.5 8.5-4-1.5c-3.8-1.4-73-29.6-84.2-34.2l-5.1-2.1 20.1-7.8c11.1-4.2 31.7-12.2 45.7-17.7 14-5.4 26-9.9 26.7-9.9.6-.1 13.2 4.6 28 10.3m-157.1 20.2c8.8 3.6 16.7 6.8 17.7 7.1 1.6.5 1.7 2.8 1.7 29.1v28.6l-2.9-3.2c-3.5-3.8-3.6-3.8-9.6-1.2-2.6 1.1-4.8 2-5 2-.1 0-2.2-2.6-4.6-5.8-2.3-3.1-4.7-6.1-5.3-6.5-1.2-.8-5-.5-7.8.8-1.7.7-1.8-1.1-1.8-28.4 0-16.1.4-29.1.9-29.1s8 3 16.7 6.6M485 370.1c0 27.3-.1 29.1-1.7 28.4-5.7-2.4-6.9-1.9-12.3 4.8l-5.2 6.5-5.5-2-5.4-2.1-3.4 3.3-3.5 3.4v-57.1l7.8-3 7.7-3 .3 14.1c.1 7.7.7 14.5 1.2 15 .6.6 1.5.4 2.4-.3 1.2-1 1.6-4.4 1.8-16.3l.3-14.9 6.5-2.9c3.6-1.5 7.1-2.8 7.8-2.9.9-.1 1.2 6.3 1.2 29m101.7 194.6c-.3 1-.5.2-.5-1.7s.2-2.7.5-1.8c.2 1 .2 2.6 0 3.5m-496.5 9.5.3 11.3 7.2 3.5c4 1.9 7.2 3.7 7.2 4 .1.7-31.4 14-33.1 14-1.9 0-42.8-18.4-42.2-18.9.6-.6 58.5-24.9 59.6-25 .4-.1.9 5 1 11.1m538.3-.2c9.4 4 17.3 7.5 17.7 7.9.4.3-15.6 8.2-35.5 17.5s-65.9 30.9-102.2 47.9-76.6 35.8-89.5 41.9c-12.9 6-36.4 17.1-52.3 24.5L338 727.3l-20.5-9.3c-11.2-5.2-20.2-9.6-20-9.9.3-.2 7.6-3.7 16.2-7.6l15.8-7.2 4.3 1.6c3.9 1.4 4.6 1.4 8.5-.1 2.3-.8 30.3-13.3 62.2-27.5 31.9-14.3 85-38.1 118-52.8s60.8-27.4 61.8-28.3c1.1-1 1.7-3 1.7-5.7v-4.3l11.8-5.1c6.4-2.8 12.2-4.9 12.7-4.7.6.2 8.7 3.6 18 7.6m25.5 19.9c0 3.8-.4 5-1.7 5.4-1 .3-14.4 6.5-29.8 13.7-15.4 7.3-41.5 19.5-58 27.3-16.5 7.7-38.1 17.8-48 22.5-9.9 4.6-25 11.7-33.5 15.7-56.7 26.5-79.2 37-107.4 50.4-17.6 8.3-32.1 15-32.2 14.8-.1-.1-.4-2.1-.5-4.5l-.3-4.3 14.9-7c8.3-3.9 43.8-20.5 79-36.9 35.2-16.5 98.4-46.1 140.5-65.9s76.6-36 76.8-36c.1-.1.2 2.1.2 4.8M45.3 605.7l21.7 9.7v9.5l-14.7-6.5c-8.2-3.6-18.3-8.1-22.5-10.1l-7.8-3.6v-4.4c0-2.3.3-4.3.8-4.3.4 0 10.5 4.4 22.5 9.7m74.2-6.5c1.4.6 2.5 1.5 2.5 1.9 0 .6-10.9 5.7-28.4 13-4.7 2-7.8 3.9-8.1 5-.6 1.8-5.3 4.9-7.5 4.9-.5 0-1-2-1-4.4v-4.3l19.8-8.6c10.8-4.7 19.8-8.6 19.9-8.6.1-.1 1.4.4 2.8 1.1m31.8 14.2c8.7 3.9 15.7 7.3 15.7 7.6s-7.3 3.8-16.1 7.8l-16.1 7.1-17-7.6-16.9-7.6 13.8-6c7.6-3.2 15.2-6.5 16.8-7.3 1.7-.7 3.3-1.2 3.6-1.1s7.6 3.3 16.2 7.1m502.5 13.7-.3 18.2-18.5 8.8c-10.2 4.8-18.8 8.8-19.2 8.8-.5.1-.8-8.1-.8-18.2v-18.2l18.8-8.7c10.3-4.8 19-8.7 19.5-8.7.4-.1.6 8.1.5 18m-602.3.9c14.9 6.7 40.3 18.2 56.5 25.5 70.1 31.5 97.7 43.9 116 52.2 10.7 4.9 39.6 17.8 64.1 28.7l44.6 19.8.7 18.6c.3 10.2.5 18.7.3 18.8-.2.2-7.7-3-16.8-7.1-9-4.2-17.9-8.2-19.6-9L294 774l-.1-12.2c0-6.8-.4-13.1-.8-14.2-.5-1.2-9.2-5.7-26.2-13.3-70.3-31.6-69.9-31.4-71.9-30.3-1.8 1-2 2.1-2 12 0 8.2-.3 11-1.2 11-.7 0-9.6-3.8-19.8-8.4l-18.5-8.4-.3-13c-.2-10.8-.5-13.2-2-14.4-.9-.8-10.2-5.3-20.7-10-10.4-4.7-29.2-13.1-41.6-18.7-12.4-5.5-23.3-10.1-24.2-10.1-2.8 0-3.7 3.5-3.7 14 0 5.6-.4 10-.8 9.8-.5-.2-9.3-4.1-19.5-8.7L22 650.7v-17.9c0-14 .3-17.9 1.3-17.5.6.3 13.4 6 28.2 12.7m131.8-.3 3.2 1.7-3.6 1.4c-2 .7-10.4 4.4-18.5 8.1-10.6 4.7-15.2 7.3-15.9 8.8-.5 1.3-2.1 2.7-3.5 3.2s-3.2 1.2-4 1.5c-1.2.5-1.4-.2-1.2-4.2l.4-4.9 19.1-8.6c10.6-4.7 19.6-8.5 20-8.6s2.2.7 4 1.6m-70.8 8.2 17 7.7.3 4.8c.2 2.8-.1 4.7-.7 4.5-.5-.2-8.6-3.8-18-7.9L94 637.5v-4.8c0-2.6.3-4.7.8-4.6.4 0 8.4 3.5 17.7 7.8M85 632c0 .5-.4 1-.9 1-.6 0-1.3-.5-1.6-1-.3-.6.1-1 .9-1 .9 0 1.6.4 1.6 1m520.6 30.8c-.3.2-5.9-1.9-12.6-4.8l-12-5.3v-10.2l12.3-5.7 12.2-5.6.3 15.5c.1 8.6 0 15.8-.2 16.1M218 643c10.2 4.6 18.8 8.6 19.2 8.9.7.6-30.6 15.2-32.5 15.1-1.5 0-39.7-17.4-39.7-18 0-.9 32.4-15 33.5-14.6.6.2 9.3 4.1 19.5 8.6m353.8 10.5c-.9.8-39.3 18.4-39.6 18.1-.2-.2.1-1.8.5-3.6.8-3 2-3.8 19.8-12.1l19-8.9.3 3.1c.2 1.7.2 3.2 0 3.4m82.2 5.9v4.3l-19.2 9.1c-10.6 4.9-38 17.9-60.8 28.7s-52.3 24.8-65.5 31c-42.4 19.9-157.6 74.5-161.6 76.6L343 811v-9.5l40.3-18.9c22.1-10.4 57.1-26.9 77.7-36.6 20.6-9.8 49.2-23.2 63.5-30 26.2-12.3 83.3-39.3 113-53.4 8.8-4.1 16.1-7.6 16.3-7.6.1 0 .2 2 .2 4.4M77.8 659c2.8 1.3 5.2 2.6 5.2 3 0 .6-2.9 2-11.7 5.7-1 .4-1.3-1.1-1.3-5.7s.3-6.1 1.3-5.7c.6.3 3.6 1.5 6.5 2.7m99.2 5.8c25.2 11.3 23 9.8 23 15.3v4.7l-11.7-5.2c-6.5-2.9-16.2-7.2-21.5-9.6l-9.8-4.4v-4.8c0-5.6-2.4-6.1 20 4m78.5-4.8c.2.4-4.2 2.7-9.8 5.1-19.2 8.1-26.6 11.8-27.7 13.9-.6 1.1-2.9 2.9-5 4l-4 2v-9.8l8.3-3.5c4.5-2 13.6-6 20.1-9 10.3-4.7 12.4-5.3 14.8-4.5 1.5.6 3 1.3 3.3 1.8m-107.5.5c0 .9-.6 1.2-1.6.8-1.3-.5-1.3-.7-.2-1.4 1.7-1.1 1.8-1.1 1.8.6m-106.3 8.8 18.8 8.4.3 4.7.3 4.6-5.3-2.4c-2.9-1.3-11.7-5.2-19.5-8.7L22 669.5v-4.2c0-2.4.2-4.3.4-4.3.3 0 8.9 3.8 19.3 8.3m546.4-3.6c6 2.5 10.7 4.8 10.5 5-.6.7-65.6 31.3-66.3 31.3-.1 0-.3-4.5-.3-10v-10l8.2-3.7c4.6-2.1 14.6-6.8 22.3-10.5s14.1-6.7 14.3-6.7c.2-.1 5.2 2 11.3 4.6m-298.3 9.5c6.2 2.8 11.1 5.2 11 5.3-.9.8-32.4 14.8-33.3 14.8S238.9 683.1 235 681c-1.1-.6-.4-1.2 2.5-2.4 2.2-.9 9.8-4.3 16.9-7.5l12.9-5.9 5.6 2.4c3.1 1.4 10.7 4.8 16.9 7.6M101.9 670l3.4 1.7-16.4 7.2c-9 4-17 7.5-17.7 7.8-1 .4-1.2-.6-1-4.1l.3-4.7 12-5.4c12.4-5.6 13.2-5.7 19.4-2.5M523 688.3v18.4l-18.6 8.9c-10.3 4.9-19 9-19.5 9.2s-.9-8-.9-18.2V688l9.3-4.2c5-2.4 13.5-6.4 18.7-9 5.2-2.5 9.8-4.7 10.3-4.7.4-.1.7 8.1.7 18.2m-209.5 2.3c-2.8 1.3-11.2 5.3-18.7 8.8-9.3 4.4-13.8 7-13.8 8.1 0 .9-1.8 2.4-4.2 3.5l-4.3 1.9-.3-4.1c-.2-2.5.2-4.6 1-5.3.7-.7 5.6-3.1 10.9-5.4 5.3-2.2 13.9-6.1 19-8.5 9-4.2 9.5-4.3 12.4-2.8l3 1.5zM263 708.4c0 3.7-.3 4.7-1.4 4.3-.7-.3-9.1-4-18.5-8.3l-17.1-7.7v-9.5l18.5 8.2 18.5 8.1zM217 692c0 .5-.2 1-.4 1-.3 0-.8-.5-1.1-1-.3-.6-.1-1 .4-1 .6 0 1.1.4 1.1 1m257.8 25-.3 7.9-12-5.3-12-5.2-.3-5.1-.3-5.2 12.3-5.8 12.3-5.9.3 8.3c.1 4.6.1 11.9 0 16.3m-33.8-5.2c0 2.8-.9 3.3-24.2 14.2-13.4 6.3-24.7 11.5-25.1 11.8-1.5.8-.2-6.1 1.3-7 4.2-2.3 45.7-21.7 46.8-21.7.7-.1 1.2 1.1 1.2 2.7m-229.9 7.3 4.2 2.1-4.4 2c-9.6 4.3-8.9 4.5-8.9-2.2 0-5.9 0-5.9 2.5-5 1.3.5 4.3 1.9 6.6 3.1m100.6 6.2 20.8 9.4.3 4.6c.2 2.6-.1 4.7-.5 4.7-.5 0-10.1-4.2-21.4-9.3l-20.4-9.3-.3-4.7c-.2-2.6-.1-4.7.2-4.7.2 0 9.8 4.2 21.3 9.3M281 720c0 .5-.4 1-.9 1-.6 0-1.3-.5-1.6-1-.3-.6.1-1 .9-1 .9 0 1.6.4 1.6 1m-111 7.6c24.4 10.6 23 9.7 23 14.4 0 2.2-.4 4-.9 4s-9.4-3.8-19.8-8.5c-15-6.7-18.9-8.9-19.5-10.7-.7-2.5-1-6.8-.5-6.8.2 0 8.2 3.4 17.7 7.6m287-.6c5.2 2.2 9.8 4.4 10.2 4.8.7.7-69.5 34.6-74.5 36-1.6.4-1.7-.4-1.5-9.7l.3-10.2 26-12.4c14.3-6.8 26.9-12.4 28.1-12.4 1.1-.1 6.3 1.7 11.4 3.9m-224.2 1.9 3.3 1.7-12.3 5.6c-6.8 3.1-14.5 6.6-17.1 7.7l-4.8 2.1.3-4.7.3-4.7 11.5-5.2c11.9-5.4 12.8-5.5 18.8-2.5m148.5 44.2c-.5.4-9.2 4.8-19.6 9.7l-18.7 9.1.2-19.1.3-19 19-8.8 19-8.7.3 18c.1 9.9-.1 18.4-.5 18.8m-67 20 18.7 8.3v9.4l-19.2-8.8c-20.1-9.2-20.4-9.4-20.7-15.9q-.15-2.25 1.2-1.8c.6.3 9.6 4.2 20 8.8M209 459c-1.3.8-1.5 10.1-1.5 73.9 0 64.5.2 73.2 1.5 74.6.9.8 19.6 9.4 41.5 19 22 9.7 43.5 19.1 47.8 21.1 10.3 4.6 13.6 5.2 15.4 2.9 1.1-1.5 1.3-15.1 1.3-74.3 0-48-.3-73-1-74.3-.6-1-2.7-2.6-4.8-3.5-21.2-9.1-95-39.6-96.6-39.9-1.2-.3-2.8-.1-3.6.5m43.5 23.9c8.3 3.5 23.8 10 34.5 14.5l19.5 8.2.7 4.9c.4 2.8.7 33.7.6 68.8 0 59-.1 63.8-1.6 63.4-2-.6-89.4-39.1-90.8-39.9-.5-.4-.8-28-.6-68.1l.2-67.5 11.3 4.7c6.1 2.6 18 7.6 26.2 11m-28.8 3.8c-1.3 1.3-.8 28 .6 29 2.4 1.9 22.6 9.5 24.4 9.1 1.5-.3 1.8-1.5 2.1-8.2.3-8.4-.6-10.8-3.3-8.6-1 .8-1.5 3-1.5 6.5v5.2l-9-3.6-9-3.6V492l5.3 2.2c6.3 2.6 11 2.9 11.5.7.2-1.1-2.2-2.5-9-5.2-9.7-3.8-11-4.2-12.1-3m19.8 13.3-6 4.9-2.3-2.5c-2.6-2.7-3.5-2.9-5-1.1-.8.9-.3 2.7 1.9 6.5 1.7 2.8 3.6 5.2 4.2 5.2.7 0 4.9-3 9.5-6.6 6.5-5.1 8.3-7 8-8.7-.5-3.7-3.9-2.9-10.3 2.3m15.8 13.6c-.3.9-.2 2.4.4 3.3 1 1.5 33.5 16.1 36 16.1.7 0 1.7-.9 2.3-2 .8-1.5.7-2.3-.8-3.8-1.9-1.9-33-15.2-35.7-15.2-.8 0-1.8.7-2.2 1.6m-35.6 13.1c-.4.3-.7 6.6-.7 13.8 0 11.3.2 13.4 1.8 14.7 2 1.8 21.3 9.8 23.5 9.8 2.1 0 2.7-2.2 2.7-10 0-7.1-.6-8.5-3.4-7.4-1.2.5-1.6 2-1.6 6 0 3-.1 5.4-.3 5.4s-4.1-1.5-8.8-3.4l-8.4-3.4-.3-10.1c-.1-5.6 0-10.1.2-10.1.3 0 3.1 1.1 6.3 2.5 6.3 2.8 9.6 2.9 10.1.3.2-1.2-1.9-2.5-9-5.2-9.6-3.7-11-4.1-12.1-2.9m20.4 12.3c-3.6 2.8-6.7 5-7 5-.4 0-1.2-.9-1.9-2-1.4-2.3-3.2-2.6-5-.8-.9.9-.6 2 1 4.7 4 6.8 4.8 7.3 7.5 5.5 3.5-2.2 16.3-12.6 16.3-13.1 0-1.4-2.2-4.3-3.3-4.3-.7 0-4.1 2.3-7.6 5m15.3 13.4c-1.5 3.9.2 5.1 17.1 12.3 17.5 7.5 20.9 8.4 21.9 5.8.9-2.5-.4-4.3-4.8-6.3-7.1-3.4-31.4-13.2-32.6-13.2-.6 0-1.3.6-1.6 1.4m-36 13.9c-.2.7-.3 7.4-.2 14.8l.3 13.4 5.5 2.7c3 1.5 8.8 3.9 12.9 5.4 8.9 3.3 9.2 3 8.9-7.6-.3-6.7-.5-7.5-2.3-7.5-1.7 0-2 .8-2.3 5.8-.2 3.2-.6 5.7-1.1 5.5-.4-.2-4.4-1.8-8.9-3.7l-8.2-3.3v-20.7l6.6 3c6.8 3 10.8 3.1 10.2.1-.2-.9-4-3.1-9.7-5.4-10.6-4.2-11-4.3-11.7-2.5M244 579c-3.4 2.7-6.5 5-6.9 5-.3 0-1.2-.9-1.9-2-1.3-2.1-4.7-2.7-5.7-1-.8 1.4 5.3 11 7 11 1.3 0 16.5-11.4 17.7-13.3.9-1.4-.9-4.7-2.6-4.7-.7 0-4.2 2.2-7.6 5m15.7 12.7c-1.4 1.4-.6 4.3 1.6 5.7 3.8 2.5 32.6 14.6 34.7 14.6 1.5 0 2-.7 2-3 0-3.5.1-3.4-20.3-11.9-14.6-6.1-16.8-6.7-18-5.4m298.3-112c-17.5 6.7-107 45.9-108.2 47.4-1.7 2-1.8 5.7-1.8 46.3 0 33 .3 44.5 1.2 45.4.7.7 2.4 1.2 3.8 1.2 1.5 0 23.1-9 48.1-20s49.1-21.7 53.7-23.7c6.1-2.6 8.7-4.4 9.8-6.4 1.1-2.3 1.4-10.1 1.4-44.4v-41.6l-2.5-2.4c-2.5-2.6-3-2.7-5.5-1.8m1 47.2v39.8l-8.2 3.5c-4.6 2-27.7 12.2-51.4 22.7-23.8 10.5-43.4 19.1-43.8 19.1-.3 0-.6-18.1-.6-40.3v-40.3l51.3-22.1c28.1-12.1 51.5-22.1 52-22.2.4 0 .7 17.8.7 39.8m-12-26.6-2.5 1.3-.3 30.2c-.1 16.7.1 30.9.5 31.7.7 1.1 1.3 1.1 4.1 0l3.2-1.4v-31.6c0-33.7.1-32.8-5-30.2m-9.2 3.9-2.8 1v27.4c0 28.8.1 29.3 4.3 26.1 1.6-1.1 1.7-3.7 1.5-28.3l-.3-27.1zm-8 3.9c-1.6.9-1.8 3.3-1.8 27.9 0 23.6.2 27 1.5 27 .9 0 1.8-.6 2-1.3.3-.7.4-13.2.3-27.9-.3-25.1-.4-26.6-2-25.7m-7.5 2.6c-1 .3-1.3 6.9-1.3 28 0 25.6.1 27.4 1.8 27.1 1.6-.3 1.7-2.6 2-28.1.1-15.2-.1-27.7-.5-27.6-.5 0-1.4.3-2 .6m-7.5 3.5-2.8 1v27.4c0 28.8.1 29.3 4.3 26.1 1.6-1.1 1.7-3.7 1.5-28.3l-.3-27.1zm-8.5 3.5c-1 .4-1.3 7.7-1.3 31.7 0 17.2.3 31.5.6 31.9.3.3 1.2.3 2 0 1.2-.4 1.4-6 1.4-32.4 0-17.5-.3-31.9-.7-31.8-.5 0-1.4.3-2 .6m-8.5 3.6-2.8 1.1V578l3.3-1.3 3.2-1.3.3-27.7c.1-15.2-.1-27.7-.5-27.6-.5.1-2 .6-3.5 1.2m-8.5 3.4c-1 .3-1.3 6.9-1.3 27.9 0 26.7 0 27.4 2 27.4s2-.7 2-28c0-15.4-.3-28-.7-27.9-.5 0-1.4.3-2 .6m-6.5 3.4c-1.6.9-1.8 3.3-1.8 27.9 0 26.3 0 27 2 27s2-.7 2-28c0-15.4-.1-28-.2-28-.2 0-1.1.5-2 1.1m-8 3.5-2.8 1.5V560c0 29.1-.1 28.7 5.1 26 1.8-1 1.9-2.4 1.9-28.5 0-15.1-.3-27.5-.7-27.5-.5.1-2 .8-3.5 1.6m-9.5 3.9-3.3 1.4V569c0 17.6.2 32 .4 32 .1 0 1.7-.5 3.5-1.1l3.1-1.1v-32.4c0-17.8-.1-32.4-.2-32.4-.2.1-1.8.7-3.5 1.5"/></svg>