<svg xmlns="http://www.w3.org/2000/svg" width="1021.333" height="1090.667" viewBox="0 0 766 818"><path d="M547 13.5c-3.6.8-50.4 10-104 20.5-53.6 10.4-99.8 19.7-102.7 20.5-3.4 1-6.1 2.7-8.1 4.9-2.5 2.9-3.1 3.1-4.7 2-4.5-3.3-9-2.8-41.5 5.1-43.7 10.6-101.8 24.5-151.5 36.4-52.8 12.7-49.7 11.8-53.8 15.2-7.3 6-6.8-2.1-6.7 115.6l.1 105.7 2.4 4.2c2.7 4.5 9 8.4 13.8 8.4 1.4 0 12.9-3.7 25.4-8.1 12.5-4.5 26.4-9.4 30.8-10.9s11.7-4.2 16.3-5.9l8.3-3.1-.7 3.8c-1.8 11-1.2 10.3-14.1 15.5-6.5 2.5-19.9 7.6-29.8 11.1S97.9 364.6 85 369.3s-33.2 11.9-45 16.2c-26.4 9.5-27 9.8-27.1 13.3-.4 11.8.2 21.7 1.3 22.8.7.7 5.8 3.3 11.3 5.8l10 4.5.3 116.4c.2 109.3.3 116.5 2 117.9.9.8 5.9 3.7 11 6.3l9.3 4.9 9-4.4c5-2.5 9.9-5.3 11-6.3C80 665 80 662.4 80 559c0-58.3.1-106 .3-106 .1 0 12.9 5.9 28.2 13.1 15.4 7.2 34.1 16 41.5 19.4 7.4 3.5 24.5 11.5 38 17.8l24.5 11.5.3 126.1.2 126.1 3.8 2.4c6.1 3.8 18 9.6 19.8 9.6 1.7 0 16-7.5 19.9-10.4 2-1.4 2-2.9 2.5-128.2l.5-126.7 17.5-7.9c26.2-11.9 125.4-57.1 134-61.1 5.6-2.6 7.8-3.3 8.8-2.5 1 .9.3 1.8-3.2 4-7.5 5-11.6 12.9-11.6 22.8v5.8l-7.7.6c-4.3.3-13 .8-19.3 1.2-22.1 1.2-33.3 4.3-42.8 12.1-6.6 5.4-11.8 14.1-13.8 23-2.2 9.8-2.3 8.2 5.6 79.3 4.1 37.3 5.7 56.5 6.6 75.7l.7 16.1-2.9 1.5c-5.8 3-14.2 4.7-27.4 5.5-17.6 1.2-21.4 3.1-24 12.1-2.1 7.5 4.9 16.1 18.7 22.7 11.7 5.7 20.8 7 37.2 5.6 18-1.6 17.8-1.6 18.5 1.1.8 3.2 4.5 4.7 14.6 6 10.8 1.3 21.7-.8 27.1-5.2l3.4-2.9v-10.8c-.1-6-.1-14.1-.2-17.9-.1-3.9-.2-13.7-.2-21.8-.1-13.7.1-14.8 1.7-14.2.9.4 4.7 1.7 8.3 3 9.2 3.2 12.3 5 13.6 7.8.7 1.4 2.7 3.7 4.7 5.2 11.6 8.8 31.5 8.8 38.5-.1 2.2-2.8 2.3-3.7 2.2-18.9-.1-8.8.2-24.5.6-34.9l.8-19 2.7 4.2c3.1 4.6 8.7 8.2 17.3 11.2 8.4 2.9 14.7 2.6 22.3-1l6.3-3 10.2 2.9c5.6 1.6 11.3 3.2 12.7 3.5 2.3.5 2.5.9 2.2 5.3-.3 3-1.1 5.5-2.3 6.6-2.5 2.3-2.9 4.3-3.2 15.8l-.2 9.7-21-8.4c-11.5-4.6-22.5-8.4-24.3-8.4-7.2 0-12.2 5.4-12.2 13.3 0 2.3-.8 4.1-2.5 5.7-1.3 1.3-3.2 4.2-4.1 6.5-2.8 7.4 1 15.7 8.6 18.8 2.8 1.2 1.4 1.7-24.8 9.5-15.2 4.5-28.8 9-30.2 10-4.6 3.4-7 8.1-7 13.7 0 4.4-.4 5.5-3.1 8.1-4.3 4.1-5.9 7.6-5.9 12.9 0 7.5 3.9 12.9 11.4 16 9.9 4.2 22.5-4.8 22.6-16.1 0-1.6-1.2-5.4-2.6-8.2-3.1-6.2-2.5-7.6 3.9-8.6 2.3-.4 23.8-4.7 47.7-9.7 23.9-4.9 44.5-8.7 45.6-8.5 2.1.6 2.2 1.2 2.8 25.3.4 13.7 1.2 27.9 1.7 31.7.8 6.2.7 7.1-1 9-8.6 9.5-6.3 22.9 5.1 28.7 4.9 2.5 9.4 2.4 14.8-.4 10.5-5.3 13-19.2 4.8-27.6-2.6-2.7-2.8-3.2-1.9-7.3.5-2.3 1.9-16.4 3.2-31.2 2.7-30.9 2.2-29.8 12-27.6 3 .6 23.4 4.9 45.4 9.6 22 4.6 41 8.6 42.1 8.9 3.3.7 3.6 3.1.9 7.1-2.9 4.3-3.4 11.8-1 16.3 2 3.9 6.8 7.8 11.3 9.2 4.6 1.3 10.5 0 14.7-3.3 3.3-2.6 6.5-9.1 6.5-13.3 0-4-3.1-10.4-6.4-13.4-2-1.9-2.6-3.4-2.6-6.6 0-5.3-3.7-12.5-7.6-14.7-2.9-1.7-25.7-9-65.4-20.8-9.6-2.9-17.7-5.4-17.9-5.6-.1-.1 3.4-2.1 7.9-4.4 8.6-4.3 9.9-4.3 10 .3 0 2.9 2.7 7.3 5.6 9.2 8.9 5.8 19.3 2.7 23-7 2.1-5.6.9-10.7-3.6-15.9-2.2-2.4-3-4.4-3-7 0-7.3-5-12.6-11.9-12.6-1.6 0-13.7 3.8-26.8 8.5s-24.1 8.5-24.5 8.5c-.5 0-.8-4.9-.8-11 0-10.7-.1-11-3-14.3-2.1-2.4-3-4.5-3-6.9v-3.4l8.3-1.6c4.5-.9 12.4-3.2 17.5-5.1l9.2-3.4 8.1 2.3c12.9 3.8 16 3.4 29.5-3.6 6.4-3.3 13.6-7.4 16-9.1 5.3-3.6 10.1-11.5 11-18 .5-3.6 1.2-4.9 3.5-6.3 5.5-3.2 13.7-11.7 16-16.3 1.8-3.9 2.3-6.6 2.3-14.3l.1-9.5 3.8-4c2.2-2.2 5.3-6.9 7-10.5l3.2-6.5-.3-24.7c-.5-40.2.9-47.2 18.8-92.8 15.8-40.2 23-63.7 27.3-88.7 2.6-14.8-.1-19.7-14.4-27.1-9.4-4.9-14.3-4.5-26.5 1.9-5.3 2.7-9.9 4.7-10.2 4.4s-1.4-4.3-2.3-8.8c-2.3-11.7-7.6-22.5-14.4-29.6-6.4-6.7-12.6-10.3-27.4-15.7-10.2-3.7-10.4-3.9-13-8.8-3.6-6.8-8.3-11.6-11.5-11.6-2.2 0-2.7-.7-4.2-5.6-2-6.8-1.8-7.5 4.6-24.9 7.8-21 10-30.7 10-43.4 0-20.3-6.2-33.2-18.7-38.7-2.9-1.3-5.4-3.1-5.8-4.3-1-3.4-10.3-10.9-16.3-13.2-4.7-1.8-7.8-2.2-17.7-2.3l-12-.1-.5-32.7c-.5-31-.6-32.8-2.6-35.4-5-6.7-11.2-8.4-22.4-5.9m12.4 7.6c1.4.7 2.7 1.8 3 2.6.3.7.6 15.8.6 33.5.1 31.6.1 32.2-1.9 33-2.1.7-2.1.6-2.1-29.8 0-19.1-.4-31.3-1-32.5-1.2-2.2-5.5-2.5-12.3-.9-2.3.5-48.5 9.8-102.7 20.5-74 14.7-98.9 20-100.3 21.4-1.7 1.6-1.8 6.3-1.7 87.4 0 47.1.3 86.4.7 87.3.3.8 1.5 1.9 2.6 2.3 2.3.9 6.5-.1 73.7-17.5 24.5-6.4 56.7-14.7 71.5-18.5 14.9-3.9 29.4-7.7 32.3-8.5 3-.9 5.4-1.4 5.6-1.2.1.1.7 1.5 1.4 3 .9 2.3.9 2.8-.6 3.2-3.2 1-61.7 16.5-96.7 25.6-19.2 5-47.1 12.3-61.9 16.1-27 7.1-30.7 7.6-32.4 4.1-.6-.9-1.1-41.4-1.3-93l-.4-91.4 3.1-2.7c2.8-2.5 6.2-3.4 40.5-10.1 20.6-4 68.7-13.5 106.9-21.1s69.8-13.8 70.2-13.8c.4-.1 1.8.4 3.2 1M550 64.4v29.4l-6.9 1.7c-3.9.9-9.6 1.6-12.8 1.4s-6.7 0-7.9.4c-3.4 1.2-6.6 8.2-7.2 15.7-.6 8.3.8 12.5 5.7 17.9 3.6 3.9 3.8 4.4 3.1 8.4-.5 2.3-1.2 7.9-1.5 12.4-.7 7.2-.5 9.1 1.5 14.2 1.8 5 2 6.5 1.1 9.7-.6 2.2-1.1 6.8-1.1 10.4v6.5l-49.8 12.9c-63.7 16.5-118 30.5-121.3 31.2l-2.7.6-.6-25.3c-.4-14-.6-50.6-.4-81.4l.3-56 98-19.6c53.9-10.8 99-19.7 100.3-19.8l2.2-.1zm-227.1 4.1c1.6.8 3.1 2.2 3.5 3 .3.9.6 42.8.6 93.2v91.5l-2.7 2.7c-1.8 1.7-7 4.2-14.3 6.8-6.3 2.3-31.1 11.2-55 19.8s-56.8 20.4-73 26.2c-16.2 5.7-42.8 15.2-59 21-16.2 5.9-31 10.6-32.9 10.7-2.5 0-4-.7-5.7-2.8l-2.4-2.7V128.8l3.3-3.2c2.9-2.9 4.9-3.7 19.2-7.1 29.4-6.9 179.9-43.1 202-48.6 13.4-3.3 12.9-3.2 16.4-1.4m278.5 30.4c4.8 2.3 7.4 4.5 10.1 8.1 2.6 3.6 5.3 5.8 9.2 7.6 10.2 4.9 15.1 17.6 14 36.5-.4 8.7-1.3 12-7.2 29.6-3.8 10.9-7.2 20.3-7.7 21-1 1.3-11.5 3.3-17.2 3.3-6.4 0-10.9-3.4-17.5-13.2-2.7-4.1-3.1-5.5-3.1-11.5 0-12-5.8-20.3-14.2-20.3-3.4 0-8.2 3.3-10 6.9l-1.5 3.2-.7-4.1c-.4-2.9-1.9-5.4-4.8-8.6-4-4.4-4.3-5-4.9-12.6-.8-9.4-2.6-11.9-9.6-13.9-10.5-2.9-15.2-11.4-12.3-22l1-3.7 9.3-.4c6.7-.4 11.9-1.4 19.1-3.7 15.3-5.1 21.1-6.1 31.8-5.7 8.5.3 10.5.7 16.2 3.5M535.1 139c1.5.8 1.9 2.1 1.9 5.8 0 7.1 1.6 11.2 6 15.7 3.5 3.6 4.2 5.1 5.2 10.8 1.1 6.9 2.6 9 6.8 10 4.4 1.1 7.3-1.3 9-7.3 1.4-4.7 1.9-5.5 4-5.5 3.8 0 6.2 5.5 5.7 12.6-.6 6.8-2.3 9.7-6.2 10.7-2.3.6-3.1 1.5-3.3 3.5-.3 2.1.2 2.9 2.3 3.7 2.7 1 8.5-.7 9.9-2.9.5-.7 2.2.7 4.5 3.6 8.9 11.3 14.2 13.9 26 12.9 4.2-.4 8.7-.8 10-.9 2-.2 2.6.6 4.1 5l1.7 5.3-4.1 1c-9.3 2.4-25.7 8.4-34 12.6-4.9 2.4-9 4.3-9.1 4.2-.2-.2-1-2.9-1.9-6.2-1-3.2-2.8-6.9-4.2-8.3-2.7-2.7-2.3-2.7-13.4-.4-5 1-9.4.5-10.9-1.3-1.2-1.4-10.7-28-12.3-34.3-.9-3.2-.8-6 .2-11.3 1.2-6.6 1.2-7.6-.8-13.8-1.9-5.8-2-7.7-1.2-14.2.5-4.1.9-8.5 1-9.8 0-2.5.3-2.6 3.1-1.2m-1.6 78.2c2.7 12.6 11.3 18.3 23.6 15.9 3.6-.8 6.5-.9 7.1-.3.4.4 1.6 3.4 2.4 6.4l1.6 5.6-3.8 4.6c-2.1 2.5-4.3 4.6-4.8 4.6s-17.9-5.5-38.5-12.2l-37.6-12.1-10.2 3.5c-10.2 3.5-10.3 3.5-10.3 1.3 0-2.5-1.8-1.9 30.5-10.4 12.7-3.3 25.9-6.9 29.5-8 9.2-2.7 9.7-2.6 10.5 1.1m102 15.8c1.4 2.8 2.3 5.5 1.9 6.1-1.7 2.9-17.2 8.1-35.2 12-16.8 3.5-22.5 5.5-30.7 10.4-3.2 2-6 3.4-6.1 3.2-.2-.2.7-2.6 2.1-5.3 5.2-10.6 25.7-21.3 55-29 5-1.2 9.3-2.3 9.7-2.4.4 0 1.9 2.3 3.3 5m-181 4.2c-.2 1.3-1.2 6.8-2 12.3-.9 5.4-1.7 9.9-1.8 10s-6.2 2-13.5 4.2l-13.3 4.1.6-6.1c.4-3.4 1.2-9.3 1.8-13.1l1.2-7 11.5-3.2c14.4-4 16.2-4.2 15.5-1.2m35 3.1c40.7 12.9 67.5 22 67.5 23 0 .7-.5 2.8-1 4.8-.9 3.2-2.5 4.6-12.1 10.9-16.7 10.9-22.3 16.9-29.7 32-3.4 6.9-7.8 17.3-9.8 23.2l-3.6 10.8h-21.9l-19.7-10.4c-27.9-14.7-43.9-22.6-45.7-22.6-.9 0-9.8 3.2-19.8 7.1-17.6 6.8-18.3 7-20.7 5.4-5.7-3.7-11.4-5.6-21.5-7-12.2-1.7-15.5-3.2-27-12-4.6-3.5-9.3-6.6-10.6-7-1.7-.6 6.5-3.8 33.7-13.6 19.7-7.1 36-12.9 36.2-12.9.1 0 .2 1.3.2 2.8 0 1.7.9 3.7 2.3 4.9 1.2 1.2 10.5 6.2 20.5 11.2 13.4 6.6 19.4 9.1 22.2 9.1 2 0 19.2-4.9 38.1-10.9 28.8-9.2 34.8-11.4 36.7-13.7 2.5-2.8 2.5-7.1.2-10-1-1.1-13.5-6.7-34.4-15.5l-8.8-3.7 4.3-1.6c14.9-5.5 17.5-6.3 18.4-6.1.6.1 3.3.9 6 1.8m-72.7 18.3c-1.9 13.8-1.9 14.7-.2 16.5.9 1 2.3 1.9 2.9 1.9 2.8 0 36.1-10.4 37.6-11.7 1-.8 2-3.4 2.4-5.9.3-2.4.9-4.4 1.2-4.4.6 0 35.6 15.1 36.2 15.6.2.2-.2.6-1 .8-18 6-62.9 19.9-65.3 20.3-2.7.4-6.2-1-20.2-8.1-9.3-4.8-17.3-9.1-17.7-9.5-.5-.5 2.2-1.9 6-3.1 12.7-4.2 13.3-5 14.9-17 .8-6.9 2-10 3.7-10 1.1 0 1 2.6-.5 14.6m239.2-10c16.4 5.9 24.1 12 30.1 23.6 2.1 4.2 5.5 16.1 6.5 23l.6 4.8-8.8 4.1c-12.4 5.7-25.2 10.7-44.4 17.4-9.1 3.1-18.3 6.6-20.5 7.7-5.7 3-14.7 12.5-17.8 18.8-1.4 3-5.6 15.6-9.1 28-7.6 26.2-9.4 31.2-22.7 63.8-18.3 44.4-21.6 57.8-20.6 83.6.3 8.3.9 16.2 1.3 17.5.7 2.2.3 2.2-7.5-1.9-5-2.6-10.9-6.8-15.3-10.9l-7-6.6 4.5-3.2c2.5-1.7 5.3-4.3 6.2-5.7 3.9-5.9 2.7-16.3-2.5-21.4-1.5-1.6-5.7-3.9-9.2-5.2s-6.6-2.6-7.1-3c-.4-.3.4-5.3 1.7-11.1 1.3-5.7 2.7-12.6 3.1-15.2.4-3.1 1.6-5.9 3.4-8 5.3-6.1 17.4-23 24.1-33.6 5.9-9.5 7.4-11.1 14.1-15.7 13.6-9.3 19.7-20.3 22-40.1 2-16.5-1.7-37.1-8.8-49.2-3.3-5.7-9.6-12.5-14.1-15.3-1.9-1.2-6.2-2.9-9.5-3.8l-6-1.7 12.4-7.8c25.6-16.2 29.5-18.3 39.8-20.6 26.1-5.8 31-7.2 39.6-11.4 5-2.4 9.5-4.4 10.2-4.4.6-.1 5.7 1.5 11.3 3.5m-250.4 2.6c-.4 2.3-.8 4.3-.9 4.4S381.8 264 354 274c-39.1 14-52.2 18.3-58 19-9.2 1.1-12.9 2.4-15.5 5.5-1.4 1.7-7.4 4.3-21 9-10.4 3.7-21.7 7.8-24.9 9.1-3.3 1.3-6 2.3-6.1 2.1-.1-.1.2-3.7.7-7.9l1-7.6 7.2-2.7c3.9-1.5 14.5-5.3 23.6-8.5 33.5-11.8 60.8-21.8 64.1-23.5 1.9-.9 4.6-3.1 6-4.7 2.4-2.9 2.8-3 5.9-2 1.8.7 4.7 1.2 6.4 1.1 1.7 0 16.2-3.6 32.1-7.9 16-4.3 29.4-7.8 29.9-7.9s.6 1.8.2 4.1m327.9 43.5c1.9.9 3.5 1.9 3.5 2.2-.1 1.2-17.9 11.8-31.5 18.8-15.6 7.9-27.1 12.7-49.1 20.3-17 5.9-21.2 8.1-27.1 14.2-5.5 5.7-8.4 11.8-12.8 26.8-7.6 26.5-17.6 55.3-25.9 74.7-11.1 26.1-15.1 38.2-17.2 52.3-2.8 19.2-.5 48.8 5 65.2 1.3 4 2.3 7.5 2.1 7.7-.8.7-9.4-5-11.8-7.9-5.9-6.9-10.5-25.7-11.4-46-.9-23.1 2.4-36.7 18.9-77 14.7-35.8 17.5-43.8 26.2-74.5 9-31.5 9.3-31.7 52.8-47 18.5-6.5 38.5-15.5 55.3-24.8 13-7.3 16.6-8.1 23-5m-181.7 5.9c2.9 1.4 6.8 4.4 8.8 6.7 9.9 11.3 15.1 33.5 12.5 53.1-1.5 11.1-4.2 18.2-8.6 23.2l-3.5 3.9 3.6-7.2c3.1-6 3.5-7.5 2.4-8.8-1.7-2-4.3-1.9-6.2.2-.8 1-4.7 7.8-8.6 15.1-17.4 32.3-43 66.5-54.2 72.2-7.3 3.7-14.4 3.4-26.7-1.2-4.9-1.8-5.4-2.2-6.7-6.8-3.3-11-2.9-22.6 1.1-31.7l1.7-3.8.8 7.9c.8 8.9 2.8 12.9 6.1 12.4 2.1-.3 2.2-.7 2-9.8l-.3-9.5 1.9 5.2c1.1 2.9 2.3 7.3 2.6 9.8.9 5.4 2.5 7.1 5.4 5.5 3.1-1.6 2.7-7.3-1.4-19.6-1.9-5.7-3.5-11.2-3.5-12.1s4-9.1 9-18.2c11.5-21.4 14.6-28.3 21-46.6 8.7-25 15.9-38.2 22.3-41 5.2-2.3 12.6-1.9 18.5 1.1M311 306.2c3.1 1.6 8 4.9 11 7.4 9.4 7.8 14 9.7 29.5 11.9 9.9 1.4 15.3 3.1 13.9 4.4-.5.4-7.4 3.3-15.4 6.3-48.2 18.7-103 40.3-106.1 41.9-4.6 2.3-6.2 6.2-4.4 10.6 1.5 3.5.4 2.9 46.5 26.9 15.7 8.2 29.9 15 31.6 15.2 2.2.3 8.8-2.1 23.3-8.3l20.2-8.6 5.2 2.5c2.9 1.4 7.5 2.9 10.2 3.2 5.7.8 13.2 4.1 11.9 5.4-.5.5-7.4 3.8-15.4 7.3-8 3.6-42.4 18.9-76.5 34.2l-62 27.6-4.5-1.9c-2.5-1.1-31.3-14.3-64-29.4-32.7-15.2-76.8-35.5-98-45.2-21.2-9.8-38.8-18.1-39.3-18.5-.4-.4 7-3.5 16.5-6.9s36.5-13 60-21.5l42.8-15.4 1.5 2.4c1 1.5 9 6 21.6 12.3 18.2 9.1 20.6 10 25.7 10 4.9 0 10.2-1.8 40.9-14.1 31.9-12.7 35.5-14.4 36.9-17.1 1.8-3.4 1.1-7.9-1.4-10-.9-.8-9-4.5-18-8.3l-16.3-6.8 23.3-8.4c41.9-15.1 38.6-14.5 48.8-9.1m434 1.3c0 4.2-4.3 24.8-7.5 36.5-3.9 13.8-11.8 36.1-20.3 57.5-9 22.7-13.2 35-16.4 48-1.9 8.1-2.1 12-2.3 39.6l-.1 30.6-2.8 5.6c-3.3 6.8-10.5 13.5-23.6 22.2-23.3 15.4-54.6 28.6-71.7 30.2-6.1.6-6.3.5-9.7-2.9-5.5-5.5-9.2-21.4-10.3-44.8-1.1-23.8 2.2-38.3 16.6-72.3 11.7-27.6 16.2-40.3 24.2-67.7 7.2-24.5 9.9-30.9 15.1-35.6 4.7-4.2 8.6-5.9 27.3-12.4 24.9-8.5 45.7-17.9 62-28 15.4-9.6 17.8-10.9 18.6-10.4.5.3.9 2.1.9 3.9m-524.9 12.8c-1 7.6-2 14-2.2 14.2-.8.7-28 10.7-28.3 10.4-.2-.2.4-6.7 1.3-14.4l1.6-14 14.5-5.1c8-2.9 14.6-5.1 14.7-5s-.6 6.4-1.6 13.9m-36.4 2.5c-.3 1.6-1.2 8.6-1.8 15.6-1.5 14.6-1.1 16.2 4.2 16 3.4-.1 33.5-11.3 37.6-14 1.6-1 2.4-2.8 2.9-6.4.4-3.4 1.1-5 2.1-5 2 0 38.3 15.1 38.3 15.9 0 .4-14.5 6.5-32.2 13.5-22.5 9-33.8 13-37.3 13.3-4.7.3-6.3-.3-23-8.9-9.9-5.1-18-9.7-18-10.2s3.6-2.2 8-3.8 8.8-3.7 9.8-4.7c1.3-1.2 2.4-5.2 3.6-12 1.6-9.5 2.7-12 5.5-12.1.5 0 .6 1.3.3 2.8m236.3.3 5.5 3-4-.6c-10.1-1.4-14.6-1-15.2 1.4-.5 2-5.4 3.8-7.3 2.6-1.6-1-5.2.5-4.7 2 .8 1.9-4 3.6-8 2.9-2.9-.5-3.5-.3-4 1.4-.6 2.4-5.5 4.7-7.9 3.8-2.3-.9-5.4.2-5.4 2 0 1.9-6.9 4.7-8.5 3.4-1.7-1.4-4.5-.2-4.5 2 0 2-3.6 3.4-9 3.5-2.4 0-3.5.5-3.5 1.5 0 2-5.4 4.3-8.3 3.5-3.3-.8-6.2.3-5.5 2 .7 1.9-4 3.8-9 3.6-3.1-.1-4 .3-4.4 1.8-.6 2.5-5.3 4.1-9.8 3.4-3-.5-3.5-.3-3.5 1.5 0 2.6-6.6 5.5-9.3 4-2.4-1.3-4.7-.3-4.7 2s-5.6 4.4-9.8 3.6c-2.7-.6-3.3-.3-4.1 1.9-1.2 3-5.8 4.8-10.4 4-4.5-.7-6.8 1.8-3.9 4.2 2.3 2 56.7 30.5 58.1 30.5.6 0 7.9-3 16.2-6.6 14.6-6.4 17.8-7 18.2-3.9.1.9-28.8 13.8-33.6 15-1.6.4-11.9-4.5-37.1-17.7-19.1-10.1-34.9-18.7-35-19.2 0-.5 3.1-2.1 6.9-3.6 48-18.7 98.2-38.4 125-48.9 18.2-7.1 33.5-13 34-13 .6 0 3.5 1.3 6.5 3m-.2 10.6c-1 .2-2.6.2-3.5 0-1-.3-.2-.5 1.7-.5s2.7.2 1.8.5m19.7 4.3c2.8 1.6 8.6 4.9 13 7.4 10.5 6.1 13.2 6.7 30.7 7.5l14.8.6-4.6 9.4c-4 8.1-4.8 9.2-6.7 8.8-1.2-.2-7.1-1.4-13.1-2.7l-11-2.3-7.7 2.3c-8.5 2.4-12.1 2.4-25.9-.3-4.7-.9-10.7-2-13.5-2.4-8.3-1.3-5.8-2.8 5.6-3.3 11.3-.5 13.9-1.6 13.9-5.4 0-2.7-5.3-8-10-9.9-1.9-.8-6.1-1.8-9.2-2.1-6-.8-9 .2-15.3 4.8-1.6 1.3-3.8 2.5-4.8 2.9-3.5 1.3.1-3 6.5-7.8l6.3-4.8 9 .6c10 .7 11.8.1 11.3-3.4-.2-1.7-1.2-2.6-3.3-3.1-1.6-.4-.3-.4 3-.1 4 .3 7.7 1.5 11 3.3m-44.5 2c0 1.5-3.7 3.1-5.5 2.3-1.5-.5-1.4-.8.6-1.9 2.9-1.6 4.9-1.8 4.9-.4m-10.5 5.2c3.2 1.4 3.2 2.2 0 3.6-2.1 1-3.2.9-5.7-.4l-3.2-1.6 2.5-1.4c3-1.7 3.2-1.7 6.4-.2m-11.2 5.5c2.5.8 2.1 1.7-1.4 3-2.6 1-3.7.9-6.2-.4l-3.1-1.5 3-1.3c1.6-.8 3.6-1.1 4.4-.8s2.3.8 3.3 1M420 354c2.1.7 1.7.8-2.1.9-2.6.1-6.2.4-8 .7-3.2.5-3.3.5-1.5-1 2.1-1.7 7.4-1.9 11.6-.6m-62.5.8c-1.7 1.4-6.5 3.2-6.5 2.4 0-.5 1.2-1.3 2.8-1.9 3.4-1.4 4.9-1.6 3.7-.5m28.3 1.4c1.7 1.7 1.5 2.3-1.3 3.6-2 .9-3 .8-5.4-.6l-3-1.7 2.7-1.1c3.6-1.6 5.5-1.7 7-.2m17.8 3c-.3.7-.9 2.1-1.2 3-.7 2.1-2.6 2.3-5.6.7-2-1.1-1.8-1.2 1.8-2.9 4.7-2.2 5.7-2.4 5-.8m-33.1 6.6c5.4 2.8 12.7 10.4 18.9 19.8 2.8 4.3 6.6 8.8 8.4 10 4.7 3.2 22.6 9 39.5 12.8l2.7.6-1.9 3.8c-3 6-4.2 10.6-4.9 19.2l-.7 8.1-15-8.6c-8.2-4.8-18.9-10.9-23.7-13.6-6.2-3.6-10.3-5.3-14.6-5.9-8-1.1-12.8-3.8-22-12.1-10.2-9.4-14.5-11.3-24-10.5-8.5.7-8.7-.3-.5-3.4l5.7-2.1 6.8 2.2c6.5 2.2 6.9 2.2 8.6.6 2.5-2.5.6-4.7-6.4-7.5-5.8-2.4-11.6-2.6-16.9-.7-1.6.6-1.6.3.4-1.3 1.4-1.1 4.3-2.5 6.4-3.2 3.6-1 4.7-.9 11.9 2 8.7 3.5 10.8 3.4 10.8-.5 0-2.1-.9-2.9-5.7-5.1-3.2-1.4-7-2.8-8.5-3.1s-2.5-.9-2.2-1.4c1-1.7 5.4-.9 13.1 2.6 8.6 4 11.6 4.2 12.1.8.3-1.7-.6-2.7-3.7-4.3-2.3-1.1-4.1-2.2-4.1-2.5 0-.7 5.4 1.2 9.5 3.3m-39.4.2c-2.4 2.1-5.1 2.6-5.1 1.1 0-.5 1.2-1.4 2.8-1.9 4.2-1.6 4.9-1.3 2.3.8m61.1.5c1.6 1.1 1.6 1.3-.8 2.4-2.3 1-3 .9-5.1-1.1-2.2-2-2.2-2.3-.6-2.9 2-.7 3.8-.2 6.5 1.6m-68.2 5.7c0 .5-1.1 1.3-2.5 2-1.9.8-3.1.7-5.7-.5l-3.3-1.6 3.4-1.4c3.5-1.5 8.1-.6 8.1 1.5m82.9-.3 2.4 1.8-7.3 2.9c-7 2.7-7.3 2.8-8.6.9-2-2.8-1.9-3.1 3.4-5.3 5.9-2.6 7.1-2.6 10.1-.3m-95.4 6.1c-1 1.6-6.3 2.2-8.4.8-2.7-1.7-2.6-2.2.7-3.4 2-.8 3.4-.7 5.5.3 1.5.8 2.5 1.8 2.2 2.3m116.2-2.2c1.7 1.1-25.1 12.6-27.3 11.8-3.1-1.2-.6-3.2 10.2-7.8 10.7-4.6 14.7-5.5 17.1-4m45.6 1.3c5.6 1.2 10.5 2.3 11 2.6 2 1.2-3.1 4.9-12 8.8-5.4 2.3-14.2 6.2-19.6 8.7l-9.7 4.5-7.6-1.8c-10.2-2.4-22.4-6.1-22.9-6.8-.6-1.1 31.2-14.1 34.7-14.2 1.8 0 5.6-.9 8.3-1.9 6.4-2.4 5.8-2.4 17.8.1m-176.8 4.1c1.4.6 2.5 1.5 2.5 1.9 0 1.5-6.2 2.1-9.2.8l-3-1.2 2.4-1.3c2.9-1.7 4.1-1.7 7.3-.2m24.5.6c0 2-1.8 4.2-3.5 4.2-.6 0-2-.6-3-1.4-1.9-1.3-1.8-1.5 1.5-2.9 4.6-2 5-2 5 .1m-37.5 4.4c3.2 1.5 3.2 2.3-.4 3.8-2.4 1-3.4.9-6.2-.6l-3.4-1.7 3-1.3c3.8-1.6 3.9-1.6 7-.2m25.6 1.4c1.7.8 2.9 1.7 2.7 1.9-.1.2-4.5 2.2-9.7 4.4-8.9 3.9-9.4 4-12.3 2.5-1.6-.9-2.7-1.8-2.3-2.2.5-.5 16.9-7.8 18.3-8.1.2-.1 1.7.6 3.3 1.5m12 7.5c1.1 1.1 1.9 2.2 1.7 2.3-.1.2-4 1.7-8.6 3.6-7.3 2.9-8.5 3.1-11.2 2-1.7-.7-3-1.5-3-1.9 0-.5 16.5-7.8 18.3-8 .4-.1 1.6.8 2.8 2m152.8 4.3c-1.4 2.9-1.3 2.9-6 1.9l-3.3-.6 5-2.2c2.7-1.2 5-2.1 5.2-2 .1.1-.3 1.4-.9 2.9m-137.8 1.2c1.7.8 2.9 1.7 2.7 1.8-.1.2-1.7 1-3.4 1.9-2.8 1.4-3.2 1.4-6.3-.5l-3.3-2.1 2.9-1.3c3.7-1.7 3.9-1.6 7.4.2M50.5 418.3c24.8 11.5 90.5 41.8 134 61.7 9.9 4.6 24.1 11.1 31.5 14.5l13.5 6.2.3 6.7c.2 3.6.1 6.6 0 6.6-.4 0-6.1-2.7-97.3-45.5-87.9-41.3-107.2-50.3-109.5-51-1.7-.5-2-1.5-2-6.7 0-4.4.3-5.9 1.3-5.5.6.3 13.4 6.1 28.2 13m272.7-11.7 3.2 1.6-2.5 1.4c-3 1.7-5.1 1.7-8.4.2-3.1-1.4-3.2-2.2-.2-3.6 3.1-1.5 4.3-1.4 7.9.4m137 1 3.7.6-2.4 3.3c-1.4 1.7-3.5 5.8-4.6 9.1-2.7 7.4-3 23.3-.6 30.9.9 2.7 1.5 5.1 1.3 5.2-.2.2-3.3-1-7-2.6-7.5-3.4-8.3-4.6-9.2-14.9-1.1-11.1 2.3-23 8.4-29.5 2.7-2.8 4.1-3.1 10.4-2.1m-55.8 25.5c2.6 1.7 4.6 3.2 4.5 3.4-.9.8-166.4 76.4-169.1 77.2-1.6.5-1.8-.2-1.8-5.9v-6.5l44.3-19.6c24.3-10.9 60-26.9 79.2-35.6 19.3-8.8 35.7-15.9 36.5-16 .8 0 3.7 1.3 6.4 3M54 553.1V666l-5-2.8-5-2.7V436.1l5 2.1 5 2.1zM68 447l4 2v211.9l-4.3 2.6c-2.4 1.4-4.7 2.5-5 2.5-.4 0-.7-49.7-.7-110.5 0-75.8.3-110.5 1-110.5.6 0 2.9.9 5 2m368.4 6.4c2.3 3.9 3.6 4.8 11.3 8.2 7.1 3 10.2 3.8 15.8 3.9 3.9.1 8.2.7 9.7 1.3 10.5 4.2 22.3 3.4 30.6-2.2l4.9-3.2-1.2 5c-2.1 8.9-3.6 13.6-4.1 13.6-.3 0-6.3-1.8-13.2-4-17.1-5.3-29.6-8.5-42.3-10.6-12.5-2.1-17.8-1.4-28.4 4l-6.5 3.3v-3.9c0-7.7 4.4-14.7 11.5-17.9 6.6-3.1 8.9-2.6 11.9 2.5m25.1 23c24.9 6.1 56.1 16.2 60.5 19.6l2.3 1.8-5.4 3.1c-9.2 5.2-9 5.3-40.4-4.3-15.7-4.8-35.5-10.5-44.2-12.7-8.6-2.2-15.9-4.2-16.1-4.4-.5-.5 5.3-3.4 11.3-5.7 6.6-2.4 13.8-1.9 32 2.6m-53.4 11.1c.6 4.9 2.3 8.1 5.2 9.9 1.2.8 9.9 3.8 19.2 6.6 9.4 2.9 17.3 5.5 17.7 5.8.3.4 2.3 9.5 4.3 20.2s3.9 20.3 4.2 21.4c.4 1.6.1 1.8-2.3 1.2-6.1-1.6-37.6-6.5-50.6-8-19-2.2-22-3.5-40.9-17.4-2.2-1.7-5.9 0-5.9 2.8 0 1.9 7.6 8.8 14 12.8 4.9 3.1 1.2 2.9-6.5-.3-7.2-3-8.1-3.1-9.5-.6-1.5 2.9-.3 4.7 4.5 7 5.9 2.7 11.8 4 18.6 4.1h5.6l1.2 7.4c2.3 14.1 3.1 31.2 2.5 53.6-.5 16.5-.2 29.5 1.1 48.8 1.3 19.7 1.4 26.6.6 27.6-3.2 3.8-19.3 4.7-29.3 1.6-8.2-2.5-18.6-9.1-19.2-12.2-.2-1.3-.9-11.8-1.6-23.3-1.1-21.5-2-31.4-6.4-70.5-1.3-12.4-3.2-29.5-4.2-38-3.4-31-2.2-39.7 6.8-49.5 6.5-7.1 14.6-11.2 25.3-12.5 9.4-1.2 34.1-2.8 40.5-2.6 4.5.1 4.5.1 5.1 4.1m45.4 10.1c16 4.6 34.2 10 40.5 12 13.4 4.2 16.7 4.1 26.2-.7 6-3 6.1-3 4.6-.8-.8 1.3-3.7 3.7-6.3 5.4-8.2 5.1-11.5 4.6-53-7.8-47-14.1-48.2-14.5-48.9-16.3-.9-2.4 4.1-1.3 36.9 8.2m17.8 17.9 7.2 2.3.8 4.4c.4 2.3 3.2 20.3 6.3 39.8 6.2 40.1 6.1 39.2 8.4 44 2.3 4.5 4.7 6.7 9.6 8.4l3.9 1.4-2.8.7c-4.6 1.2-11.4-.1-18.1-3.4-5-2.4-6.8-3.9-8.1-6.8-1.8-3.7-3.7-13-13.8-66l-5.3-28.2 2.3.5c1.3.4 5.6 1.7 9.6 2.9m-220.5 98.8c.2 52.9 0 108-.4 122.5l-.6 26.2-4.3 2.5c-2.3 1.4-4.4 2.5-4.6 2.5s-.3-46.2-.2-102.8c.2-56.5.3-111.8.3-123v-20.3l4.3-1.9c2.3-1 4.4-1.9 4.7-1.9.3-.1.6 43.2.8 96.2m-23.5-92.8 4.7 2v122.2c0 67.3-.3 122.3-.6 122.3s-2.8-1.2-5.5-2.8l-4.9-2.7V640.7c0-67 .4-121.7.8-121.5.4.1 2.9 1.2 5.5 2.3m280.9 3.4c4.5-.3 4.8-.1 13.1 7.7 9 8.5 18.2 14.5 26.2 17 4.9 1.6 5.1 1.8 6.7 7.3.9 3.1 2 6.4 2.3 7.3 1.9 4.9-31.5 5-51.4.1l-11.5-2.8-2.7-17.5c-1.5-9.6-3-18.9-3.2-20.6l-.5-3.1 8.1 2.4c4.7 1.3 10.2 2.3 12.9 2.2M684 555c0 7.4-2.8 12.3-10.2 17.9-1.7 1.3-1.8.8-1.8-7.1v-8.5l5.3-3.6c2.8-2 5.5-3.6 6-3.6.4-.1.7 2.2.7 4.9m-279.6-2.4c1.3.5 1.2 1.1-.6 4.6-4.6 8.8-3.2 19.7 3.4 27.3l4 4.5.1 18.8.2 18.7-3-.2c-1.6-.1-4.8-.5-7-.8l-4-.5-.1-25.3c0-22.5-.5-29-3-44l-.7-3.7h4.6c2.5 0 5.2.3 6.1.6M436 557c23.1 4.1 25 4.6 25 7 0 1.1-.5 2-1 2-.6 0-6.5-1.5-13.3-3.4-18.7-5.2-22.5-5.9-28.4-5.3-5.4.6-5.5.5-3.7-1.4.9-1 2.2-1.9 2.8-1.9s9 1.4 18.6 3m227.8 17.8c-.6 13.8-2.3 19.7-6.7 23.7-2.1 1.8-16.4 10.5-16.8 10.2-.1-.1.5-2.6 1.3-5.5.7-3 1.6-11.1 2-18.1l.7-12.7 9.6-5.1c5.3-2.8 9.8-5.1 10-5.2s.2 5.7-.1 12.7M446 570.6c9.1 2.6 16.7 4.9 16.9 5 .6.5 4.2 18.7 3.7 19.1-.2.2-7-1.6-15-4.1-8.1-2.5-18.2-5-22.4-5.6-12.2-1.9-12.4-2-15.9-5.6-4.6-4.9-4.6-9.6 0-12.5 4.7-3 12.9-2.1 32.7 3.7m61.3 2.4c16.8 4 37.1 4.4 49.7 1 4.2-1.1 4.3-1.1 7.9 2.4 4.4 4.3 13.1 8.4 19.7 9.2 7.8 1 8.2 1.9 1.7 3.8-7.4 2.3-29.3 3.2-38.8 1.7-3.8-.6-15.1-3.5-25-6.5s-19.9-5.9-22.1-6.5c-3-.8-4.3-1.8-4.8-3.4-1-3.8-.7-4.9 1.2-4.3.9.3 5.7 1.5 10.5 2.6m128.7 5.7c-.1 6.1-2 22.7-3.1 26.3-.7 2.2-2.4 5.1-4 6.6-2.4 2.3-3.2 2.5-6.8 1.9-2.3-.4-4.1-1-4.1-1.3 0-.4 2.1-1.8 4.7-3.2 8.1-4.3 9.4-7.4 10.9-25.3.3-4.2 1-7.7 1.5-7.7s.9 1.2.9 2.7M624 596c-1 3.7-1.7 4.3-9 8-35.6 17.9-54.6 19.5-92.5 7.8-18.5-5.6-20.1-6.4-21.8-10.6-1.7-4.3-3.3-15.2-2.2-15.2.4 0 8.2 2.3 17.4 5.1 23.1 7.1 32.3 8.9 46.4 8.9 18 0 31.8-3.6 53.7-13.9l8.5-4 .3 4.9c.2 2.7-.2 6.7-.8 9m-180.2.6c6.4 1.9 13.1 3.9 14.7 4.4l3.1 1-.3 16.3c-.5 23.6-.7 24.5-5.1 26.4-8.3 3.5-22.4-.5-31.7-9l-4.6-4.2-.2-19.9-.2-19.8 6.3.6c3.5.4 11.6 2.2 18 4.2m115.5 31 3.7.7V642h-11v-4.4c0-2.4-.3-5.8-.6-7.5-.6-2.8-.4-3.1 1.7-3.1 1.3 0 4.1.3 6.2.6m-151.8 7c4.3.6 5.9 1.5 11.2 6.5 3.4 3.2 9.3 7.3 13 9.1 6.3 3.1 7.5 3.3 16.8 3.3 5.5 0 10.3.4 10.7 1 .4.5.8 5.6.8 11.3v10.3l-3.5 1.5c-1.9.7-5.6 1.4-8.2 1.4-8.6 0-12.2-1.7-19.3-8.9-5.8-5.9-7.4-6.9-15-9.5-4.7-1.6-10.2-3.8-12.2-4.9-3.8-2.1-3.8-2.1-3.8-8.6 0-3.6-.3-8.3-.7-10.5-.6-3.8-.6-3.8 2.3-3.3 1.6.4 5.2.9 7.9 1.3M553.3 650c3.5.7 10 0 14-1.5 1.6-.7 1.7.4 1.7 13.6 0 16.7-.3 18.3-3.6 19.8-5.3 2.4-16.4 1-18.6-2.3-.4-.6-.8-8-.8-16.5 0-14.2.1-15.3 1.8-14.6.9.4 3.4 1.1 5.5 1.5m-36.6 13.2 20.8 8.3.5 5.7c.6 6.6 2.5 9.2 9 12.1 8.6 3.9 22.1 1.8 27.4-4.2 1.2-1.3 2.1-4.1 2.4-7.6l.4-5.4 12.2-4.4c38-13.9 42-14.9 43.3-11 .2.6-9.4 6.1-21.3 12.2-21.3 10.8-21.9 11-25.6 9.9-2.9-.8-4.1-.8-5.3.2-1.9 1.5-1.9 4.4-.1 5.9.7.6 14.8 5.2 31.2 10.2 60.7 18.5 67.7 20.8 69.6 22.7 1.1 1.1 2 3.5 2.1 5.3.2 2.9-.2 3.5-2.1 3.7-1.6.2-2.9-.4-3.8-1.7-2.7-3.7 3.3-2.2-78.2-19.6-11.7-2.5-22.6-4.5-24.3-4.5-2.6 0-2.9-.3-2.4-2 1.4-4.4-3.6-8-6.4-4.6-1 1.2-4.5 33.3-6.6 60.1-1.1 14.3-1.4 15.5-4 15.5-1.3 0-2.7-.5-3-1.1-.4-.6-1.3-17.3-2.1-37.1-.9-23.7-1.7-36.5-2.5-37.4-2.6-3.2-6.9-.8-6.9 3.8 0 2.3-.4 2.8-2.5 2.8-4.3 0-98.9 19.6-101.6 21-1 .6-2.3 1.9-2.9 3-.6 1.2-2.1 2-3.5 2-2.2 0-2.5-.5-2.5-3.3 0-1.8.7-4.2 1.5-5.5 1.8-2.4.1-1.9 59-19.2 22.6-6.6 42.2-12.5 43.7-13.1 3.2-1.3 4.2-3.4 2.8-6-1.2-2.1-2.7-2.4-6.3-1-2.1.8-4.6-.3-17.8-8.1-8.5-4.9-17.1-9.9-19.2-10.9-3.3-1.7-3.6-2.2-2.6-4 1.5-2.9 3-2.5 27.6 7.3m122.5 9.1c1.3 2.1.9 7-.9 8.9-2 2.2-7 2.3-9.5.1-3.6-3.2-1.7-9.9 3.2-11.5 1.8-.6 6.2.9 7.2 2.5m-146.9-1.1c4.7 3.7 1.6 11.8-4.5 11.8-1.7 0-4-.7-5-1.7-2.2-2-2.3-7-.1-9.5 1.9-2.1 7.1-2.4 9.6-.6m16.9 7.9c2.9 1.7 5.5 3.3 5.7 3.4.1.2-1.4.8-3.5 1.4-2.2.6-6.1 1.8-8.7 2.6l-4.8 1.4 2.1-2.9c1.1-1.5 2.3-4.2 2.6-5.9.4-1.7.8-3.1 1-3.1s2.7 1.4 5.6 3.1m-152.3 20.1c4.5 1.8 7.6 2.2 16.6 2.3 6.1 0 12.2-.3 13.6-.7 3.5-1 3.8-.1 4.6 13.2l.6 10.8-2.9 1.8c-2.1 1.5-5.1 2-12.9 2.2-11.3.4-15.2-.6-15.7-4-.5-3.8-4.2-4.3-22.6-3-19.2 1.4-25.7.6-36.6-4.8-9-4.4-13.6-8.5-13.6-11.9 0-5.2 2.8-6.4 16.7-7.2 14.3-.9 20.3-2.1 28.8-5.8l6-2.7 5.9 3.8c3.2 2 8.3 4.7 11.5 6m74.5 37.2c8.6 3.6 5.8 16.6-3.6 16.6s-12.3-11.9-4-16.4c3.4-1.9 3.6-1.9 7.6-.2m258.6 2.2c6.6 6.4-.9 17.6-9.5 14-7.4-3.1-7.6-12.9-.2-16.1 3.8-1.7 6.4-1.1 9.7 2.1m-128.5 42.9c7.1 7.1-.5 19.2-9.7 15.4-6-2.5-7.5-10.3-2.9-15 3.8-3.8 9.1-4 12.6-.4M412.3 69.7c-1.6.6-1.7 3-.2 3.5s2.5 13.8 1 13.8c-.6 0-1.1.9-1.1 2s.6 2 1.3 2c2.1 0 4.7-3.4 4.7-6.1 0-1.4.5-3 1.2-3.7.9-.9.9-1.7 0-3.4-.6-1.3-1.4-3.3-1.7-4.6-.7-2.4-3.3-4.2-5.2-3.5m-28.5 6.4c-1.1.6-1.8 2.2-1.8 4.1 0 1.7-.8 4-1.7 5.1-1.7 1.8-1.7 1.9 0 3.2.9.6 1.7 2.4 1.7 3.8 0 3.1 3.5 5.6 5.3 3.8.8-.8.7-1.7-.2-3.4-1.5-2.8-1.8-7.9-.7-13.5.8-4.3.4-4.9-2.6-3.1m-19.1 2.5c-.4.4-.7 33.5-.7 73.5 0 64.8.2 72.9 1.6 74.3.8.9 1.9 1.6 2.3 1.6 3 0 3.1-2.9 3-64.5-.1-34.1-.4-67.2-.8-73.5-.6-10.6-.8-11.5-2.6-11.8-1.2-.2-2.4 0-2.8.4m33.8 1.8c-6.4 1.6-7.5 2.2-7.5 4.8 0 2 .4 2.1 6.6 1.5 7.3-.7 11.7-2.9 11.2-5.5-.4-2.2-3.9-2.4-10.3-.8m39 8.7c-9.9 2.1-19 4.3-20.3 4.9-3.1 1.4-2.7 5.4.6 5.8 2.6.4 36.7-6.5 39.5-7.9.9-.6 1.7-1.8 1.7-2.7 0-1.7-1.8-4.3-2.9-4.1-.4 0-8.7 1.8-18.6 4m27 7.1c-21.9 4.6-37.6 8.5-38.5 9.4-2.4 2.4 0 4.9 4.6 4.8 6.3-.3 75.8-15.4 77.3-16.9.8-.7 1-2.1.6-3.4-.5-1.6-1.4-2.1-3.8-2-1.8.1-19.8 3.7-40.2 8.1m-65.9 1.2c-6.2 1.7-8.1 4.1-5.1 6.6 2.5 2.1 15.8-.8 16.9-3.6 1.6-4.2-3-5.3-11.8-3m7.7 11.1c-5.7 1.2-11 2.8-11.8 3.5-2 1.6-1.9 4.9.1 5.7 1.3.5 16.4-2.3 23.6-4.3 2.2-.7 3.3-4.1 1.8-5.9s-.9-1.8-13.7 1m65.8-1c-5.1 1.2-7.1 2.6-7.1 5.2 0 1.7 2.9 3.1 5.4 2.6 9.7-2.2 11.3-3.3 10-6.7-.8-2.2-2.4-2.4-8.3-1.1m-41 8.9c-23.7 5.2-26.2 6.2-24.8 10 .4.9 1.7 1.6 3.1 1.6 4.5 0 49.1-10.1 50.5-11.5 2.2-2.1.5-5.5-2.7-5.4-1.5.1-13.2 2.4-26.1 5.3m46.9 2.8c-9.6 2.2-18.1 4.5-18.8 5.1-2.1 1.7-1 5.2 1.8 5.5 3.2.4 38-7.5 39.8-9 .7-.6 1.2-2.1 1-3.2-.5-3.2-4.2-2.9-23.8 1.6m-50.5 11.2c-9.9 2.2-18.6 4.5-19.2 4.9-1.7 1.1-1.7 4.2 0 5.5.8.7 7.3-.3 22.1-3.6 21.2-4.8 23.7-5.8 22.3-9.6-.9-2.3-4.7-1.9-25.2 2.8m-33.1 15.8c-.4.6.1 1.7 1 2.4 2 1.4 2.5 10.9.7 12.7-1.6 1.6-1.3 3.7.3 3.7 2.4 0 4.6-2.9 4.6-6 0-1.6.4-3.1.9-3.4 1-.7-1.7-8.7-3.4-9.8-1.5-1.1-3.3-1-4.1.4m82.8 1.4c-1.4 1-2.2 2.6-2.2 4.4 0 1.6-.4 3.2-1 3.5-.6.4-.6 1.2 0 2.3.5.9 1.1 2.9 1.5 4.4.4 2.2 1.1 2.8 3 2.8 1.6 0 2.5-.6 2.5-1.5 0-.8-.4-1.5-1-1.5-1.4 0-1.2-11.4.2-12.8 2.1-2.1-.4-3.4-3-1.6m-14.2 4.1c-2.7.9-4 3.6-4 8.6 0 6.1 1.4 8.7 4.5 8.7 3.2 0 4.9-3.2 4.9-9.3 0-5.1-2.6-8.9-5.4-8m2 8.8c0 5.4-1.2 7.9-2.4 4.9-.8-2.1-.8-9.9 0-10.7 1.5-1.5 2.4.7 2.4 5.8m-29.6-1.2c-.3.8-.4 1.8-.3 2.3s.1 2.8 0 5.1c-.1 3.3-.4 4.1-1.6 3.7-1.8-.7-2-3.5-.4-5.1.9-.9.7-1.6-.6-2.9-1.7-1.7-1.8-1.7-3 0-1.4 1.8-1 8.3.5 9.9.4.5 2.4.5 4.4.2l3.7-.7-.2-6.4c-.2-6.2-1.3-9.1-2.5-6.1m15.9-.6c-2 .4-2.3 1.1-2.3 5.4 0 3.6.4 4.9 1.4 4.9s1.6-1.3 1.8-3.8c.4-4.6 2.2-4.9 2.6-.4.2 2 .8 3.2 1.5 2.9 1.6-.5 2.1-5.1.7-7.7-1.1-2-1.5-2.1-5.7-1.3M441 162c-3.4 3.4-2.1 9 2 9 3.9 0 6.6-7 3.8-9.8-1.7-1.7-3.5-1.5-5.8.8m3.8 3.2c-.4 2.7-2.8 3.6-2.8 1 0-2 .8-3.2 2.2-3.2.5 0 .8 1 .6 2.2m48.2-1.1c-6.3 1.6-27.8 6.9-47.8 11.8s-36.8 9.3-37.4 9.9c-1.6 1.6.1 5.2 2.5 5.2 5-.1 96-22.8 97.5-24.4 1.3-1.3 1.4-2 .6-3.4-1.6-2.4-2.6-2.4-15.4.9m-71.3 2.7c-2.1 2.3-2.2 5.5-.2 7.2 1.9 1.6 6.5.5 6.5-1.5 0-1.2-.7-1.4-2.6-.9-2.2.6-2.5.4-2.2-1.2.2-1.1 1.3-2 2.6-2.2s2.1-.9 1.9-1.5c-.6-2-4.2-1.9-6 .1m-25.7 3.4c-2.2 3.7-2.5 4.8-1 4.8.6 0 .9.3.9.7-.1.5-.1 2 0 3.5.2 4.2 3.1 2.5 3.1-1.7 0-1.9.5-3.7 1-4 .6-.3 1 .4 1 1.7 0 3.9 1.4 5.1 4.9 4.3 3.8-.8 4.6-2.3 3.7-7.1-.9-4.5-3-4-3.4.9-.4 4.7-2.2 4.8-2.2.2 0-2.4-.5-3.5-1.5-3.5-.8 0-1.5.5-1.5 1.1 0 .5-.5.7-1 .4-.8-.5-.8-1.1-.1-1.9 1.1-1.3.5-2.6-1.1-2.6-.4 0-1.7 1.5-2.8 3.2m17.3-2.5c-2 .4-2.3 1.1-2.3 5.4 0 3.7.4 4.9 1.5 4.9 1 0 1.5-1 1.5-3.4 0-4.5 1.8-5.6 2.2-1.4.4 4.8 2.3 3.6 2.3-1.4 0-4.5-.7-5-5.2-4.1m49.4 15c-1.1 1-.8 3.5.3 2.8.6-.4 1 1.4 1 4.5 0 7.7 2.4 6.1 2.8-1.8.3-5.5.1-6.2-1.6-6.2-1 0-2.2.3-2.5.7m5.6 1.9c-.9 2.3 1.1 3.8 2.6 2 1.3-1.6.7-3.6-1-3.6-.5 0-1.2.7-1.6 1.6m-16.2 3.3c-3 .8-4 3.1-1.4 3.1 3.4 0 6.3-1.2 6.3-2.6 0-1.5-1.1-1.6-4.9-.5m-11.1 3.2c0 .6-.8.8-1.9.4-2.4-.7-3.7 1.1-2 3.1.9 1.1.9 2 0 4.1-1.4 3.1-.8 4.1 1.5 2.2 1-.8 2.5-1.3 3.6-1.1 2 .4 2.4-1.8.7-3.5-.8-.8-.8-1.7 0-3.1 1.4-2.7 1.4-3.2-.4-3.2-.8 0-1.5.5-1.5 1.1m27.8-.6c-.7.8.3 5.5 1.2 5.5s2-2.5 2-4.6c0-1.4-2.1-1.9-3.2-.9m-16.5 1.6c-3.1.9-4.2 2.3-2.5 3.2 1.5.8 7.2-1.4 7.2-2.8 0-1.7-.2-1.7-4.7-.4m-24.5 1.6c-2.4.6-2.6 10.3-.3 10.3 1 0 1.5-1 1.5-3.1 0-1.8.7-3.7 1.7-4.4.9-.7 1.3-1.7.9-2.3-.7-1.2-.9-1.3-3.8-.5m-10.5 2.6c-2 .7-3.6 2.1-4.2 3.7l-1 2.5-.6-2.3c-.8-2.4-3.5-3.1-3.5-.8 0 2.7 3.1 8.7 4.3 8.3.6-.2 1.8-2.1 2.6-4.3.8-2.1 1.5-3.9 1.5-4 .1-.1 1.5-.4 3.1-.8l3-.6-2.7 1.5c-2.9 1.6-3.8 5.2-1.5 6.1.8.3 2.6 0 4-.5 2.2-.9 2.7-1.7 2.7-4.4 0-3.3-1.5-5.8-3.4-5.6-.6.1-2.6.7-4.3 1.2m4.7 5.7c0 .5-.5 1-1.1 1-.5 0-.7-.5-.4-1 .3-.6.8-1 1.1-1 .2 0 .4.4.4 1m-39.7 2.6c-.3.9 0 2 .7 2.4 1.7 1.1 1.7 11.4 0 13.5-1.9 2.3.1 4.1 2.9 2.6 1.5-.8 2.1-2.1 2.1-4.4 0-1.8.6-3.9 1.2-4.5 1-1 1-1.7 0-3.2-.6-1.1-1.2-2.8-1.2-3.8 0-3.7-4.5-5.7-5.7-2.6M297.5 78c-8.2 2.1-38.6 9.5-67.5 16.5-127.5 30.8-138.5 33.6-140.5 35.6-2 1.9-2 3-1.6 101.2.2 58.2.7 99.9 1.2 100.9.6 1 1.9 1.8 3.1 1.8 2.8 0 36.3-11.6 149.8-52 9.1-3.2 30-10.6 46.5-16.5 19.7-6.9 30.6-11.3 31.8-12.6 1.6-2 1.7-7.7 1.7-88.6 0-57.7-.3-87.1-1-88.4-1.5-2.8-5.9-2.4-23.5 2.1m16.5 87.3v82.4L282.3 259c-17.5 6.2-37.4 13.3-44.3 15.7-6.9 2.5-27.1 9.6-45 16-56.6 20-94.8 33.3-95.9 33.3-.8 0-1.1-26.5-1.1-94.3v-94.3l42.3-10.2c23.2-5.7 71.5-17.4 107.2-26.2 35.8-8.7 65.8-15.9 66.8-15.9 1.6-.1 1.7 4.5 1.7 82.2m-157.1-34.7c-1.1 1.4-1 1.8.5 3 1.5 1.1 1.9 2.6 1.8 7.5-.1 3.4-.6 6.7-1.1 7.2-1.7 1.7-1.3 3.7.7 3.7 2.6 0 4.2-2 4.2-5.2 0-1.6.6-3.7 1.2-4.8 1-1.6 1-2.4 0-4-.6-1.1-1.2-2.8-1.2-3.9 0-2-2.4-5.1-3.9-5.1-.5 0-1.5.7-2.2 1.6m-30.3 8.6c-.9 1.2-1.6 3.6-1.6 5.3s-.5 3.6-1.2 4.3c-.9.9-.8 1.6.4 2.9.9 1 1.8 3.1 2 4.8.2 2.4.8 3.1 3.1 3.3 2.1.3 2.7-.1 2.7-1.7 0-1-.5-2.1-1.1-2.3-1.6-.5-1.6-13.3 0-15.2.7-.8 1-2 .6-2.6-1-1.7-3.3-1.1-4.9 1.2m-18.9 1.5c-.9.8-.7 148.5.2 161.2.5 7.5 1 9.6 2.4 10.5 1.5.9 2.1.7 3.3-.9 1.3-1.7 1.4-12.6.9-84.5-.4-45.4-.8-83.5-1.1-84.8-.3-1.5-1.2-2.2-2.8-2.2-1.2 0-2.6.3-2.9.7m35.3 1c-6.3 1.7-8 2.8-8 5.3 0 2.7 2.3 3.1 8.7 1.4 8.9-2.2 10.5-3.1 10.1-5.7-.4-2.8-3.3-3-10.8-1m91.7-.5c-2.1 1.6-4.3 12.4-2.9 14.1.6.7 1.2 2.3 1.4 3.7.2 1.9 1 2.6 3.1 2.8 2.1.3 2.7-.1 2.7-1.7 0-1-.5-2.1-1-2.3-1.5-.5-2-11.8-.7-14 1.6-2.4-.3-4.3-2.6-2.6m-16 5.4c-.3.4.1 2 1 3.7 1.2 2.4 1.4 4.7.9 10s-.3 6.8.6 6.5c3.6-1.2 5-11.1 2.4-17.3-1.4-3.2-3.4-4.4-4.9-2.9m-13.2 4.8c-2.3 3.4-2.9 8.5-1.6 13.3 1.2 4.6 2.4 5.8 4.6 4.9 1.2-.4 1.2-1.1-.1-4.3-1.6-3.7-1.5-10.3.1-14.6 1-2.6-1.2-2.1-3 .7m-43 4.6c-25.3 6.8-26.5 7.3-26.5 9.9 0 4.3 2.7 4 28.5-2.8l25-6.6v-3c0-2.5-.4-3-2.5-3.2-1.4-.1-12.4 2.5-24.5 5.7m49.1-.5c-2 3-2 4.5-.1 4.5.8 0 1.5.7 1.5 1.5 0 2.1 1.9 1.9 2.7-.3.3-.9 1.2-2.4 2-3.3 1.2-1.4 1-1.8-1.1-3.3-3.2-2-3.1-2.1-5 .9m54.4 2.2c-6.9 1.8-24.2 6.5-38.5 10.4-14.3 3.8-27 7.4-28.2 7.9-2.7 1.1-3.1 5.5-.7 6.4.9.3 8.4-1.2 16.7-3.5 54.8-14.7 67.4-18.2 68.6-19.4.8-.8 1-2.1.6-3.4-.9-2.8-3.3-2.6-18.5 1.6m-78.9 4.8c-9 2.6-11.8 4.4-10.8 6.9 1.1 2.9 3.4 2.8 13.4-.1 9.6-2.8 9.8-2.9 9.8-5.8 0-3.9-1.6-4-12.4-1m-25.5 7c-6.3 1.8-8.4 4.8-5.2 7.4 1.1 1 2.8.8 7.7-.6 6.9-2 9.1-4.2 7-6.7-1.6-1.9-2.9-1.9-9.5-.1m9.9 13.5c-14.5 4.1-17.3 5.7-15.4 9.1.5 1.1 1.5 1.9 2.2 1.9 2.5 0 31.1-8.1 32.4-9.2.8-.6 1.3-2.1 1.1-3.2-.5-3.2-4.6-2.9-20.3 1.4m19.1 8c-17.5 4.9-32.6 9.5-33.4 10.3-1.8 1.9-.7 5.7 1.7 5.7.9 0 14-3.4 29.1-7.5 39.6-10.8 37.8-10.3 38.5-12.6.7-2.1-1-5-2.9-4.8-.6.1-15.5 4.1-33 8.9m-45.2 24.2c-.4.6.1 1.7 1 2.4 1.4.9 1.8 2.7 1.7 7.4 0 3.4-.5 6.8-1.2 7.6-.9 1.1-.9 1.8-.1 2.6 1.8 1.8 5.2-1.9 5.2-5.7 0-1.7.6-3.7 1.2-4.3 1-1 1-1.7 0-3.2-.6-1.1-1.2-2.8-1.2-3.8 0-3.5-4.9-5.8-6.6-3m79.4.9c-1.2.7-1.8 2.2-1.8 4.7 0 2.1-.5 4.3-1.2 5-.9.9-.9 1.7 0 3.4.6 1.3 1.2 3.2 1.4 4.3.4 2.3 3.5 3.2 5.1 1.6.9-.9.8-1.4-.1-2-1.6-1-2.6-12.7-1.2-13.6 1.2-.7 1.3-4.5.3-4.5-.5 0-1.6.5-2.5 1.1m-89.5 2.5c-.3.9-.1 1.9.4 2.3 2 1.2 2.5 8.5.9 13.1-1.8 5.1-1.3 6.4 1.7 4.9 3-1.6 3.7-2.8 3.7-6.5 0-1.6.6-3.6 1.3-4.3 1-1 .9-1.5-.5-2.5-1-.8-1.8-2.6-1.8-4.4 0-3.9-4.4-6-5.7-2.6m72.2 5.9c-2 2-2.5 3.4-2.5 7.8 0 6.5 2.2 10 5.6 9.1 2.8-.8 4.4-4.4 4.4-10.2 0-4.6-2.1-9.2-4.1-9.2-.5 0-2.1 1.1-3.4 2.5m4.1 4c.3 1.9.3 5.2-.1 7.2-.6 3.5-.8 3.7-2.1 1.8-1.4-1.9-1.8-7.3-.8-11.2.8-3 2.2-2 3 2.2m55.4-2.7c-8.4 3-10.6 4.1-10.8 5.8-.6 4.5 1.9 4.7 13.6.9 11.5-3.7 13.9-5.7 11.2-9-1.6-2-1.9-1.9-14 2.3m-70.7 5.2c-2 .8-2.3 1.7-2.3 6 0 4.4.2 5 2.1 5 1.8 0 2-.5 1.7-3.7-.2-2.2.2-3.8 1-4 .8-.3 1.2.6 1.2 2.6 0 3.3 1.6 4.9 3.2 3.3.8-.8.8-2.5.2-5.4-1-4.6-2.8-5.6-7.1-3.8m-16.6.7c-.4.3-.7 1.5-.7 2.5 0 2.6 2.4 1.7 2.8-1 .3-2.1-.8-2.9-2.1-1.5m66.3.7c-.3.2-20.9 7-45.9 15s-46.1 15.2-46.9 16c-1.7 1.7-.7 5.6 1.4 5.6 1.7 0 92.1-28.8 94.7-30.2 2.5-1.3 1.9-6.2-.8-6.6-1.2-.2-2.3-.1-2.5.2m-59.7 2.1c-4.3 3-3.6 10.5 1.1 10.5 3.1 0 5.6-3 5.6-6.6 0-5-2.8-6.6-6.7-3.9m3.5 4.7c-.4 2.7-2.8 3.6-2.8 1 0-2 .8-3.2 2.2-3.2.5 0 .8 1 .6 2.2m-17.3-2c-.6 1.3-2.1 2.4-3.5 2.6-3.8.6-6 3.1-6 6.8 0 2.2.6 3.7 1.8 4.2 2.1 1.2 5.7-.1 6.5-2.2.7-1.8-.8-3.2-1.8-1.6-1.2 2-3.7 1.1-3.3-1.3.2-1.3 1-2.2 2-2.2.9 0 2-.4 2.4-.8 1.5-1.4 2.3-.6 2.6 2.5q.3 3.3 2.1 3.6c1.9.4 3.7-3 1.9-3.6-1.5-.5-1.6-3.4-.1-4.9.8-.8.6-1.7-.7-3.2-2.3-2.6-2.7-2.6-3.9.1m7.8-.5c-1.9.7-1.7 10.3.1 10.3 2.2 0 2.6-1.2 1.8-6.2-.5-2.9-1.1-4.3-1.9-4.1m-26.2 7.4c-1.8.7-2.2 1.4-1.7 3.2.3 1.2.6 3.4.6 4.9 0 4.8 2.8 3.4 3.2-1.5s2.2-5.6 2.6-1c.2 2.1.9 3.3 1.8 3.3 1.2 0 1.4-1.1 1.2-4.8-.3-4.2-.6-4.7-2.8-4.9-1.4-.1-3.6.2-4.9.8m-15.3.6c-2.3.6-3.7 5.2-3.1 10.7.5 3.6.9 4.6 2.2 4.4 1.2-.3 1.5-1.3 1.3-4.1-.2-2.2.1-3.7.7-3.7s1.1-.7 1.1-1.5-.5-1.5-1.2-1.5c-.6 0-.3-.6.8-1.4 2.1-1.6 1-3.5-1.8-2.9m9.2 5.3c0 2.9-.4 4-1.5 4s-1.5-1.1-1.5-3.6c0-5.2-2.4-3.8-2.8 1.6-.4 5.3.6 6.3 5.2 5.5l3.6-.7v-5.4c0-4.1-.4-5.4-1.5-5.4s-1.5 1.1-1.5 4m65.8 4.7c-1.7.4-2.1 1.3-1.5 3 .1.5.5.7 1 .5.4-.1.7 2.3.7 5.4 0 4.7.3 5.5 1.8 5.2 1-.2 1.7-1.2 1.6-2.6-.3-10.2-.5-12.2-1.1-12.1-.5.1-1.6.3-2.5.6m5.5 2.9c-.9 2.3 1.1 3.8 2.6 2 1.3-1.6.7-3.6-1-3.6-.5 0-1.2.7-1.6 1.6m-18.5 4.6c-3 1-3.8 3.8-1.3 3.8s7.6-3 7-4c-.7-1.2-2.1-1.2-5.7.2m18.8 1.7c-.3.5-.3 2.4.1 4.1.6 3.1.7 3.2 2 1.5 1.7-2.5 1.7-6.5-.1-6.5-.8 0-1.7.4-2 .9m-30.2 2.5c-1.2.9-2.4 1.3-2.7.9-.3-.3-1.4-.3-2.3.1-1.6.6-1.6.8 0 2.5 1.3 1.5 1.4 2.3.5 5-1.4 4-.7 4.9 1.9 2.3 1.4-1.4 2.3-1.7 3-1 .6.6 1.5.7 2.2.3.8-.5.7-1.4-.5-3.1-1.2-1.9-1.3-2.9-.5-4.5 1.6-2.9.8-4.2-1.6-2.5m11.9.7c-3 .9-4.7 3.9-2.3 3.9 2.1 0 8-2.9 8-3.9 0-1.3-1.3-1.3-5.7 0m-27.2 4c-1.5.6-2.1 1.4-1.7 2.5.3.9.6 3.1.6 5 0 2.4.5 3.4 1.5 3.4 1.1 0 1.5-1.1 1.5-3.9 0-2.2.5-4.3 1-4.6 1.2-.7 1.4-3.5.3-3.4-.5 0-1.9.5-3.2 1m-9.9 3.1c-2 2-1.4 3.1 1.6 2.4l2.7-.6-2.6 1.5c-3.3 1.8-4.1 3.8-2.5 6.1 1.2 1.5 1.6 1.6 4.5.3 3-1.3 3.2-1.7 2.9-5.9-.3-4-.6-4.5-2.8-4.8-1.4-.2-3.1.3-3.8 1m3.8 6.2c0 .3-.4.8-1 1.1-.5.3-1 .1-1-.4 0-.6.5-1.1 1-1.1.6 0 1 .2 1 .4m-8.9-3.2c-.4 1.3-1 3-1.3 3.8-.4 1-.8.6-1.3-1.3-.7-2.5-2.8-3.6-3.8-2-.3.5.4 2.7 1.4 5.1 2.4 5.6 4.7 5.3 6.5-.8.8-2.5 1.4-5.1 1.4-5.8 0-2-2-1.3-2.9 1m-33.8 9.3c-.3.9.2 2.4 1.2 3.5 2 2.2 2.3 11.6.5 13.4-1.3 1.3-1.3 4.6 0 4.6 2.1 0 5-4.1 5-7 0-1.7.6-4 1.3-5.1 1-1.7 1-2.3 0-2.6-.7-.3-1.3-1.5-1.3-2.8 0-4.3-5.3-7.4-6.7-4m333.8 14.4c-9.4 3.3-13.9 8.3-12.6 14 .9 4.2 3.9 6.5 15.5 11.7 14.1 6.2 19.9 8.3 23.5 8.4 7.7 0 15.1-4.2 17.5-10 2.8-6.7-5.2-17.5-16.8-22.7-7.8-3.5-19.5-4.1-27.1-1.4m25.9 9.6c5.6 2.9 9.9 7.3 10.2 10.5.4 3.3-5.1 6.3-10.2 5.7-5.2-.6-30.5-12.1-30.5-13.8 0-.8 1.7-2.2 3.9-3.3 3.6-1.8 4-1.8 7.2-.2 4.6 2.2 7.1 2 7.9-.5.6-1.7 1.2-1.9 3.8-1.3 1.8.3 5.2 1.7 7.7 2.9m-290.9 76c-8.3 1.9-13.7 5.4-14.9 9.7-.4 1.8-.6 13.7-.2 26.5.6 26.5.7 26.8 9.6 31.3 4.4 2.3 6.1 2.5 17.4 2.5 10.7 0 13.2-.3 17.2-2.2 5.2-2.4 8.8-7.1 8.8-11.4 0-2.3.5-2.8 3.6-3.3 5-1 11.1-6.8 12.5-12 2.8-10.3-1.4-20.2-10-23.3-4.4-1.5-5-2.1-5.5-5.4-.3-2-1.5-4.8-2.6-6.2-4.7-6-23-9.2-35.9-6.2m25.8 9.1c2.3.9 4 2.2 3.8 2.8-1.3 4-23.4 5.6-31.9 2.3-2.7-1-4.8-2.2-4.8-2.7 0-.9 6.8-3.6 11-4.4 4.7-.9 17.7.3 21.9 2m4.7 29.4c-.4 10-.9 18.7-1.2 19.5-1.8 4.6-22.1 6.5-30.6 2.7-5.6-2.4-5.8-3.3-5.8-23.9v-15.5l2.3.6c10.5 3 23.3 3.1 31.3.2 2.1-.7 4.1-1.4 4.3-1.5.2 0 .1 8-.3 17.9m14.4-10.3c3.1 4 2.4 11.7-1.4 15-1.5 1.3-3.1 2.3-3.7 2.3-.5 0-.9-4.4-.9-10 0-9.2.2-10 1.9-10 1.1 0 2.9 1.2 4.1 2.7"/></svg>